%TF.GenerationSoftware,KiCad,Pcbnew,10.0.5*%
%TF.CreationDate,2026-09-05T16:53:24-07:00*%
%TF.ProjectId,flinx,666c696e-782e-46b6-9963-61645f706362,rev?*%
%TF.SameCoordinates,Original*%
%TF.FileFunction,Legend,Bot*%
%TF.FilePolarity,Positive*%
%FSLAX46Y46*%
G04 Gerber Fmt 4.6, Leading zero omitted, Abs format (unit mm)*
G04 Created by KiCad (PCBNEW 10.0.5) date 2026-09-05 16:53:24*
%MOMM*%
%LPD*%
G01*
G04 APERTURE LIST*
%ADD10C,0.100000*%
%ADD11C,0.150000*%
%ADD12C,0.120000*%
%ADD13C,0.127000*%
%ADD14C,0.200000*%
G04 APERTURE END LIST*
D10*
X116573057Y-117457142D02*
X116601628Y-117514285D01*
X116601628Y-117514285D02*
X116601628Y-117599999D01*
X116601628Y-117599999D02*
X116573057Y-117685713D01*
X116573057Y-117685713D02*
X116515914Y-117742856D01*
X116515914Y-117742856D02*
X116458771Y-117771427D01*
X116458771Y-117771427D02*
X116344485Y-117799999D01*
X116344485Y-117799999D02*
X116258771Y-117799999D01*
X116258771Y-117799999D02*
X116144485Y-117771427D01*
X116144485Y-117771427D02*
X116087342Y-117742856D01*
X116087342Y-117742856D02*
X116030200Y-117685713D01*
X116030200Y-117685713D02*
X116001628Y-117599999D01*
X116001628Y-117599999D02*
X116001628Y-117542856D01*
X116001628Y-117542856D02*
X116030200Y-117457142D01*
X116030200Y-117457142D02*
X116058771Y-117428570D01*
X116058771Y-117428570D02*
X116258771Y-117428570D01*
X116258771Y-117428570D02*
X116258771Y-117542856D01*
X116001628Y-117171427D02*
X116601628Y-117171427D01*
X116601628Y-117171427D02*
X116001628Y-116828570D01*
X116001628Y-116828570D02*
X116601628Y-116828570D01*
X116001628Y-116542856D02*
X116601628Y-116542856D01*
X116601628Y-116542856D02*
X116601628Y-116399999D01*
X116601628Y-116399999D02*
X116573057Y-116314285D01*
X116573057Y-116314285D02*
X116515914Y-116257142D01*
X116515914Y-116257142D02*
X116458771Y-116228571D01*
X116458771Y-116228571D02*
X116344485Y-116199999D01*
X116344485Y-116199999D02*
X116258771Y-116199999D01*
X116258771Y-116199999D02*
X116144485Y-116228571D01*
X116144485Y-116228571D02*
X116087342Y-116257142D01*
X116087342Y-116257142D02*
X116030200Y-116314285D01*
X116030200Y-116314285D02*
X116001628Y-116399999D01*
X116001628Y-116399999D02*
X116001628Y-116542856D01*
X120101628Y-117800000D02*
X119501628Y-117600000D01*
X119501628Y-117600000D02*
X120101628Y-117400000D01*
X119501628Y-117199999D02*
X120101628Y-117199999D01*
X120101628Y-117199999D02*
X120101628Y-117057142D01*
X120101628Y-117057142D02*
X120073057Y-116971428D01*
X120073057Y-116971428D02*
X120015914Y-116914285D01*
X120015914Y-116914285D02*
X119958771Y-116885714D01*
X119958771Y-116885714D02*
X119844485Y-116857142D01*
X119844485Y-116857142D02*
X119758771Y-116857142D01*
X119758771Y-116857142D02*
X119644485Y-116885714D01*
X119644485Y-116885714D02*
X119587342Y-116914285D01*
X119587342Y-116914285D02*
X119530200Y-116971428D01*
X119530200Y-116971428D02*
X119501628Y-117057142D01*
X119501628Y-117057142D02*
X119501628Y-117199999D01*
X119501628Y-116599999D02*
X120101628Y-116599999D01*
X120101628Y-116599999D02*
X120101628Y-116457142D01*
X120101628Y-116457142D02*
X120073057Y-116371428D01*
X120073057Y-116371428D02*
X120015914Y-116314285D01*
X120015914Y-116314285D02*
X119958771Y-116285714D01*
X119958771Y-116285714D02*
X119844485Y-116257142D01*
X119844485Y-116257142D02*
X119758771Y-116257142D01*
X119758771Y-116257142D02*
X119644485Y-116285714D01*
X119644485Y-116285714D02*
X119587342Y-116314285D01*
X119587342Y-116314285D02*
X119530200Y-116371428D01*
X119530200Y-116371428D02*
X119501628Y-116457142D01*
X119501628Y-116457142D02*
X119501628Y-116599999D01*
X175671628Y-114664284D02*
X176271628Y-114664284D01*
X176271628Y-114664284D02*
X176271628Y-114521427D01*
X176271628Y-114521427D02*
X176243057Y-114435713D01*
X176243057Y-114435713D02*
X176185914Y-114378570D01*
X176185914Y-114378570D02*
X176128771Y-114349999D01*
X176128771Y-114349999D02*
X176014485Y-114321427D01*
X176014485Y-114321427D02*
X175928771Y-114321427D01*
X175928771Y-114321427D02*
X175814485Y-114349999D01*
X175814485Y-114349999D02*
X175757342Y-114378570D01*
X175757342Y-114378570D02*
X175700200Y-114435713D01*
X175700200Y-114435713D02*
X175671628Y-114521427D01*
X175671628Y-114521427D02*
X175671628Y-114664284D01*
X175671628Y-114064284D02*
X176271628Y-114064284D01*
X176271628Y-113664285D02*
X176271628Y-113549999D01*
X176271628Y-113549999D02*
X176243057Y-113492856D01*
X176243057Y-113492856D02*
X176185914Y-113435713D01*
X176185914Y-113435713D02*
X176071628Y-113407142D01*
X176071628Y-113407142D02*
X175871628Y-113407142D01*
X175871628Y-113407142D02*
X175757342Y-113435713D01*
X175757342Y-113435713D02*
X175700200Y-113492856D01*
X175700200Y-113492856D02*
X175671628Y-113549999D01*
X175671628Y-113549999D02*
X175671628Y-113664285D01*
X175671628Y-113664285D02*
X175700200Y-113721428D01*
X175700200Y-113721428D02*
X175757342Y-113778570D01*
X175757342Y-113778570D02*
X175871628Y-113807142D01*
X175871628Y-113807142D02*
X176071628Y-113807142D01*
X176071628Y-113807142D02*
X176185914Y-113778570D01*
X176185914Y-113778570D02*
X176243057Y-113721428D01*
X176243057Y-113721428D02*
X176271628Y-113664285D01*
X178268771Y-114407142D02*
X178240200Y-114435714D01*
X178240200Y-114435714D02*
X178211628Y-114521428D01*
X178211628Y-114521428D02*
X178211628Y-114578571D01*
X178211628Y-114578571D02*
X178240200Y-114664285D01*
X178240200Y-114664285D02*
X178297342Y-114721428D01*
X178297342Y-114721428D02*
X178354485Y-114749999D01*
X178354485Y-114749999D02*
X178468771Y-114778571D01*
X178468771Y-114778571D02*
X178554485Y-114778571D01*
X178554485Y-114778571D02*
X178668771Y-114749999D01*
X178668771Y-114749999D02*
X178725914Y-114721428D01*
X178725914Y-114721428D02*
X178783057Y-114664285D01*
X178783057Y-114664285D02*
X178811628Y-114578571D01*
X178811628Y-114578571D02*
X178811628Y-114521428D01*
X178811628Y-114521428D02*
X178783057Y-114435714D01*
X178783057Y-114435714D02*
X178754485Y-114407142D01*
X178211628Y-113864285D02*
X178211628Y-114149999D01*
X178211628Y-114149999D02*
X178811628Y-114149999D01*
X178211628Y-113664285D02*
X178811628Y-113664285D01*
X178211628Y-113321428D02*
X178554485Y-113578571D01*
X178811628Y-113321428D02*
X178468771Y-113664285D01*
X180751628Y-114378571D02*
X181037342Y-114578571D01*
X180751628Y-114721428D02*
X181351628Y-114721428D01*
X181351628Y-114721428D02*
X181351628Y-114492857D01*
X181351628Y-114492857D02*
X181323057Y-114435714D01*
X181323057Y-114435714D02*
X181294485Y-114407143D01*
X181294485Y-114407143D02*
X181237342Y-114378571D01*
X181237342Y-114378571D02*
X181151628Y-114378571D01*
X181151628Y-114378571D02*
X181094485Y-114407143D01*
X181094485Y-114407143D02*
X181065914Y-114435714D01*
X181065914Y-114435714D02*
X181037342Y-114492857D01*
X181037342Y-114492857D02*
X181037342Y-114721428D01*
X180780200Y-114150000D02*
X180751628Y-114064286D01*
X180751628Y-114064286D02*
X180751628Y-113921428D01*
X180751628Y-113921428D02*
X180780200Y-113864286D01*
X180780200Y-113864286D02*
X180808771Y-113835714D01*
X180808771Y-113835714D02*
X180865914Y-113807143D01*
X180865914Y-113807143D02*
X180923057Y-113807143D01*
X180923057Y-113807143D02*
X180980200Y-113835714D01*
X180980200Y-113835714D02*
X181008771Y-113864286D01*
X181008771Y-113864286D02*
X181037342Y-113921428D01*
X181037342Y-113921428D02*
X181065914Y-114035714D01*
X181065914Y-114035714D02*
X181094485Y-114092857D01*
X181094485Y-114092857D02*
X181123057Y-114121428D01*
X181123057Y-114121428D02*
X181180200Y-114150000D01*
X181180200Y-114150000D02*
X181237342Y-114150000D01*
X181237342Y-114150000D02*
X181294485Y-114121428D01*
X181294485Y-114121428D02*
X181323057Y-114092857D01*
X181323057Y-114092857D02*
X181351628Y-114035714D01*
X181351628Y-114035714D02*
X181351628Y-113892857D01*
X181351628Y-113892857D02*
X181323057Y-113807143D01*
X181351628Y-113635714D02*
X181351628Y-113292857D01*
X180751628Y-113464285D02*
X181351628Y-113464285D01*
X183863057Y-114507142D02*
X183891628Y-114564285D01*
X183891628Y-114564285D02*
X183891628Y-114649999D01*
X183891628Y-114649999D02*
X183863057Y-114735713D01*
X183863057Y-114735713D02*
X183805914Y-114792856D01*
X183805914Y-114792856D02*
X183748771Y-114821427D01*
X183748771Y-114821427D02*
X183634485Y-114849999D01*
X183634485Y-114849999D02*
X183548771Y-114849999D01*
X183548771Y-114849999D02*
X183434485Y-114821427D01*
X183434485Y-114821427D02*
X183377342Y-114792856D01*
X183377342Y-114792856D02*
X183320200Y-114735713D01*
X183320200Y-114735713D02*
X183291628Y-114649999D01*
X183291628Y-114649999D02*
X183291628Y-114592856D01*
X183291628Y-114592856D02*
X183320200Y-114507142D01*
X183320200Y-114507142D02*
X183348771Y-114478570D01*
X183348771Y-114478570D02*
X183548771Y-114478570D01*
X183548771Y-114478570D02*
X183548771Y-114592856D01*
X183291628Y-114221427D02*
X183891628Y-114221427D01*
X183891628Y-114221427D02*
X183291628Y-113878570D01*
X183291628Y-113878570D02*
X183891628Y-113878570D01*
X183291628Y-113592856D02*
X183891628Y-113592856D01*
X183891628Y-113592856D02*
X183891628Y-113449999D01*
X183891628Y-113449999D02*
X183863057Y-113364285D01*
X183863057Y-113364285D02*
X183805914Y-113307142D01*
X183805914Y-113307142D02*
X183748771Y-113278571D01*
X183748771Y-113278571D02*
X183634485Y-113249999D01*
X183634485Y-113249999D02*
X183548771Y-113249999D01*
X183548771Y-113249999D02*
X183434485Y-113278571D01*
X183434485Y-113278571D02*
X183377342Y-113307142D01*
X183377342Y-113307142D02*
X183320200Y-113364285D01*
X183320200Y-113364285D02*
X183291628Y-113449999D01*
X183291628Y-113449999D02*
X183291628Y-113592856D01*
X186431628Y-114850000D02*
X185831628Y-114650000D01*
X185831628Y-114650000D02*
X186431628Y-114450000D01*
X185831628Y-114249999D02*
X186431628Y-114249999D01*
X186431628Y-114249999D02*
X186431628Y-114107142D01*
X186431628Y-114107142D02*
X186403057Y-114021428D01*
X186403057Y-114021428D02*
X186345914Y-113964285D01*
X186345914Y-113964285D02*
X186288771Y-113935714D01*
X186288771Y-113935714D02*
X186174485Y-113907142D01*
X186174485Y-113907142D02*
X186088771Y-113907142D01*
X186088771Y-113907142D02*
X185974485Y-113935714D01*
X185974485Y-113935714D02*
X185917342Y-113964285D01*
X185917342Y-113964285D02*
X185860200Y-114021428D01*
X185860200Y-114021428D02*
X185831628Y-114107142D01*
X185831628Y-114107142D02*
X185831628Y-114249999D01*
X185831628Y-113649999D02*
X186431628Y-113649999D01*
X186431628Y-113649999D02*
X186431628Y-113507142D01*
X186431628Y-113507142D02*
X186403057Y-113421428D01*
X186403057Y-113421428D02*
X186345914Y-113364285D01*
X186345914Y-113364285D02*
X186288771Y-113335714D01*
X186288771Y-113335714D02*
X186174485Y-113307142D01*
X186174485Y-113307142D02*
X186088771Y-113307142D01*
X186088771Y-113307142D02*
X185974485Y-113335714D01*
X185974485Y-113335714D02*
X185917342Y-113364285D01*
X185917342Y-113364285D02*
X185860200Y-113421428D01*
X185860200Y-113421428D02*
X185831628Y-113507142D01*
X185831628Y-113507142D02*
X185831628Y-113649999D01*
D11*
X271514285Y-70054819D02*
X271514285Y-69054819D01*
X271514285Y-69054819D02*
X271276190Y-69054819D01*
X271276190Y-69054819D02*
X271133333Y-69102438D01*
X271133333Y-69102438D02*
X271038095Y-69197676D01*
X271038095Y-69197676D02*
X270990476Y-69292914D01*
X270990476Y-69292914D02*
X270942857Y-69483390D01*
X270942857Y-69483390D02*
X270942857Y-69626247D01*
X270942857Y-69626247D02*
X270990476Y-69816723D01*
X270990476Y-69816723D02*
X271038095Y-69911961D01*
X271038095Y-69911961D02*
X271133333Y-70007200D01*
X271133333Y-70007200D02*
X271276190Y-70054819D01*
X271276190Y-70054819D02*
X271514285Y-70054819D01*
X270085714Y-69388152D02*
X270085714Y-70054819D01*
X270323809Y-69007200D02*
X270561904Y-69721485D01*
X270561904Y-69721485D02*
X269942857Y-69721485D01*
X269085714Y-69054819D02*
X269561904Y-69054819D01*
X269561904Y-69054819D02*
X269609523Y-69531009D01*
X269609523Y-69531009D02*
X269561904Y-69483390D01*
X269561904Y-69483390D02*
X269466666Y-69435771D01*
X269466666Y-69435771D02*
X269228571Y-69435771D01*
X269228571Y-69435771D02*
X269133333Y-69483390D01*
X269133333Y-69483390D02*
X269085714Y-69531009D01*
X269085714Y-69531009D02*
X269038095Y-69626247D01*
X269038095Y-69626247D02*
X269038095Y-69864342D01*
X269038095Y-69864342D02*
X269085714Y-69959580D01*
X269085714Y-69959580D02*
X269133333Y-70007200D01*
X269133333Y-70007200D02*
X269228571Y-70054819D01*
X269228571Y-70054819D02*
X269466666Y-70054819D01*
X269466666Y-70054819D02*
X269561904Y-70007200D01*
X269561904Y-70007200D02*
X269609523Y-69959580D01*
X91038094Y-70054819D02*
X91038094Y-69054819D01*
X91038094Y-69054819D02*
X90799999Y-69054819D01*
X90799999Y-69054819D02*
X90657142Y-69102438D01*
X90657142Y-69102438D02*
X90561904Y-69197676D01*
X90561904Y-69197676D02*
X90514285Y-69292914D01*
X90514285Y-69292914D02*
X90466666Y-69483390D01*
X90466666Y-69483390D02*
X90466666Y-69626247D01*
X90466666Y-69626247D02*
X90514285Y-69816723D01*
X90514285Y-69816723D02*
X90561904Y-69911961D01*
X90561904Y-69911961D02*
X90657142Y-70007200D01*
X90657142Y-70007200D02*
X90799999Y-70054819D01*
X90799999Y-70054819D02*
X91038094Y-70054819D01*
X90133332Y-69054819D02*
X89514285Y-69054819D01*
X89514285Y-69054819D02*
X89847618Y-69435771D01*
X89847618Y-69435771D02*
X89704761Y-69435771D01*
X89704761Y-69435771D02*
X89609523Y-69483390D01*
X89609523Y-69483390D02*
X89561904Y-69531009D01*
X89561904Y-69531009D02*
X89514285Y-69626247D01*
X89514285Y-69626247D02*
X89514285Y-69864342D01*
X89514285Y-69864342D02*
X89561904Y-69959580D01*
X89561904Y-69959580D02*
X89609523Y-70007200D01*
X89609523Y-70007200D02*
X89704761Y-70054819D01*
X89704761Y-70054819D02*
X89990475Y-70054819D01*
X89990475Y-70054819D02*
X90085713Y-70007200D01*
X90085713Y-70007200D02*
X90133332Y-69959580D01*
X126167857Y-111479580D02*
X126215476Y-111527200D01*
X126215476Y-111527200D02*
X126358333Y-111574819D01*
X126358333Y-111574819D02*
X126453571Y-111574819D01*
X126453571Y-111574819D02*
X126596428Y-111527200D01*
X126596428Y-111527200D02*
X126691666Y-111431961D01*
X126691666Y-111431961D02*
X126739285Y-111336723D01*
X126739285Y-111336723D02*
X126786904Y-111146247D01*
X126786904Y-111146247D02*
X126786904Y-111003390D01*
X126786904Y-111003390D02*
X126739285Y-110812914D01*
X126739285Y-110812914D02*
X126691666Y-110717676D01*
X126691666Y-110717676D02*
X126596428Y-110622438D01*
X126596428Y-110622438D02*
X126453571Y-110574819D01*
X126453571Y-110574819D02*
X126358333Y-110574819D01*
X126358333Y-110574819D02*
X126215476Y-110622438D01*
X126215476Y-110622438D02*
X126167857Y-110670057D01*
X125215476Y-111574819D02*
X125786904Y-111574819D01*
X125501190Y-111574819D02*
X125501190Y-110574819D01*
X125501190Y-110574819D02*
X125596428Y-110717676D01*
X125596428Y-110717676D02*
X125691666Y-110812914D01*
X125691666Y-110812914D02*
X125786904Y-110860533D01*
X124882142Y-110574819D02*
X124263095Y-110574819D01*
X124263095Y-110574819D02*
X124596428Y-110955771D01*
X124596428Y-110955771D02*
X124453571Y-110955771D01*
X124453571Y-110955771D02*
X124358333Y-111003390D01*
X124358333Y-111003390D02*
X124310714Y-111051009D01*
X124310714Y-111051009D02*
X124263095Y-111146247D01*
X124263095Y-111146247D02*
X124263095Y-111384342D01*
X124263095Y-111384342D02*
X124310714Y-111479580D01*
X124310714Y-111479580D02*
X124358333Y-111527200D01*
X124358333Y-111527200D02*
X124453571Y-111574819D01*
X124453571Y-111574819D02*
X124739285Y-111574819D01*
X124739285Y-111574819D02*
X124834523Y-111527200D01*
X124834523Y-111527200D02*
X124882142Y-111479580D01*
X154966666Y-119684819D02*
X155442856Y-119684819D01*
X155442856Y-119684819D02*
X155442856Y-118684819D01*
X154680951Y-118780057D02*
X154633332Y-118732438D01*
X154633332Y-118732438D02*
X154538094Y-118684819D01*
X154538094Y-118684819D02*
X154299999Y-118684819D01*
X154299999Y-118684819D02*
X154204761Y-118732438D01*
X154204761Y-118732438D02*
X154157142Y-118780057D01*
X154157142Y-118780057D02*
X154109523Y-118875295D01*
X154109523Y-118875295D02*
X154109523Y-118970533D01*
X154109523Y-118970533D02*
X154157142Y-119113390D01*
X154157142Y-119113390D02*
X154728570Y-119684819D01*
X154728570Y-119684819D02*
X154109523Y-119684819D01*
X195014285Y-104054819D02*
X195014285Y-103054819D01*
X195014285Y-103054819D02*
X194776190Y-103054819D01*
X194776190Y-103054819D02*
X194633333Y-103102438D01*
X194633333Y-103102438D02*
X194538095Y-103197676D01*
X194538095Y-103197676D02*
X194490476Y-103292914D01*
X194490476Y-103292914D02*
X194442857Y-103483390D01*
X194442857Y-103483390D02*
X194442857Y-103626247D01*
X194442857Y-103626247D02*
X194490476Y-103816723D01*
X194490476Y-103816723D02*
X194538095Y-103911961D01*
X194538095Y-103911961D02*
X194633333Y-104007200D01*
X194633333Y-104007200D02*
X194776190Y-104054819D01*
X194776190Y-104054819D02*
X195014285Y-104054819D01*
X194109523Y-103054819D02*
X193490476Y-103054819D01*
X193490476Y-103054819D02*
X193823809Y-103435771D01*
X193823809Y-103435771D02*
X193680952Y-103435771D01*
X193680952Y-103435771D02*
X193585714Y-103483390D01*
X193585714Y-103483390D02*
X193538095Y-103531009D01*
X193538095Y-103531009D02*
X193490476Y-103626247D01*
X193490476Y-103626247D02*
X193490476Y-103864342D01*
X193490476Y-103864342D02*
X193538095Y-103959580D01*
X193538095Y-103959580D02*
X193585714Y-104007200D01*
X193585714Y-104007200D02*
X193680952Y-104054819D01*
X193680952Y-104054819D02*
X193966666Y-104054819D01*
X193966666Y-104054819D02*
X194061904Y-104007200D01*
X194061904Y-104007200D02*
X194109523Y-103959580D01*
X192538095Y-104054819D02*
X193109523Y-104054819D01*
X192823809Y-104054819D02*
X192823809Y-103054819D01*
X192823809Y-103054819D02*
X192919047Y-103197676D01*
X192919047Y-103197676D02*
X193014285Y-103292914D01*
X193014285Y-103292914D02*
X193109523Y-103340533D01*
X217514285Y-70054819D02*
X217514285Y-69054819D01*
X217514285Y-69054819D02*
X217276190Y-69054819D01*
X217276190Y-69054819D02*
X217133333Y-69102438D01*
X217133333Y-69102438D02*
X217038095Y-69197676D01*
X217038095Y-69197676D02*
X216990476Y-69292914D01*
X216990476Y-69292914D02*
X216942857Y-69483390D01*
X216942857Y-69483390D02*
X216942857Y-69626247D01*
X216942857Y-69626247D02*
X216990476Y-69816723D01*
X216990476Y-69816723D02*
X217038095Y-69911961D01*
X217038095Y-69911961D02*
X217133333Y-70007200D01*
X217133333Y-70007200D02*
X217276190Y-70054819D01*
X217276190Y-70054819D02*
X217514285Y-70054819D01*
X215990476Y-70054819D02*
X216561904Y-70054819D01*
X216276190Y-70054819D02*
X216276190Y-69054819D01*
X216276190Y-69054819D02*
X216371428Y-69197676D01*
X216371428Y-69197676D02*
X216466666Y-69292914D01*
X216466666Y-69292914D02*
X216561904Y-69340533D01*
X215371428Y-69054819D02*
X215276190Y-69054819D01*
X215276190Y-69054819D02*
X215180952Y-69102438D01*
X215180952Y-69102438D02*
X215133333Y-69150057D01*
X215133333Y-69150057D02*
X215085714Y-69245295D01*
X215085714Y-69245295D02*
X215038095Y-69435771D01*
X215038095Y-69435771D02*
X215038095Y-69673866D01*
X215038095Y-69673866D02*
X215085714Y-69864342D01*
X215085714Y-69864342D02*
X215133333Y-69959580D01*
X215133333Y-69959580D02*
X215180952Y-70007200D01*
X215180952Y-70007200D02*
X215276190Y-70054819D01*
X215276190Y-70054819D02*
X215371428Y-70054819D01*
X215371428Y-70054819D02*
X215466666Y-70007200D01*
X215466666Y-70007200D02*
X215514285Y-69959580D01*
X215514285Y-69959580D02*
X215561904Y-69864342D01*
X215561904Y-69864342D02*
X215609523Y-69673866D01*
X215609523Y-69673866D02*
X215609523Y-69435771D01*
X215609523Y-69435771D02*
X215561904Y-69245295D01*
X215561904Y-69245295D02*
X215514285Y-69150057D01*
X215514285Y-69150057D02*
X215466666Y-69102438D01*
X215466666Y-69102438D02*
X215371428Y-69054819D01*
X142217857Y-113729580D02*
X142265476Y-113777200D01*
X142265476Y-113777200D02*
X142408333Y-113824819D01*
X142408333Y-113824819D02*
X142503571Y-113824819D01*
X142503571Y-113824819D02*
X142646428Y-113777200D01*
X142646428Y-113777200D02*
X142741666Y-113681961D01*
X142741666Y-113681961D02*
X142789285Y-113586723D01*
X142789285Y-113586723D02*
X142836904Y-113396247D01*
X142836904Y-113396247D02*
X142836904Y-113253390D01*
X142836904Y-113253390D02*
X142789285Y-113062914D01*
X142789285Y-113062914D02*
X142741666Y-112967676D01*
X142741666Y-112967676D02*
X142646428Y-112872438D01*
X142646428Y-112872438D02*
X142503571Y-112824819D01*
X142503571Y-112824819D02*
X142408333Y-112824819D01*
X142408333Y-112824819D02*
X142265476Y-112872438D01*
X142265476Y-112872438D02*
X142217857Y-112920057D01*
X141265476Y-113824819D02*
X141836904Y-113824819D01*
X141551190Y-113824819D02*
X141551190Y-112824819D01*
X141551190Y-112824819D02*
X141646428Y-112967676D01*
X141646428Y-112967676D02*
X141741666Y-113062914D01*
X141741666Y-113062914D02*
X141836904Y-113110533D01*
X140360714Y-112824819D02*
X140836904Y-112824819D01*
X140836904Y-112824819D02*
X140884523Y-113301009D01*
X140884523Y-113301009D02*
X140836904Y-113253390D01*
X140836904Y-113253390D02*
X140741666Y-113205771D01*
X140741666Y-113205771D02*
X140503571Y-113205771D01*
X140503571Y-113205771D02*
X140408333Y-113253390D01*
X140408333Y-113253390D02*
X140360714Y-113301009D01*
X140360714Y-113301009D02*
X140313095Y-113396247D01*
X140313095Y-113396247D02*
X140313095Y-113634342D01*
X140313095Y-113634342D02*
X140360714Y-113729580D01*
X140360714Y-113729580D02*
X140408333Y-113777200D01*
X140408333Y-113777200D02*
X140503571Y-113824819D01*
X140503571Y-113824819D02*
X140741666Y-113824819D01*
X140741666Y-113824819D02*
X140836904Y-113777200D01*
X140836904Y-113777200D02*
X140884523Y-113729580D01*
X37514285Y-70054819D02*
X37514285Y-69054819D01*
X37514285Y-69054819D02*
X37276190Y-69054819D01*
X37276190Y-69054819D02*
X37133333Y-69102438D01*
X37133333Y-69102438D02*
X37038095Y-69197676D01*
X37038095Y-69197676D02*
X36990476Y-69292914D01*
X36990476Y-69292914D02*
X36942857Y-69483390D01*
X36942857Y-69483390D02*
X36942857Y-69626247D01*
X36942857Y-69626247D02*
X36990476Y-69816723D01*
X36990476Y-69816723D02*
X37038095Y-69911961D01*
X37038095Y-69911961D02*
X37133333Y-70007200D01*
X37133333Y-70007200D02*
X37276190Y-70054819D01*
X37276190Y-70054819D02*
X37514285Y-70054819D01*
X36609523Y-69054819D02*
X35990476Y-69054819D01*
X35990476Y-69054819D02*
X36323809Y-69435771D01*
X36323809Y-69435771D02*
X36180952Y-69435771D01*
X36180952Y-69435771D02*
X36085714Y-69483390D01*
X36085714Y-69483390D02*
X36038095Y-69531009D01*
X36038095Y-69531009D02*
X35990476Y-69626247D01*
X35990476Y-69626247D02*
X35990476Y-69864342D01*
X35990476Y-69864342D02*
X36038095Y-69959580D01*
X36038095Y-69959580D02*
X36085714Y-70007200D01*
X36085714Y-70007200D02*
X36180952Y-70054819D01*
X36180952Y-70054819D02*
X36466666Y-70054819D01*
X36466666Y-70054819D02*
X36561904Y-70007200D01*
X36561904Y-70007200D02*
X36609523Y-69959580D01*
X35085714Y-69054819D02*
X35561904Y-69054819D01*
X35561904Y-69054819D02*
X35609523Y-69531009D01*
X35609523Y-69531009D02*
X35561904Y-69483390D01*
X35561904Y-69483390D02*
X35466666Y-69435771D01*
X35466666Y-69435771D02*
X35228571Y-69435771D01*
X35228571Y-69435771D02*
X35133333Y-69483390D01*
X35133333Y-69483390D02*
X35085714Y-69531009D01*
X35085714Y-69531009D02*
X35038095Y-69626247D01*
X35038095Y-69626247D02*
X35038095Y-69864342D01*
X35038095Y-69864342D02*
X35085714Y-69959580D01*
X35085714Y-69959580D02*
X35133333Y-70007200D01*
X35133333Y-70007200D02*
X35228571Y-70054819D01*
X35228571Y-70054819D02*
X35466666Y-70054819D01*
X35466666Y-70054819D02*
X35561904Y-70007200D01*
X35561904Y-70007200D02*
X35609523Y-69959580D01*
X96014285Y-87054819D02*
X96014285Y-86054819D01*
X96014285Y-86054819D02*
X95776190Y-86054819D01*
X95776190Y-86054819D02*
X95633333Y-86102438D01*
X95633333Y-86102438D02*
X95538095Y-86197676D01*
X95538095Y-86197676D02*
X95490476Y-86292914D01*
X95490476Y-86292914D02*
X95442857Y-86483390D01*
X95442857Y-86483390D02*
X95442857Y-86626247D01*
X95442857Y-86626247D02*
X95490476Y-86816723D01*
X95490476Y-86816723D02*
X95538095Y-86911961D01*
X95538095Y-86911961D02*
X95633333Y-87007200D01*
X95633333Y-87007200D02*
X95776190Y-87054819D01*
X95776190Y-87054819D02*
X96014285Y-87054819D01*
X94490476Y-87054819D02*
X95061904Y-87054819D01*
X94776190Y-87054819D02*
X94776190Y-86054819D01*
X94776190Y-86054819D02*
X94871428Y-86197676D01*
X94871428Y-86197676D02*
X94966666Y-86292914D01*
X94966666Y-86292914D02*
X95061904Y-86340533D01*
X93585714Y-86054819D02*
X94061904Y-86054819D01*
X94061904Y-86054819D02*
X94109523Y-86531009D01*
X94109523Y-86531009D02*
X94061904Y-86483390D01*
X94061904Y-86483390D02*
X93966666Y-86435771D01*
X93966666Y-86435771D02*
X93728571Y-86435771D01*
X93728571Y-86435771D02*
X93633333Y-86483390D01*
X93633333Y-86483390D02*
X93585714Y-86531009D01*
X93585714Y-86531009D02*
X93538095Y-86626247D01*
X93538095Y-86626247D02*
X93538095Y-86864342D01*
X93538095Y-86864342D02*
X93585714Y-86959580D01*
X93585714Y-86959580D02*
X93633333Y-87007200D01*
X93633333Y-87007200D02*
X93728571Y-87054819D01*
X93728571Y-87054819D02*
X93966666Y-87054819D01*
X93966666Y-87054819D02*
X94061904Y-87007200D01*
X94061904Y-87007200D02*
X94109523Y-86959580D01*
X251264285Y-104054819D02*
X251264285Y-103054819D01*
X251264285Y-103054819D02*
X251026190Y-103054819D01*
X251026190Y-103054819D02*
X250883333Y-103102438D01*
X250883333Y-103102438D02*
X250788095Y-103197676D01*
X250788095Y-103197676D02*
X250740476Y-103292914D01*
X250740476Y-103292914D02*
X250692857Y-103483390D01*
X250692857Y-103483390D02*
X250692857Y-103626247D01*
X250692857Y-103626247D02*
X250740476Y-103816723D01*
X250740476Y-103816723D02*
X250788095Y-103911961D01*
X250788095Y-103911961D02*
X250883333Y-104007200D01*
X250883333Y-104007200D02*
X251026190Y-104054819D01*
X251026190Y-104054819D02*
X251264285Y-104054819D01*
X250359523Y-103054819D02*
X249740476Y-103054819D01*
X249740476Y-103054819D02*
X250073809Y-103435771D01*
X250073809Y-103435771D02*
X249930952Y-103435771D01*
X249930952Y-103435771D02*
X249835714Y-103483390D01*
X249835714Y-103483390D02*
X249788095Y-103531009D01*
X249788095Y-103531009D02*
X249740476Y-103626247D01*
X249740476Y-103626247D02*
X249740476Y-103864342D01*
X249740476Y-103864342D02*
X249788095Y-103959580D01*
X249788095Y-103959580D02*
X249835714Y-104007200D01*
X249835714Y-104007200D02*
X249930952Y-104054819D01*
X249930952Y-104054819D02*
X250216666Y-104054819D01*
X250216666Y-104054819D02*
X250311904Y-104007200D01*
X250311904Y-104007200D02*
X250359523Y-103959580D01*
X248883333Y-103388152D02*
X248883333Y-104054819D01*
X249121428Y-103007200D02*
X249359523Y-103721485D01*
X249359523Y-103721485D02*
X248740476Y-103721485D01*
X175692857Y-122839580D02*
X175740476Y-122887200D01*
X175740476Y-122887200D02*
X175883333Y-122934819D01*
X175883333Y-122934819D02*
X175978571Y-122934819D01*
X175978571Y-122934819D02*
X176121428Y-122887200D01*
X176121428Y-122887200D02*
X176216666Y-122791961D01*
X176216666Y-122791961D02*
X176264285Y-122696723D01*
X176264285Y-122696723D02*
X176311904Y-122506247D01*
X176311904Y-122506247D02*
X176311904Y-122363390D01*
X176311904Y-122363390D02*
X176264285Y-122172914D01*
X176264285Y-122172914D02*
X176216666Y-122077676D01*
X176216666Y-122077676D02*
X176121428Y-121982438D01*
X176121428Y-121982438D02*
X175978571Y-121934819D01*
X175978571Y-121934819D02*
X175883333Y-121934819D01*
X175883333Y-121934819D02*
X175740476Y-121982438D01*
X175740476Y-121982438D02*
X175692857Y-122030057D01*
X174740476Y-122934819D02*
X175311904Y-122934819D01*
X175026190Y-122934819D02*
X175026190Y-121934819D01*
X175026190Y-121934819D02*
X175121428Y-122077676D01*
X175121428Y-122077676D02*
X175216666Y-122172914D01*
X175216666Y-122172914D02*
X175311904Y-122220533D01*
X173883333Y-122268152D02*
X173883333Y-122934819D01*
X174121428Y-121887200D02*
X174359523Y-122601485D01*
X174359523Y-122601485D02*
X173740476Y-122601485D01*
X143728628Y-121023809D02*
X144204819Y-121023809D01*
X143204819Y-120690476D02*
X143728628Y-121023809D01*
X143728628Y-121023809D02*
X143204819Y-121357142D01*
X144204819Y-122214285D02*
X144204819Y-121642857D01*
X144204819Y-121928571D02*
X143204819Y-121928571D01*
X143204819Y-121928571D02*
X143347676Y-121833333D01*
X143347676Y-121833333D02*
X143442914Y-121738095D01*
X143442914Y-121738095D02*
X143490533Y-121642857D01*
X145824819Y-109095833D02*
X145824819Y-108619643D01*
X145824819Y-108619643D02*
X144824819Y-108619643D01*
X144824819Y-109333929D02*
X144824819Y-109952976D01*
X144824819Y-109952976D02*
X145205771Y-109619643D01*
X145205771Y-109619643D02*
X145205771Y-109762500D01*
X145205771Y-109762500D02*
X145253390Y-109857738D01*
X145253390Y-109857738D02*
X145301009Y-109905357D01*
X145301009Y-109905357D02*
X145396247Y-109952976D01*
X145396247Y-109952976D02*
X145634342Y-109952976D01*
X145634342Y-109952976D02*
X145729580Y-109905357D01*
X145729580Y-109905357D02*
X145777200Y-109857738D01*
X145777200Y-109857738D02*
X145824819Y-109762500D01*
X145824819Y-109762500D02*
X145824819Y-109476786D01*
X145824819Y-109476786D02*
X145777200Y-109381548D01*
X145777200Y-109381548D02*
X145729580Y-109333929D01*
X146934819Y-109095833D02*
X146934819Y-108619643D01*
X146934819Y-108619643D02*
X145934819Y-108619643D01*
X146268152Y-109857738D02*
X146934819Y-109857738D01*
X145887200Y-109619643D02*
X146601485Y-109381548D01*
X146601485Y-109381548D02*
X146601485Y-110000595D01*
X44264285Y-104054819D02*
X44264285Y-103054819D01*
X44264285Y-103054819D02*
X44026190Y-103054819D01*
X44026190Y-103054819D02*
X43883333Y-103102438D01*
X43883333Y-103102438D02*
X43788095Y-103197676D01*
X43788095Y-103197676D02*
X43740476Y-103292914D01*
X43740476Y-103292914D02*
X43692857Y-103483390D01*
X43692857Y-103483390D02*
X43692857Y-103626247D01*
X43692857Y-103626247D02*
X43740476Y-103816723D01*
X43740476Y-103816723D02*
X43788095Y-103911961D01*
X43788095Y-103911961D02*
X43883333Y-104007200D01*
X43883333Y-104007200D02*
X44026190Y-104054819D01*
X44026190Y-104054819D02*
X44264285Y-104054819D01*
X43359523Y-103054819D02*
X42740476Y-103054819D01*
X42740476Y-103054819D02*
X43073809Y-103435771D01*
X43073809Y-103435771D02*
X42930952Y-103435771D01*
X42930952Y-103435771D02*
X42835714Y-103483390D01*
X42835714Y-103483390D02*
X42788095Y-103531009D01*
X42788095Y-103531009D02*
X42740476Y-103626247D01*
X42740476Y-103626247D02*
X42740476Y-103864342D01*
X42740476Y-103864342D02*
X42788095Y-103959580D01*
X42788095Y-103959580D02*
X42835714Y-104007200D01*
X42835714Y-104007200D02*
X42930952Y-104054819D01*
X42930952Y-104054819D02*
X43216666Y-104054819D01*
X43216666Y-104054819D02*
X43311904Y-104007200D01*
X43311904Y-104007200D02*
X43359523Y-103959580D01*
X42407142Y-103054819D02*
X41740476Y-103054819D01*
X41740476Y-103054819D02*
X42169047Y-104054819D01*
X60014285Y-87054819D02*
X60014285Y-86054819D01*
X60014285Y-86054819D02*
X59776190Y-86054819D01*
X59776190Y-86054819D02*
X59633333Y-86102438D01*
X59633333Y-86102438D02*
X59538095Y-86197676D01*
X59538095Y-86197676D02*
X59490476Y-86292914D01*
X59490476Y-86292914D02*
X59442857Y-86483390D01*
X59442857Y-86483390D02*
X59442857Y-86626247D01*
X59442857Y-86626247D02*
X59490476Y-86816723D01*
X59490476Y-86816723D02*
X59538095Y-86911961D01*
X59538095Y-86911961D02*
X59633333Y-87007200D01*
X59633333Y-87007200D02*
X59776190Y-87054819D01*
X59776190Y-87054819D02*
X60014285Y-87054819D01*
X58490476Y-87054819D02*
X59061904Y-87054819D01*
X58776190Y-87054819D02*
X58776190Y-86054819D01*
X58776190Y-86054819D02*
X58871428Y-86197676D01*
X58871428Y-86197676D02*
X58966666Y-86292914D01*
X58966666Y-86292914D02*
X59061904Y-86340533D01*
X58157142Y-86054819D02*
X57538095Y-86054819D01*
X57538095Y-86054819D02*
X57871428Y-86435771D01*
X57871428Y-86435771D02*
X57728571Y-86435771D01*
X57728571Y-86435771D02*
X57633333Y-86483390D01*
X57633333Y-86483390D02*
X57585714Y-86531009D01*
X57585714Y-86531009D02*
X57538095Y-86626247D01*
X57538095Y-86626247D02*
X57538095Y-86864342D01*
X57538095Y-86864342D02*
X57585714Y-86959580D01*
X57585714Y-86959580D02*
X57633333Y-87007200D01*
X57633333Y-87007200D02*
X57728571Y-87054819D01*
X57728571Y-87054819D02*
X58014285Y-87054819D01*
X58014285Y-87054819D02*
X58109523Y-87007200D01*
X58109523Y-87007200D02*
X58157142Y-86959580D01*
X105014285Y-104054819D02*
X105014285Y-103054819D01*
X105014285Y-103054819D02*
X104776190Y-103054819D01*
X104776190Y-103054819D02*
X104633333Y-103102438D01*
X104633333Y-103102438D02*
X104538095Y-103197676D01*
X104538095Y-103197676D02*
X104490476Y-103292914D01*
X104490476Y-103292914D02*
X104442857Y-103483390D01*
X104442857Y-103483390D02*
X104442857Y-103626247D01*
X104442857Y-103626247D02*
X104490476Y-103816723D01*
X104490476Y-103816723D02*
X104538095Y-103911961D01*
X104538095Y-103911961D02*
X104633333Y-104007200D01*
X104633333Y-104007200D02*
X104776190Y-104054819D01*
X104776190Y-104054819D02*
X105014285Y-104054819D01*
X104061904Y-103150057D02*
X104014285Y-103102438D01*
X104014285Y-103102438D02*
X103919047Y-103054819D01*
X103919047Y-103054819D02*
X103680952Y-103054819D01*
X103680952Y-103054819D02*
X103585714Y-103102438D01*
X103585714Y-103102438D02*
X103538095Y-103150057D01*
X103538095Y-103150057D02*
X103490476Y-103245295D01*
X103490476Y-103245295D02*
X103490476Y-103340533D01*
X103490476Y-103340533D02*
X103538095Y-103483390D01*
X103538095Y-103483390D02*
X104109523Y-104054819D01*
X104109523Y-104054819D02*
X103490476Y-104054819D01*
X102633333Y-103054819D02*
X102823809Y-103054819D01*
X102823809Y-103054819D02*
X102919047Y-103102438D01*
X102919047Y-103102438D02*
X102966666Y-103150057D01*
X102966666Y-103150057D02*
X103061904Y-103292914D01*
X103061904Y-103292914D02*
X103109523Y-103483390D01*
X103109523Y-103483390D02*
X103109523Y-103864342D01*
X103109523Y-103864342D02*
X103061904Y-103959580D01*
X103061904Y-103959580D02*
X103014285Y-104007200D01*
X103014285Y-104007200D02*
X102919047Y-104054819D01*
X102919047Y-104054819D02*
X102728571Y-104054819D01*
X102728571Y-104054819D02*
X102633333Y-104007200D01*
X102633333Y-104007200D02*
X102585714Y-103959580D01*
X102585714Y-103959580D02*
X102538095Y-103864342D01*
X102538095Y-103864342D02*
X102538095Y-103626247D01*
X102538095Y-103626247D02*
X102585714Y-103531009D01*
X102585714Y-103531009D02*
X102633333Y-103483390D01*
X102633333Y-103483390D02*
X102728571Y-103435771D01*
X102728571Y-103435771D02*
X102919047Y-103435771D01*
X102919047Y-103435771D02*
X103014285Y-103483390D01*
X103014285Y-103483390D02*
X103061904Y-103531009D01*
X103061904Y-103531009D02*
X103109523Y-103626247D01*
X132014285Y-87054819D02*
X132014285Y-86054819D01*
X132014285Y-86054819D02*
X131776190Y-86054819D01*
X131776190Y-86054819D02*
X131633333Y-86102438D01*
X131633333Y-86102438D02*
X131538095Y-86197676D01*
X131538095Y-86197676D02*
X131490476Y-86292914D01*
X131490476Y-86292914D02*
X131442857Y-86483390D01*
X131442857Y-86483390D02*
X131442857Y-86626247D01*
X131442857Y-86626247D02*
X131490476Y-86816723D01*
X131490476Y-86816723D02*
X131538095Y-86911961D01*
X131538095Y-86911961D02*
X131633333Y-87007200D01*
X131633333Y-87007200D02*
X131776190Y-87054819D01*
X131776190Y-87054819D02*
X132014285Y-87054819D01*
X130490476Y-87054819D02*
X131061904Y-87054819D01*
X130776190Y-87054819D02*
X130776190Y-86054819D01*
X130776190Y-86054819D02*
X130871428Y-86197676D01*
X130871428Y-86197676D02*
X130966666Y-86292914D01*
X130966666Y-86292914D02*
X131061904Y-86340533D01*
X130157142Y-86054819D02*
X129490476Y-86054819D01*
X129490476Y-86054819D02*
X129919047Y-87054819D01*
X235514285Y-70054819D02*
X235514285Y-69054819D01*
X235514285Y-69054819D02*
X235276190Y-69054819D01*
X235276190Y-69054819D02*
X235133333Y-69102438D01*
X235133333Y-69102438D02*
X235038095Y-69197676D01*
X235038095Y-69197676D02*
X234990476Y-69292914D01*
X234990476Y-69292914D02*
X234942857Y-69483390D01*
X234942857Y-69483390D02*
X234942857Y-69626247D01*
X234942857Y-69626247D02*
X234990476Y-69816723D01*
X234990476Y-69816723D02*
X235038095Y-69911961D01*
X235038095Y-69911961D02*
X235133333Y-70007200D01*
X235133333Y-70007200D02*
X235276190Y-70054819D01*
X235276190Y-70054819D02*
X235514285Y-70054819D01*
X233990476Y-70054819D02*
X234561904Y-70054819D01*
X234276190Y-70054819D02*
X234276190Y-69054819D01*
X234276190Y-69054819D02*
X234371428Y-69197676D01*
X234371428Y-69197676D02*
X234466666Y-69292914D01*
X234466666Y-69292914D02*
X234561904Y-69340533D01*
X233038095Y-70054819D02*
X233609523Y-70054819D01*
X233323809Y-70054819D02*
X233323809Y-69054819D01*
X233323809Y-69054819D02*
X233419047Y-69197676D01*
X233419047Y-69197676D02*
X233514285Y-69292914D01*
X233514285Y-69292914D02*
X233609523Y-69340533D01*
X55038094Y-70054819D02*
X55038094Y-69054819D01*
X55038094Y-69054819D02*
X54799999Y-69054819D01*
X54799999Y-69054819D02*
X54657142Y-69102438D01*
X54657142Y-69102438D02*
X54561904Y-69197676D01*
X54561904Y-69197676D02*
X54514285Y-69292914D01*
X54514285Y-69292914D02*
X54466666Y-69483390D01*
X54466666Y-69483390D02*
X54466666Y-69626247D01*
X54466666Y-69626247D02*
X54514285Y-69816723D01*
X54514285Y-69816723D02*
X54561904Y-69911961D01*
X54561904Y-69911961D02*
X54657142Y-70007200D01*
X54657142Y-70007200D02*
X54799999Y-70054819D01*
X54799999Y-70054819D02*
X55038094Y-70054819D01*
X53514285Y-70054819D02*
X54085713Y-70054819D01*
X53799999Y-70054819D02*
X53799999Y-69054819D01*
X53799999Y-69054819D02*
X53895237Y-69197676D01*
X53895237Y-69197676D02*
X53990475Y-69292914D01*
X53990475Y-69292914D02*
X54085713Y-69340533D01*
X213014285Y-104054819D02*
X213014285Y-103054819D01*
X213014285Y-103054819D02*
X212776190Y-103054819D01*
X212776190Y-103054819D02*
X212633333Y-103102438D01*
X212633333Y-103102438D02*
X212538095Y-103197676D01*
X212538095Y-103197676D02*
X212490476Y-103292914D01*
X212490476Y-103292914D02*
X212442857Y-103483390D01*
X212442857Y-103483390D02*
X212442857Y-103626247D01*
X212442857Y-103626247D02*
X212490476Y-103816723D01*
X212490476Y-103816723D02*
X212538095Y-103911961D01*
X212538095Y-103911961D02*
X212633333Y-104007200D01*
X212633333Y-104007200D02*
X212776190Y-104054819D01*
X212776190Y-104054819D02*
X213014285Y-104054819D01*
X212109523Y-103054819D02*
X211490476Y-103054819D01*
X211490476Y-103054819D02*
X211823809Y-103435771D01*
X211823809Y-103435771D02*
X211680952Y-103435771D01*
X211680952Y-103435771D02*
X211585714Y-103483390D01*
X211585714Y-103483390D02*
X211538095Y-103531009D01*
X211538095Y-103531009D02*
X211490476Y-103626247D01*
X211490476Y-103626247D02*
X211490476Y-103864342D01*
X211490476Y-103864342D02*
X211538095Y-103959580D01*
X211538095Y-103959580D02*
X211585714Y-104007200D01*
X211585714Y-104007200D02*
X211680952Y-104054819D01*
X211680952Y-104054819D02*
X211966666Y-104054819D01*
X211966666Y-104054819D02*
X212061904Y-104007200D01*
X212061904Y-104007200D02*
X212109523Y-103959580D01*
X211109523Y-103150057D02*
X211061904Y-103102438D01*
X211061904Y-103102438D02*
X210966666Y-103054819D01*
X210966666Y-103054819D02*
X210728571Y-103054819D01*
X210728571Y-103054819D02*
X210633333Y-103102438D01*
X210633333Y-103102438D02*
X210585714Y-103150057D01*
X210585714Y-103150057D02*
X210538095Y-103245295D01*
X210538095Y-103245295D02*
X210538095Y-103340533D01*
X210538095Y-103340533D02*
X210585714Y-103483390D01*
X210585714Y-103483390D02*
X211157142Y-104054819D01*
X211157142Y-104054819D02*
X210538095Y-104054819D01*
X125691666Y-109074819D02*
X126024999Y-108598628D01*
X126263094Y-109074819D02*
X126263094Y-108074819D01*
X126263094Y-108074819D02*
X125882142Y-108074819D01*
X125882142Y-108074819D02*
X125786904Y-108122438D01*
X125786904Y-108122438D02*
X125739285Y-108170057D01*
X125739285Y-108170057D02*
X125691666Y-108265295D01*
X125691666Y-108265295D02*
X125691666Y-108408152D01*
X125691666Y-108408152D02*
X125739285Y-108503390D01*
X125739285Y-108503390D02*
X125786904Y-108551009D01*
X125786904Y-108551009D02*
X125882142Y-108598628D01*
X125882142Y-108598628D02*
X126263094Y-108598628D01*
X125358332Y-108074819D02*
X124691666Y-108074819D01*
X124691666Y-108074819D02*
X125120237Y-109074819D01*
X117442857Y-111479580D02*
X117490476Y-111527200D01*
X117490476Y-111527200D02*
X117633333Y-111574819D01*
X117633333Y-111574819D02*
X117728571Y-111574819D01*
X117728571Y-111574819D02*
X117871428Y-111527200D01*
X117871428Y-111527200D02*
X117966666Y-111431961D01*
X117966666Y-111431961D02*
X118014285Y-111336723D01*
X118014285Y-111336723D02*
X118061904Y-111146247D01*
X118061904Y-111146247D02*
X118061904Y-111003390D01*
X118061904Y-111003390D02*
X118014285Y-110812914D01*
X118014285Y-110812914D02*
X117966666Y-110717676D01*
X117966666Y-110717676D02*
X117871428Y-110622438D01*
X117871428Y-110622438D02*
X117728571Y-110574819D01*
X117728571Y-110574819D02*
X117633333Y-110574819D01*
X117633333Y-110574819D02*
X117490476Y-110622438D01*
X117490476Y-110622438D02*
X117442857Y-110670057D01*
X116490476Y-111574819D02*
X117061904Y-111574819D01*
X116776190Y-111574819D02*
X116776190Y-110574819D01*
X116776190Y-110574819D02*
X116871428Y-110717676D01*
X116871428Y-110717676D02*
X116966666Y-110812914D01*
X116966666Y-110812914D02*
X117061904Y-110860533D01*
X116109523Y-110670057D02*
X116061904Y-110622438D01*
X116061904Y-110622438D02*
X115966666Y-110574819D01*
X115966666Y-110574819D02*
X115728571Y-110574819D01*
X115728571Y-110574819D02*
X115633333Y-110622438D01*
X115633333Y-110622438D02*
X115585714Y-110670057D01*
X115585714Y-110670057D02*
X115538095Y-110765295D01*
X115538095Y-110765295D02*
X115538095Y-110860533D01*
X115538095Y-110860533D02*
X115585714Y-111003390D01*
X115585714Y-111003390D02*
X116157142Y-111574819D01*
X116157142Y-111574819D02*
X115538095Y-111574819D01*
X145716240Y-112126244D02*
X146288660Y-112698664D01*
X146288660Y-112698664D02*
X146322332Y-112799679D01*
X146322332Y-112799679D02*
X146322332Y-112867023D01*
X146322332Y-112867023D02*
X146288660Y-112968038D01*
X146288660Y-112968038D02*
X146153973Y-113102725D01*
X146153973Y-113102725D02*
X146052958Y-113136397D01*
X146052958Y-113136397D02*
X145985614Y-113136397D01*
X145985614Y-113136397D02*
X145884599Y-113102725D01*
X145884599Y-113102725D02*
X145312179Y-112530305D01*
X145312179Y-113944519D02*
X145716240Y-113540458D01*
X145514210Y-113742488D02*
X144807103Y-113035382D01*
X144807103Y-113035382D02*
X144975462Y-113069053D01*
X144975462Y-113069053D02*
X145110149Y-113069053D01*
X145110149Y-113069053D02*
X145211164Y-113035382D01*
X149479580Y-121883333D02*
X149527200Y-121835714D01*
X149527200Y-121835714D02*
X149574819Y-121692857D01*
X149574819Y-121692857D02*
X149574819Y-121597619D01*
X149574819Y-121597619D02*
X149527200Y-121454762D01*
X149527200Y-121454762D02*
X149431961Y-121359524D01*
X149431961Y-121359524D02*
X149336723Y-121311905D01*
X149336723Y-121311905D02*
X149146247Y-121264286D01*
X149146247Y-121264286D02*
X149003390Y-121264286D01*
X149003390Y-121264286D02*
X148812914Y-121311905D01*
X148812914Y-121311905D02*
X148717676Y-121359524D01*
X148717676Y-121359524D02*
X148622438Y-121454762D01*
X148622438Y-121454762D02*
X148574819Y-121597619D01*
X148574819Y-121597619D02*
X148574819Y-121692857D01*
X148574819Y-121692857D02*
X148622438Y-121835714D01*
X148622438Y-121835714D02*
X148670057Y-121883333D01*
X148574819Y-122788095D02*
X148574819Y-122311905D01*
X148574819Y-122311905D02*
X149051009Y-122264286D01*
X149051009Y-122264286D02*
X149003390Y-122311905D01*
X149003390Y-122311905D02*
X148955771Y-122407143D01*
X148955771Y-122407143D02*
X148955771Y-122645238D01*
X148955771Y-122645238D02*
X149003390Y-122740476D01*
X149003390Y-122740476D02*
X149051009Y-122788095D01*
X149051009Y-122788095D02*
X149146247Y-122835714D01*
X149146247Y-122835714D02*
X149384342Y-122835714D01*
X149384342Y-122835714D02*
X149479580Y-122788095D01*
X149479580Y-122788095D02*
X149527200Y-122740476D01*
X149527200Y-122740476D02*
X149574819Y-122645238D01*
X149574819Y-122645238D02*
X149574819Y-122407143D01*
X149574819Y-122407143D02*
X149527200Y-122311905D01*
X149527200Y-122311905D02*
X149479580Y-122264286D01*
X251341666Y-78184819D02*
X251674999Y-77708628D01*
X251913094Y-78184819D02*
X251913094Y-77184819D01*
X251913094Y-77184819D02*
X251532142Y-77184819D01*
X251532142Y-77184819D02*
X251436904Y-77232438D01*
X251436904Y-77232438D02*
X251389285Y-77280057D01*
X251389285Y-77280057D02*
X251341666Y-77375295D01*
X251341666Y-77375295D02*
X251341666Y-77518152D01*
X251341666Y-77518152D02*
X251389285Y-77613390D01*
X251389285Y-77613390D02*
X251436904Y-77661009D01*
X251436904Y-77661009D02*
X251532142Y-77708628D01*
X251532142Y-77708628D02*
X251913094Y-77708628D01*
X251008332Y-77184819D02*
X250389285Y-77184819D01*
X250389285Y-77184819D02*
X250722618Y-77565771D01*
X250722618Y-77565771D02*
X250579761Y-77565771D01*
X250579761Y-77565771D02*
X250484523Y-77613390D01*
X250484523Y-77613390D02*
X250436904Y-77661009D01*
X250436904Y-77661009D02*
X250389285Y-77756247D01*
X250389285Y-77756247D02*
X250389285Y-77994342D01*
X250389285Y-77994342D02*
X250436904Y-78089580D01*
X250436904Y-78089580D02*
X250484523Y-78137200D01*
X250484523Y-78137200D02*
X250579761Y-78184819D01*
X250579761Y-78184819D02*
X250865475Y-78184819D01*
X250865475Y-78184819D02*
X250960713Y-78137200D01*
X250960713Y-78137200D02*
X251008332Y-78089580D01*
X123014285Y-104054819D02*
X123014285Y-103054819D01*
X123014285Y-103054819D02*
X122776190Y-103054819D01*
X122776190Y-103054819D02*
X122633333Y-103102438D01*
X122633333Y-103102438D02*
X122538095Y-103197676D01*
X122538095Y-103197676D02*
X122490476Y-103292914D01*
X122490476Y-103292914D02*
X122442857Y-103483390D01*
X122442857Y-103483390D02*
X122442857Y-103626247D01*
X122442857Y-103626247D02*
X122490476Y-103816723D01*
X122490476Y-103816723D02*
X122538095Y-103911961D01*
X122538095Y-103911961D02*
X122633333Y-104007200D01*
X122633333Y-104007200D02*
X122776190Y-104054819D01*
X122776190Y-104054819D02*
X123014285Y-104054819D01*
X122061904Y-103150057D02*
X122014285Y-103102438D01*
X122014285Y-103102438D02*
X121919047Y-103054819D01*
X121919047Y-103054819D02*
X121680952Y-103054819D01*
X121680952Y-103054819D02*
X121585714Y-103102438D01*
X121585714Y-103102438D02*
X121538095Y-103150057D01*
X121538095Y-103150057D02*
X121490476Y-103245295D01*
X121490476Y-103245295D02*
X121490476Y-103340533D01*
X121490476Y-103340533D02*
X121538095Y-103483390D01*
X121538095Y-103483390D02*
X122109523Y-104054819D01*
X122109523Y-104054819D02*
X121490476Y-104054819D01*
X121157142Y-103054819D02*
X120490476Y-103054819D01*
X120490476Y-103054819D02*
X120919047Y-104054819D01*
X60014285Y-121054819D02*
X60014285Y-120054819D01*
X60014285Y-120054819D02*
X59776190Y-120054819D01*
X59776190Y-120054819D02*
X59633333Y-120102438D01*
X59633333Y-120102438D02*
X59538095Y-120197676D01*
X59538095Y-120197676D02*
X59490476Y-120292914D01*
X59490476Y-120292914D02*
X59442857Y-120483390D01*
X59442857Y-120483390D02*
X59442857Y-120626247D01*
X59442857Y-120626247D02*
X59490476Y-120816723D01*
X59490476Y-120816723D02*
X59538095Y-120911961D01*
X59538095Y-120911961D02*
X59633333Y-121007200D01*
X59633333Y-121007200D02*
X59776190Y-121054819D01*
X59776190Y-121054819D02*
X60014285Y-121054819D01*
X59109523Y-120054819D02*
X58490476Y-120054819D01*
X58490476Y-120054819D02*
X58823809Y-120435771D01*
X58823809Y-120435771D02*
X58680952Y-120435771D01*
X58680952Y-120435771D02*
X58585714Y-120483390D01*
X58585714Y-120483390D02*
X58538095Y-120531009D01*
X58538095Y-120531009D02*
X58490476Y-120626247D01*
X58490476Y-120626247D02*
X58490476Y-120864342D01*
X58490476Y-120864342D02*
X58538095Y-120959580D01*
X58538095Y-120959580D02*
X58585714Y-121007200D01*
X58585714Y-121007200D02*
X58680952Y-121054819D01*
X58680952Y-121054819D02*
X58966666Y-121054819D01*
X58966666Y-121054819D02*
X59061904Y-121007200D01*
X59061904Y-121007200D02*
X59109523Y-120959580D01*
X57919047Y-120483390D02*
X58014285Y-120435771D01*
X58014285Y-120435771D02*
X58061904Y-120388152D01*
X58061904Y-120388152D02*
X58109523Y-120292914D01*
X58109523Y-120292914D02*
X58109523Y-120245295D01*
X58109523Y-120245295D02*
X58061904Y-120150057D01*
X58061904Y-120150057D02*
X58014285Y-120102438D01*
X58014285Y-120102438D02*
X57919047Y-120054819D01*
X57919047Y-120054819D02*
X57728571Y-120054819D01*
X57728571Y-120054819D02*
X57633333Y-120102438D01*
X57633333Y-120102438D02*
X57585714Y-120150057D01*
X57585714Y-120150057D02*
X57538095Y-120245295D01*
X57538095Y-120245295D02*
X57538095Y-120292914D01*
X57538095Y-120292914D02*
X57585714Y-120388152D01*
X57585714Y-120388152D02*
X57633333Y-120435771D01*
X57633333Y-120435771D02*
X57728571Y-120483390D01*
X57728571Y-120483390D02*
X57919047Y-120483390D01*
X57919047Y-120483390D02*
X58014285Y-120531009D01*
X58014285Y-120531009D02*
X58061904Y-120578628D01*
X58061904Y-120578628D02*
X58109523Y-120673866D01*
X58109523Y-120673866D02*
X58109523Y-120864342D01*
X58109523Y-120864342D02*
X58061904Y-120959580D01*
X58061904Y-120959580D02*
X58014285Y-121007200D01*
X58014285Y-121007200D02*
X57919047Y-121054819D01*
X57919047Y-121054819D02*
X57728571Y-121054819D01*
X57728571Y-121054819D02*
X57633333Y-121007200D01*
X57633333Y-121007200D02*
X57585714Y-120959580D01*
X57585714Y-120959580D02*
X57538095Y-120864342D01*
X57538095Y-120864342D02*
X57538095Y-120673866D01*
X57538095Y-120673866D02*
X57585714Y-120578628D01*
X57585714Y-120578628D02*
X57633333Y-120531009D01*
X57633333Y-120531009D02*
X57728571Y-120483390D01*
X150014285Y-87054819D02*
X150014285Y-86054819D01*
X150014285Y-86054819D02*
X149776190Y-86054819D01*
X149776190Y-86054819D02*
X149633333Y-86102438D01*
X149633333Y-86102438D02*
X149538095Y-86197676D01*
X149538095Y-86197676D02*
X149490476Y-86292914D01*
X149490476Y-86292914D02*
X149442857Y-86483390D01*
X149442857Y-86483390D02*
X149442857Y-86626247D01*
X149442857Y-86626247D02*
X149490476Y-86816723D01*
X149490476Y-86816723D02*
X149538095Y-86911961D01*
X149538095Y-86911961D02*
X149633333Y-87007200D01*
X149633333Y-87007200D02*
X149776190Y-87054819D01*
X149776190Y-87054819D02*
X150014285Y-87054819D01*
X148490476Y-87054819D02*
X149061904Y-87054819D01*
X148776190Y-87054819D02*
X148776190Y-86054819D01*
X148776190Y-86054819D02*
X148871428Y-86197676D01*
X148871428Y-86197676D02*
X148966666Y-86292914D01*
X148966666Y-86292914D02*
X149061904Y-86340533D01*
X147919047Y-86483390D02*
X148014285Y-86435771D01*
X148014285Y-86435771D02*
X148061904Y-86388152D01*
X148061904Y-86388152D02*
X148109523Y-86292914D01*
X148109523Y-86292914D02*
X148109523Y-86245295D01*
X148109523Y-86245295D02*
X148061904Y-86150057D01*
X148061904Y-86150057D02*
X148014285Y-86102438D01*
X148014285Y-86102438D02*
X147919047Y-86054819D01*
X147919047Y-86054819D02*
X147728571Y-86054819D01*
X147728571Y-86054819D02*
X147633333Y-86102438D01*
X147633333Y-86102438D02*
X147585714Y-86150057D01*
X147585714Y-86150057D02*
X147538095Y-86245295D01*
X147538095Y-86245295D02*
X147538095Y-86292914D01*
X147538095Y-86292914D02*
X147585714Y-86388152D01*
X147585714Y-86388152D02*
X147633333Y-86435771D01*
X147633333Y-86435771D02*
X147728571Y-86483390D01*
X147728571Y-86483390D02*
X147919047Y-86483390D01*
X147919047Y-86483390D02*
X148014285Y-86531009D01*
X148014285Y-86531009D02*
X148061904Y-86578628D01*
X148061904Y-86578628D02*
X148109523Y-86673866D01*
X148109523Y-86673866D02*
X148109523Y-86864342D01*
X148109523Y-86864342D02*
X148061904Y-86959580D01*
X148061904Y-86959580D02*
X148014285Y-87007200D01*
X148014285Y-87007200D02*
X147919047Y-87054819D01*
X147919047Y-87054819D02*
X147728571Y-87054819D01*
X147728571Y-87054819D02*
X147633333Y-87007200D01*
X147633333Y-87007200D02*
X147585714Y-86959580D01*
X147585714Y-86959580D02*
X147538095Y-86864342D01*
X147538095Y-86864342D02*
X147538095Y-86673866D01*
X147538095Y-86673866D02*
X147585714Y-86578628D01*
X147585714Y-86578628D02*
X147633333Y-86531009D01*
X147633333Y-86531009D02*
X147728571Y-86483390D01*
X121924404Y-108304819D02*
X121924404Y-109114342D01*
X121924404Y-109114342D02*
X121876785Y-109209580D01*
X121876785Y-109209580D02*
X121829166Y-109257200D01*
X121829166Y-109257200D02*
X121733928Y-109304819D01*
X121733928Y-109304819D02*
X121543452Y-109304819D01*
X121543452Y-109304819D02*
X121448214Y-109257200D01*
X121448214Y-109257200D02*
X121400595Y-109209580D01*
X121400595Y-109209580D02*
X121352976Y-109114342D01*
X121352976Y-109114342D02*
X121352976Y-108304819D01*
X120924404Y-108400057D02*
X120876785Y-108352438D01*
X120876785Y-108352438D02*
X120781547Y-108304819D01*
X120781547Y-108304819D02*
X120543452Y-108304819D01*
X120543452Y-108304819D02*
X120448214Y-108352438D01*
X120448214Y-108352438D02*
X120400595Y-108400057D01*
X120400595Y-108400057D02*
X120352976Y-108495295D01*
X120352976Y-108495295D02*
X120352976Y-108590533D01*
X120352976Y-108590533D02*
X120400595Y-108733390D01*
X120400595Y-108733390D02*
X120972023Y-109304819D01*
X120972023Y-109304819D02*
X120352976Y-109304819D01*
X249014285Y-121054819D02*
X249014285Y-120054819D01*
X249014285Y-120054819D02*
X248776190Y-120054819D01*
X248776190Y-120054819D02*
X248633333Y-120102438D01*
X248633333Y-120102438D02*
X248538095Y-120197676D01*
X248538095Y-120197676D02*
X248490476Y-120292914D01*
X248490476Y-120292914D02*
X248442857Y-120483390D01*
X248442857Y-120483390D02*
X248442857Y-120626247D01*
X248442857Y-120626247D02*
X248490476Y-120816723D01*
X248490476Y-120816723D02*
X248538095Y-120911961D01*
X248538095Y-120911961D02*
X248633333Y-121007200D01*
X248633333Y-121007200D02*
X248776190Y-121054819D01*
X248776190Y-121054819D02*
X249014285Y-121054819D01*
X247585714Y-120388152D02*
X247585714Y-121054819D01*
X247823809Y-120007200D02*
X248061904Y-120721485D01*
X248061904Y-120721485D02*
X247442857Y-120721485D01*
X246919047Y-120483390D02*
X247014285Y-120435771D01*
X247014285Y-120435771D02*
X247061904Y-120388152D01*
X247061904Y-120388152D02*
X247109523Y-120292914D01*
X247109523Y-120292914D02*
X247109523Y-120245295D01*
X247109523Y-120245295D02*
X247061904Y-120150057D01*
X247061904Y-120150057D02*
X247014285Y-120102438D01*
X247014285Y-120102438D02*
X246919047Y-120054819D01*
X246919047Y-120054819D02*
X246728571Y-120054819D01*
X246728571Y-120054819D02*
X246633333Y-120102438D01*
X246633333Y-120102438D02*
X246585714Y-120150057D01*
X246585714Y-120150057D02*
X246538095Y-120245295D01*
X246538095Y-120245295D02*
X246538095Y-120292914D01*
X246538095Y-120292914D02*
X246585714Y-120388152D01*
X246585714Y-120388152D02*
X246633333Y-120435771D01*
X246633333Y-120435771D02*
X246728571Y-120483390D01*
X246728571Y-120483390D02*
X246919047Y-120483390D01*
X246919047Y-120483390D02*
X247014285Y-120531009D01*
X247014285Y-120531009D02*
X247061904Y-120578628D01*
X247061904Y-120578628D02*
X247109523Y-120673866D01*
X247109523Y-120673866D02*
X247109523Y-120864342D01*
X247109523Y-120864342D02*
X247061904Y-120959580D01*
X247061904Y-120959580D02*
X247014285Y-121007200D01*
X247014285Y-121007200D02*
X246919047Y-121054819D01*
X246919047Y-121054819D02*
X246728571Y-121054819D01*
X246728571Y-121054819D02*
X246633333Y-121007200D01*
X246633333Y-121007200D02*
X246585714Y-120959580D01*
X246585714Y-120959580D02*
X246538095Y-120864342D01*
X246538095Y-120864342D02*
X246538095Y-120673866D01*
X246538095Y-120673866D02*
X246585714Y-120578628D01*
X246585714Y-120578628D02*
X246633333Y-120531009D01*
X246633333Y-120531009D02*
X246728571Y-120483390D01*
X264854819Y-77896666D02*
X265569104Y-77896666D01*
X265569104Y-77896666D02*
X265711961Y-77849047D01*
X265711961Y-77849047D02*
X265807200Y-77753809D01*
X265807200Y-77753809D02*
X265854819Y-77610952D01*
X265854819Y-77610952D02*
X265854819Y-77515714D01*
X265854819Y-78896666D02*
X265854819Y-78325238D01*
X265854819Y-78610952D02*
X264854819Y-78610952D01*
X264854819Y-78610952D02*
X264997676Y-78515714D01*
X264997676Y-78515714D02*
X265092914Y-78420476D01*
X265092914Y-78420476D02*
X265140533Y-78325238D01*
X127038094Y-70054819D02*
X127038094Y-69054819D01*
X127038094Y-69054819D02*
X126799999Y-69054819D01*
X126799999Y-69054819D02*
X126657142Y-69102438D01*
X126657142Y-69102438D02*
X126561904Y-69197676D01*
X126561904Y-69197676D02*
X126514285Y-69292914D01*
X126514285Y-69292914D02*
X126466666Y-69483390D01*
X126466666Y-69483390D02*
X126466666Y-69626247D01*
X126466666Y-69626247D02*
X126514285Y-69816723D01*
X126514285Y-69816723D02*
X126561904Y-69911961D01*
X126561904Y-69911961D02*
X126657142Y-70007200D01*
X126657142Y-70007200D02*
X126799999Y-70054819D01*
X126799999Y-70054819D02*
X127038094Y-70054819D01*
X125561904Y-69054819D02*
X126038094Y-69054819D01*
X126038094Y-69054819D02*
X126085713Y-69531009D01*
X126085713Y-69531009D02*
X126038094Y-69483390D01*
X126038094Y-69483390D02*
X125942856Y-69435771D01*
X125942856Y-69435771D02*
X125704761Y-69435771D01*
X125704761Y-69435771D02*
X125609523Y-69483390D01*
X125609523Y-69483390D02*
X125561904Y-69531009D01*
X125561904Y-69531009D02*
X125514285Y-69626247D01*
X125514285Y-69626247D02*
X125514285Y-69864342D01*
X125514285Y-69864342D02*
X125561904Y-69959580D01*
X125561904Y-69959580D02*
X125609523Y-70007200D01*
X125609523Y-70007200D02*
X125704761Y-70054819D01*
X125704761Y-70054819D02*
X125942856Y-70054819D01*
X125942856Y-70054819D02*
X126038094Y-70007200D01*
X126038094Y-70007200D02*
X126085713Y-69959580D01*
X175254166Y-121184819D02*
X175730356Y-121184819D01*
X175730356Y-121184819D02*
X175730356Y-120184819D01*
X174444642Y-120184819D02*
X174920832Y-120184819D01*
X174920832Y-120184819D02*
X174968451Y-120661009D01*
X174968451Y-120661009D02*
X174920832Y-120613390D01*
X174920832Y-120613390D02*
X174825594Y-120565771D01*
X174825594Y-120565771D02*
X174587499Y-120565771D01*
X174587499Y-120565771D02*
X174492261Y-120613390D01*
X174492261Y-120613390D02*
X174444642Y-120661009D01*
X174444642Y-120661009D02*
X174397023Y-120756247D01*
X174397023Y-120756247D02*
X174397023Y-120994342D01*
X174397023Y-120994342D02*
X174444642Y-121089580D01*
X174444642Y-121089580D02*
X174492261Y-121137200D01*
X174492261Y-121137200D02*
X174587499Y-121184819D01*
X174587499Y-121184819D02*
X174825594Y-121184819D01*
X174825594Y-121184819D02*
X174920832Y-121137200D01*
X174920832Y-121137200D02*
X174968451Y-121089580D01*
X159014285Y-104054819D02*
X159014285Y-103054819D01*
X159014285Y-103054819D02*
X158776190Y-103054819D01*
X158776190Y-103054819D02*
X158633333Y-103102438D01*
X158633333Y-103102438D02*
X158538095Y-103197676D01*
X158538095Y-103197676D02*
X158490476Y-103292914D01*
X158490476Y-103292914D02*
X158442857Y-103483390D01*
X158442857Y-103483390D02*
X158442857Y-103626247D01*
X158442857Y-103626247D02*
X158490476Y-103816723D01*
X158490476Y-103816723D02*
X158538095Y-103911961D01*
X158538095Y-103911961D02*
X158633333Y-104007200D01*
X158633333Y-104007200D02*
X158776190Y-104054819D01*
X158776190Y-104054819D02*
X159014285Y-104054819D01*
X158061904Y-103150057D02*
X158014285Y-103102438D01*
X158014285Y-103102438D02*
X157919047Y-103054819D01*
X157919047Y-103054819D02*
X157680952Y-103054819D01*
X157680952Y-103054819D02*
X157585714Y-103102438D01*
X157585714Y-103102438D02*
X157538095Y-103150057D01*
X157538095Y-103150057D02*
X157490476Y-103245295D01*
X157490476Y-103245295D02*
X157490476Y-103340533D01*
X157490476Y-103340533D02*
X157538095Y-103483390D01*
X157538095Y-103483390D02*
X158109523Y-104054819D01*
X158109523Y-104054819D02*
X157490476Y-104054819D01*
X157014285Y-104054819D02*
X156823809Y-104054819D01*
X156823809Y-104054819D02*
X156728571Y-104007200D01*
X156728571Y-104007200D02*
X156680952Y-103959580D01*
X156680952Y-103959580D02*
X156585714Y-103816723D01*
X156585714Y-103816723D02*
X156538095Y-103626247D01*
X156538095Y-103626247D02*
X156538095Y-103245295D01*
X156538095Y-103245295D02*
X156585714Y-103150057D01*
X156585714Y-103150057D02*
X156633333Y-103102438D01*
X156633333Y-103102438D02*
X156728571Y-103054819D01*
X156728571Y-103054819D02*
X156919047Y-103054819D01*
X156919047Y-103054819D02*
X157014285Y-103102438D01*
X157014285Y-103102438D02*
X157061904Y-103150057D01*
X157061904Y-103150057D02*
X157109523Y-103245295D01*
X157109523Y-103245295D02*
X157109523Y-103483390D01*
X157109523Y-103483390D02*
X157061904Y-103578628D01*
X157061904Y-103578628D02*
X157014285Y-103626247D01*
X157014285Y-103626247D02*
X156919047Y-103673866D01*
X156919047Y-103673866D02*
X156728571Y-103673866D01*
X156728571Y-103673866D02*
X156633333Y-103626247D01*
X156633333Y-103626247D02*
X156585714Y-103578628D01*
X156585714Y-103578628D02*
X156538095Y-103483390D01*
X141014285Y-104054819D02*
X141014285Y-103054819D01*
X141014285Y-103054819D02*
X140776190Y-103054819D01*
X140776190Y-103054819D02*
X140633333Y-103102438D01*
X140633333Y-103102438D02*
X140538095Y-103197676D01*
X140538095Y-103197676D02*
X140490476Y-103292914D01*
X140490476Y-103292914D02*
X140442857Y-103483390D01*
X140442857Y-103483390D02*
X140442857Y-103626247D01*
X140442857Y-103626247D02*
X140490476Y-103816723D01*
X140490476Y-103816723D02*
X140538095Y-103911961D01*
X140538095Y-103911961D02*
X140633333Y-104007200D01*
X140633333Y-104007200D02*
X140776190Y-104054819D01*
X140776190Y-104054819D02*
X141014285Y-104054819D01*
X140061904Y-103150057D02*
X140014285Y-103102438D01*
X140014285Y-103102438D02*
X139919047Y-103054819D01*
X139919047Y-103054819D02*
X139680952Y-103054819D01*
X139680952Y-103054819D02*
X139585714Y-103102438D01*
X139585714Y-103102438D02*
X139538095Y-103150057D01*
X139538095Y-103150057D02*
X139490476Y-103245295D01*
X139490476Y-103245295D02*
X139490476Y-103340533D01*
X139490476Y-103340533D02*
X139538095Y-103483390D01*
X139538095Y-103483390D02*
X140109523Y-104054819D01*
X140109523Y-104054819D02*
X139490476Y-104054819D01*
X138919047Y-103483390D02*
X139014285Y-103435771D01*
X139014285Y-103435771D02*
X139061904Y-103388152D01*
X139061904Y-103388152D02*
X139109523Y-103292914D01*
X139109523Y-103292914D02*
X139109523Y-103245295D01*
X139109523Y-103245295D02*
X139061904Y-103150057D01*
X139061904Y-103150057D02*
X139014285Y-103102438D01*
X139014285Y-103102438D02*
X138919047Y-103054819D01*
X138919047Y-103054819D02*
X138728571Y-103054819D01*
X138728571Y-103054819D02*
X138633333Y-103102438D01*
X138633333Y-103102438D02*
X138585714Y-103150057D01*
X138585714Y-103150057D02*
X138538095Y-103245295D01*
X138538095Y-103245295D02*
X138538095Y-103292914D01*
X138538095Y-103292914D02*
X138585714Y-103388152D01*
X138585714Y-103388152D02*
X138633333Y-103435771D01*
X138633333Y-103435771D02*
X138728571Y-103483390D01*
X138728571Y-103483390D02*
X138919047Y-103483390D01*
X138919047Y-103483390D02*
X139014285Y-103531009D01*
X139014285Y-103531009D02*
X139061904Y-103578628D01*
X139061904Y-103578628D02*
X139109523Y-103673866D01*
X139109523Y-103673866D02*
X139109523Y-103864342D01*
X139109523Y-103864342D02*
X139061904Y-103959580D01*
X139061904Y-103959580D02*
X139014285Y-104007200D01*
X139014285Y-104007200D02*
X138919047Y-104054819D01*
X138919047Y-104054819D02*
X138728571Y-104054819D01*
X138728571Y-104054819D02*
X138633333Y-104007200D01*
X138633333Y-104007200D02*
X138585714Y-103959580D01*
X138585714Y-103959580D02*
X138538095Y-103864342D01*
X138538095Y-103864342D02*
X138538095Y-103673866D01*
X138538095Y-103673866D02*
X138585714Y-103578628D01*
X138585714Y-103578628D02*
X138633333Y-103531009D01*
X138633333Y-103531009D02*
X138728571Y-103483390D01*
X271514285Y-104054819D02*
X271514285Y-103054819D01*
X271514285Y-103054819D02*
X271276190Y-103054819D01*
X271276190Y-103054819D02*
X271133333Y-103102438D01*
X271133333Y-103102438D02*
X271038095Y-103197676D01*
X271038095Y-103197676D02*
X270990476Y-103292914D01*
X270990476Y-103292914D02*
X270942857Y-103483390D01*
X270942857Y-103483390D02*
X270942857Y-103626247D01*
X270942857Y-103626247D02*
X270990476Y-103816723D01*
X270990476Y-103816723D02*
X271038095Y-103911961D01*
X271038095Y-103911961D02*
X271133333Y-104007200D01*
X271133333Y-104007200D02*
X271276190Y-104054819D01*
X271276190Y-104054819D02*
X271514285Y-104054819D01*
X270085714Y-103388152D02*
X270085714Y-104054819D01*
X270323809Y-103007200D02*
X270561904Y-103721485D01*
X270561904Y-103721485D02*
X269942857Y-103721485D01*
X269657142Y-103054819D02*
X269038095Y-103054819D01*
X269038095Y-103054819D02*
X269371428Y-103435771D01*
X269371428Y-103435771D02*
X269228571Y-103435771D01*
X269228571Y-103435771D02*
X269133333Y-103483390D01*
X269133333Y-103483390D02*
X269085714Y-103531009D01*
X269085714Y-103531009D02*
X269038095Y-103626247D01*
X269038095Y-103626247D02*
X269038095Y-103864342D01*
X269038095Y-103864342D02*
X269085714Y-103959580D01*
X269085714Y-103959580D02*
X269133333Y-104007200D01*
X269133333Y-104007200D02*
X269228571Y-104054819D01*
X269228571Y-104054819D02*
X269514285Y-104054819D01*
X269514285Y-104054819D02*
X269609523Y-104007200D01*
X269609523Y-104007200D02*
X269657142Y-103959580D01*
X181166666Y-125569104D02*
X180690476Y-125569104D01*
X181261904Y-125854819D02*
X180928571Y-124854819D01*
X180928571Y-124854819D02*
X180595238Y-125854819D01*
X180261904Y-125331009D02*
X179928571Y-125331009D01*
X179785714Y-125854819D02*
X180261904Y-125854819D01*
X180261904Y-125854819D02*
X180261904Y-124854819D01*
X180261904Y-124854819D02*
X179785714Y-124854819D01*
X178833333Y-125854819D02*
X179404761Y-125854819D01*
X179119047Y-125854819D02*
X179119047Y-124854819D01*
X179119047Y-124854819D02*
X179214285Y-124997676D01*
X179214285Y-124997676D02*
X179309523Y-125092914D01*
X179309523Y-125092914D02*
X179404761Y-125140533D01*
X251341666Y-77574819D02*
X251674999Y-77098628D01*
X251913094Y-77574819D02*
X251913094Y-76574819D01*
X251913094Y-76574819D02*
X251532142Y-76574819D01*
X251532142Y-76574819D02*
X251436904Y-76622438D01*
X251436904Y-76622438D02*
X251389285Y-76670057D01*
X251389285Y-76670057D02*
X251341666Y-76765295D01*
X251341666Y-76765295D02*
X251341666Y-76908152D01*
X251341666Y-76908152D02*
X251389285Y-77003390D01*
X251389285Y-77003390D02*
X251436904Y-77051009D01*
X251436904Y-77051009D02*
X251532142Y-77098628D01*
X251532142Y-77098628D02*
X251913094Y-77098628D01*
X250389285Y-77574819D02*
X250960713Y-77574819D01*
X250674999Y-77574819D02*
X250674999Y-76574819D01*
X250674999Y-76574819D02*
X250770237Y-76717676D01*
X250770237Y-76717676D02*
X250865475Y-76812914D01*
X250865475Y-76812914D02*
X250960713Y-76860533D01*
X163038094Y-70054819D02*
X163038094Y-69054819D01*
X163038094Y-69054819D02*
X162799999Y-69054819D01*
X162799999Y-69054819D02*
X162657142Y-69102438D01*
X162657142Y-69102438D02*
X162561904Y-69197676D01*
X162561904Y-69197676D02*
X162514285Y-69292914D01*
X162514285Y-69292914D02*
X162466666Y-69483390D01*
X162466666Y-69483390D02*
X162466666Y-69626247D01*
X162466666Y-69626247D02*
X162514285Y-69816723D01*
X162514285Y-69816723D02*
X162561904Y-69911961D01*
X162561904Y-69911961D02*
X162657142Y-70007200D01*
X162657142Y-70007200D02*
X162799999Y-70054819D01*
X162799999Y-70054819D02*
X163038094Y-70054819D01*
X162133332Y-69054819D02*
X161466666Y-69054819D01*
X161466666Y-69054819D02*
X161895237Y-70054819D01*
X73038094Y-70054819D02*
X73038094Y-69054819D01*
X73038094Y-69054819D02*
X72799999Y-69054819D01*
X72799999Y-69054819D02*
X72657142Y-69102438D01*
X72657142Y-69102438D02*
X72561904Y-69197676D01*
X72561904Y-69197676D02*
X72514285Y-69292914D01*
X72514285Y-69292914D02*
X72466666Y-69483390D01*
X72466666Y-69483390D02*
X72466666Y-69626247D01*
X72466666Y-69626247D02*
X72514285Y-69816723D01*
X72514285Y-69816723D02*
X72561904Y-69911961D01*
X72561904Y-69911961D02*
X72657142Y-70007200D01*
X72657142Y-70007200D02*
X72799999Y-70054819D01*
X72799999Y-70054819D02*
X73038094Y-70054819D01*
X72085713Y-69150057D02*
X72038094Y-69102438D01*
X72038094Y-69102438D02*
X71942856Y-69054819D01*
X71942856Y-69054819D02*
X71704761Y-69054819D01*
X71704761Y-69054819D02*
X71609523Y-69102438D01*
X71609523Y-69102438D02*
X71561904Y-69150057D01*
X71561904Y-69150057D02*
X71514285Y-69245295D01*
X71514285Y-69245295D02*
X71514285Y-69340533D01*
X71514285Y-69340533D02*
X71561904Y-69483390D01*
X71561904Y-69483390D02*
X72133332Y-70054819D01*
X72133332Y-70054819D02*
X71514285Y-70054819D01*
X80264285Y-121054819D02*
X80264285Y-120054819D01*
X80264285Y-120054819D02*
X80026190Y-120054819D01*
X80026190Y-120054819D02*
X79883333Y-120102438D01*
X79883333Y-120102438D02*
X79788095Y-120197676D01*
X79788095Y-120197676D02*
X79740476Y-120292914D01*
X79740476Y-120292914D02*
X79692857Y-120483390D01*
X79692857Y-120483390D02*
X79692857Y-120626247D01*
X79692857Y-120626247D02*
X79740476Y-120816723D01*
X79740476Y-120816723D02*
X79788095Y-120911961D01*
X79788095Y-120911961D02*
X79883333Y-121007200D01*
X79883333Y-121007200D02*
X80026190Y-121054819D01*
X80026190Y-121054819D02*
X80264285Y-121054819D01*
X79359523Y-120054819D02*
X78740476Y-120054819D01*
X78740476Y-120054819D02*
X79073809Y-120435771D01*
X79073809Y-120435771D02*
X78930952Y-120435771D01*
X78930952Y-120435771D02*
X78835714Y-120483390D01*
X78835714Y-120483390D02*
X78788095Y-120531009D01*
X78788095Y-120531009D02*
X78740476Y-120626247D01*
X78740476Y-120626247D02*
X78740476Y-120864342D01*
X78740476Y-120864342D02*
X78788095Y-120959580D01*
X78788095Y-120959580D02*
X78835714Y-121007200D01*
X78835714Y-121007200D02*
X78930952Y-121054819D01*
X78930952Y-121054819D02*
X79216666Y-121054819D01*
X79216666Y-121054819D02*
X79311904Y-121007200D01*
X79311904Y-121007200D02*
X79359523Y-120959580D01*
X78264285Y-121054819D02*
X78073809Y-121054819D01*
X78073809Y-121054819D02*
X77978571Y-121007200D01*
X77978571Y-121007200D02*
X77930952Y-120959580D01*
X77930952Y-120959580D02*
X77835714Y-120816723D01*
X77835714Y-120816723D02*
X77788095Y-120626247D01*
X77788095Y-120626247D02*
X77788095Y-120245295D01*
X77788095Y-120245295D02*
X77835714Y-120150057D01*
X77835714Y-120150057D02*
X77883333Y-120102438D01*
X77883333Y-120102438D02*
X77978571Y-120054819D01*
X77978571Y-120054819D02*
X78169047Y-120054819D01*
X78169047Y-120054819D02*
X78264285Y-120102438D01*
X78264285Y-120102438D02*
X78311904Y-120150057D01*
X78311904Y-120150057D02*
X78359523Y-120245295D01*
X78359523Y-120245295D02*
X78359523Y-120483390D01*
X78359523Y-120483390D02*
X78311904Y-120578628D01*
X78311904Y-120578628D02*
X78264285Y-120626247D01*
X78264285Y-120626247D02*
X78169047Y-120673866D01*
X78169047Y-120673866D02*
X77978571Y-120673866D01*
X77978571Y-120673866D02*
X77883333Y-120626247D01*
X77883333Y-120626247D02*
X77835714Y-120578628D01*
X77835714Y-120578628D02*
X77788095Y-120483390D01*
X186014285Y-87054819D02*
X186014285Y-86054819D01*
X186014285Y-86054819D02*
X185776190Y-86054819D01*
X185776190Y-86054819D02*
X185633333Y-86102438D01*
X185633333Y-86102438D02*
X185538095Y-86197676D01*
X185538095Y-86197676D02*
X185490476Y-86292914D01*
X185490476Y-86292914D02*
X185442857Y-86483390D01*
X185442857Y-86483390D02*
X185442857Y-86626247D01*
X185442857Y-86626247D02*
X185490476Y-86816723D01*
X185490476Y-86816723D02*
X185538095Y-86911961D01*
X185538095Y-86911961D02*
X185633333Y-87007200D01*
X185633333Y-87007200D02*
X185776190Y-87054819D01*
X185776190Y-87054819D02*
X186014285Y-87054819D01*
X185061904Y-86150057D02*
X185014285Y-86102438D01*
X185014285Y-86102438D02*
X184919047Y-86054819D01*
X184919047Y-86054819D02*
X184680952Y-86054819D01*
X184680952Y-86054819D02*
X184585714Y-86102438D01*
X184585714Y-86102438D02*
X184538095Y-86150057D01*
X184538095Y-86150057D02*
X184490476Y-86245295D01*
X184490476Y-86245295D02*
X184490476Y-86340533D01*
X184490476Y-86340533D02*
X184538095Y-86483390D01*
X184538095Y-86483390D02*
X185109523Y-87054819D01*
X185109523Y-87054819D02*
X184490476Y-87054819D01*
X183871428Y-86054819D02*
X183776190Y-86054819D01*
X183776190Y-86054819D02*
X183680952Y-86102438D01*
X183680952Y-86102438D02*
X183633333Y-86150057D01*
X183633333Y-86150057D02*
X183585714Y-86245295D01*
X183585714Y-86245295D02*
X183538095Y-86435771D01*
X183538095Y-86435771D02*
X183538095Y-86673866D01*
X183538095Y-86673866D02*
X183585714Y-86864342D01*
X183585714Y-86864342D02*
X183633333Y-86959580D01*
X183633333Y-86959580D02*
X183680952Y-87007200D01*
X183680952Y-87007200D02*
X183776190Y-87054819D01*
X183776190Y-87054819D02*
X183871428Y-87054819D01*
X183871428Y-87054819D02*
X183966666Y-87007200D01*
X183966666Y-87007200D02*
X184014285Y-86959580D01*
X184014285Y-86959580D02*
X184061904Y-86864342D01*
X184061904Y-86864342D02*
X184109523Y-86673866D01*
X184109523Y-86673866D02*
X184109523Y-86435771D01*
X184109523Y-86435771D02*
X184061904Y-86245295D01*
X184061904Y-86245295D02*
X184014285Y-86150057D01*
X184014285Y-86150057D02*
X183966666Y-86102438D01*
X183966666Y-86102438D02*
X183871428Y-86054819D01*
X141716666Y-117479580D02*
X141764285Y-117527200D01*
X141764285Y-117527200D02*
X141907142Y-117574819D01*
X141907142Y-117574819D02*
X142002380Y-117574819D01*
X142002380Y-117574819D02*
X142145237Y-117527200D01*
X142145237Y-117527200D02*
X142240475Y-117431961D01*
X142240475Y-117431961D02*
X142288094Y-117336723D01*
X142288094Y-117336723D02*
X142335713Y-117146247D01*
X142335713Y-117146247D02*
X142335713Y-117003390D01*
X142335713Y-117003390D02*
X142288094Y-116812914D01*
X142288094Y-116812914D02*
X142240475Y-116717676D01*
X142240475Y-116717676D02*
X142145237Y-116622438D01*
X142145237Y-116622438D02*
X142002380Y-116574819D01*
X142002380Y-116574819D02*
X141907142Y-116574819D01*
X141907142Y-116574819D02*
X141764285Y-116622438D01*
X141764285Y-116622438D02*
X141716666Y-116670057D01*
X141145237Y-117003390D02*
X141240475Y-116955771D01*
X141240475Y-116955771D02*
X141288094Y-116908152D01*
X141288094Y-116908152D02*
X141335713Y-116812914D01*
X141335713Y-116812914D02*
X141335713Y-116765295D01*
X141335713Y-116765295D02*
X141288094Y-116670057D01*
X141288094Y-116670057D02*
X141240475Y-116622438D01*
X141240475Y-116622438D02*
X141145237Y-116574819D01*
X141145237Y-116574819D02*
X140954761Y-116574819D01*
X140954761Y-116574819D02*
X140859523Y-116622438D01*
X140859523Y-116622438D02*
X140811904Y-116670057D01*
X140811904Y-116670057D02*
X140764285Y-116765295D01*
X140764285Y-116765295D02*
X140764285Y-116812914D01*
X140764285Y-116812914D02*
X140811904Y-116908152D01*
X140811904Y-116908152D02*
X140859523Y-116955771D01*
X140859523Y-116955771D02*
X140954761Y-117003390D01*
X140954761Y-117003390D02*
X141145237Y-117003390D01*
X141145237Y-117003390D02*
X141240475Y-117051009D01*
X141240475Y-117051009D02*
X141288094Y-117098628D01*
X141288094Y-117098628D02*
X141335713Y-117193866D01*
X141335713Y-117193866D02*
X141335713Y-117384342D01*
X141335713Y-117384342D02*
X141288094Y-117479580D01*
X141288094Y-117479580D02*
X141240475Y-117527200D01*
X141240475Y-117527200D02*
X141145237Y-117574819D01*
X141145237Y-117574819D02*
X140954761Y-117574819D01*
X140954761Y-117574819D02*
X140859523Y-117527200D01*
X140859523Y-117527200D02*
X140811904Y-117479580D01*
X140811904Y-117479580D02*
X140764285Y-117384342D01*
X140764285Y-117384342D02*
X140764285Y-117193866D01*
X140764285Y-117193866D02*
X140811904Y-117098628D01*
X140811904Y-117098628D02*
X140859523Y-117051009D01*
X140859523Y-117051009D02*
X140954761Y-117003390D01*
X154991666Y-115839580D02*
X155039285Y-115887200D01*
X155039285Y-115887200D02*
X155182142Y-115934819D01*
X155182142Y-115934819D02*
X155277380Y-115934819D01*
X155277380Y-115934819D02*
X155420237Y-115887200D01*
X155420237Y-115887200D02*
X155515475Y-115791961D01*
X155515475Y-115791961D02*
X155563094Y-115696723D01*
X155563094Y-115696723D02*
X155610713Y-115506247D01*
X155610713Y-115506247D02*
X155610713Y-115363390D01*
X155610713Y-115363390D02*
X155563094Y-115172914D01*
X155563094Y-115172914D02*
X155515475Y-115077676D01*
X155515475Y-115077676D02*
X155420237Y-114982438D01*
X155420237Y-114982438D02*
X155277380Y-114934819D01*
X155277380Y-114934819D02*
X155182142Y-114934819D01*
X155182142Y-114934819D02*
X155039285Y-114982438D01*
X155039285Y-114982438D02*
X154991666Y-115030057D01*
X154134523Y-115268152D02*
X154134523Y-115934819D01*
X154372618Y-114887200D02*
X154610713Y-115601485D01*
X154610713Y-115601485D02*
X153991666Y-115601485D01*
X155442857Y-112089580D02*
X155490476Y-112137200D01*
X155490476Y-112137200D02*
X155633333Y-112184819D01*
X155633333Y-112184819D02*
X155728571Y-112184819D01*
X155728571Y-112184819D02*
X155871428Y-112137200D01*
X155871428Y-112137200D02*
X155966666Y-112041961D01*
X155966666Y-112041961D02*
X156014285Y-111946723D01*
X156014285Y-111946723D02*
X156061904Y-111756247D01*
X156061904Y-111756247D02*
X156061904Y-111613390D01*
X156061904Y-111613390D02*
X156014285Y-111422914D01*
X156014285Y-111422914D02*
X155966666Y-111327676D01*
X155966666Y-111327676D02*
X155871428Y-111232438D01*
X155871428Y-111232438D02*
X155728571Y-111184819D01*
X155728571Y-111184819D02*
X155633333Y-111184819D01*
X155633333Y-111184819D02*
X155490476Y-111232438D01*
X155490476Y-111232438D02*
X155442857Y-111280057D01*
X154490476Y-112184819D02*
X155061904Y-112184819D01*
X154776190Y-112184819D02*
X154776190Y-111184819D01*
X154776190Y-111184819D02*
X154871428Y-111327676D01*
X154871428Y-111327676D02*
X154966666Y-111422914D01*
X154966666Y-111422914D02*
X155061904Y-111470533D01*
X153538095Y-112184819D02*
X154109523Y-112184819D01*
X153823809Y-112184819D02*
X153823809Y-111184819D01*
X153823809Y-111184819D02*
X153919047Y-111327676D01*
X153919047Y-111327676D02*
X154014285Y-111422914D01*
X154014285Y-111422914D02*
X154109523Y-111470533D01*
X87014285Y-104054819D02*
X87014285Y-103054819D01*
X87014285Y-103054819D02*
X86776190Y-103054819D01*
X86776190Y-103054819D02*
X86633333Y-103102438D01*
X86633333Y-103102438D02*
X86538095Y-103197676D01*
X86538095Y-103197676D02*
X86490476Y-103292914D01*
X86490476Y-103292914D02*
X86442857Y-103483390D01*
X86442857Y-103483390D02*
X86442857Y-103626247D01*
X86442857Y-103626247D02*
X86490476Y-103816723D01*
X86490476Y-103816723D02*
X86538095Y-103911961D01*
X86538095Y-103911961D02*
X86633333Y-104007200D01*
X86633333Y-104007200D02*
X86776190Y-104054819D01*
X86776190Y-104054819D02*
X87014285Y-104054819D01*
X86061904Y-103150057D02*
X86014285Y-103102438D01*
X86014285Y-103102438D02*
X85919047Y-103054819D01*
X85919047Y-103054819D02*
X85680952Y-103054819D01*
X85680952Y-103054819D02*
X85585714Y-103102438D01*
X85585714Y-103102438D02*
X85538095Y-103150057D01*
X85538095Y-103150057D02*
X85490476Y-103245295D01*
X85490476Y-103245295D02*
X85490476Y-103340533D01*
X85490476Y-103340533D02*
X85538095Y-103483390D01*
X85538095Y-103483390D02*
X86109523Y-104054819D01*
X86109523Y-104054819D02*
X85490476Y-104054819D01*
X84585714Y-103054819D02*
X85061904Y-103054819D01*
X85061904Y-103054819D02*
X85109523Y-103531009D01*
X85109523Y-103531009D02*
X85061904Y-103483390D01*
X85061904Y-103483390D02*
X84966666Y-103435771D01*
X84966666Y-103435771D02*
X84728571Y-103435771D01*
X84728571Y-103435771D02*
X84633333Y-103483390D01*
X84633333Y-103483390D02*
X84585714Y-103531009D01*
X84585714Y-103531009D02*
X84538095Y-103626247D01*
X84538095Y-103626247D02*
X84538095Y-103864342D01*
X84538095Y-103864342D02*
X84585714Y-103959580D01*
X84585714Y-103959580D02*
X84633333Y-104007200D01*
X84633333Y-104007200D02*
X84728571Y-104054819D01*
X84728571Y-104054819D02*
X84966666Y-104054819D01*
X84966666Y-104054819D02*
X85061904Y-104007200D01*
X85061904Y-104007200D02*
X85109523Y-103959580D01*
X109038094Y-70054819D02*
X109038094Y-69054819D01*
X109038094Y-69054819D02*
X108799999Y-69054819D01*
X108799999Y-69054819D02*
X108657142Y-69102438D01*
X108657142Y-69102438D02*
X108561904Y-69197676D01*
X108561904Y-69197676D02*
X108514285Y-69292914D01*
X108514285Y-69292914D02*
X108466666Y-69483390D01*
X108466666Y-69483390D02*
X108466666Y-69626247D01*
X108466666Y-69626247D02*
X108514285Y-69816723D01*
X108514285Y-69816723D02*
X108561904Y-69911961D01*
X108561904Y-69911961D02*
X108657142Y-70007200D01*
X108657142Y-70007200D02*
X108799999Y-70054819D01*
X108799999Y-70054819D02*
X109038094Y-70054819D01*
X107609523Y-69388152D02*
X107609523Y-70054819D01*
X107847618Y-69007200D02*
X108085713Y-69721485D01*
X108085713Y-69721485D02*
X107466666Y-69721485D01*
X147479580Y-121407142D02*
X147527200Y-121359523D01*
X147527200Y-121359523D02*
X147574819Y-121216666D01*
X147574819Y-121216666D02*
X147574819Y-121121428D01*
X147574819Y-121121428D02*
X147527200Y-120978571D01*
X147527200Y-120978571D02*
X147431961Y-120883333D01*
X147431961Y-120883333D02*
X147336723Y-120835714D01*
X147336723Y-120835714D02*
X147146247Y-120788095D01*
X147146247Y-120788095D02*
X147003390Y-120788095D01*
X147003390Y-120788095D02*
X146812914Y-120835714D01*
X146812914Y-120835714D02*
X146717676Y-120883333D01*
X146717676Y-120883333D02*
X146622438Y-120978571D01*
X146622438Y-120978571D02*
X146574819Y-121121428D01*
X146574819Y-121121428D02*
X146574819Y-121216666D01*
X146574819Y-121216666D02*
X146622438Y-121359523D01*
X146622438Y-121359523D02*
X146670057Y-121407142D01*
X147574819Y-122359523D02*
X147574819Y-121788095D01*
X147574819Y-122073809D02*
X146574819Y-122073809D01*
X146574819Y-122073809D02*
X146717676Y-121978571D01*
X146717676Y-121978571D02*
X146812914Y-121883333D01*
X146812914Y-121883333D02*
X146860533Y-121788095D01*
X146574819Y-122978571D02*
X146574819Y-123073809D01*
X146574819Y-123073809D02*
X146622438Y-123169047D01*
X146622438Y-123169047D02*
X146670057Y-123216666D01*
X146670057Y-123216666D02*
X146765295Y-123264285D01*
X146765295Y-123264285D02*
X146955771Y-123311904D01*
X146955771Y-123311904D02*
X147193866Y-123311904D01*
X147193866Y-123311904D02*
X147384342Y-123264285D01*
X147384342Y-123264285D02*
X147479580Y-123216666D01*
X147479580Y-123216666D02*
X147527200Y-123169047D01*
X147527200Y-123169047D02*
X147574819Y-123073809D01*
X147574819Y-123073809D02*
X147574819Y-122978571D01*
X147574819Y-122978571D02*
X147527200Y-122883333D01*
X147527200Y-122883333D02*
X147479580Y-122835714D01*
X147479580Y-122835714D02*
X147384342Y-122788095D01*
X147384342Y-122788095D02*
X147193866Y-122740476D01*
X147193866Y-122740476D02*
X146955771Y-122740476D01*
X146955771Y-122740476D02*
X146765295Y-122788095D01*
X146765295Y-122788095D02*
X146670057Y-122835714D01*
X146670057Y-122835714D02*
X146622438Y-122883333D01*
X146622438Y-122883333D02*
X146574819Y-122978571D01*
X177014285Y-104054819D02*
X177014285Y-103054819D01*
X177014285Y-103054819D02*
X176776190Y-103054819D01*
X176776190Y-103054819D02*
X176633333Y-103102438D01*
X176633333Y-103102438D02*
X176538095Y-103197676D01*
X176538095Y-103197676D02*
X176490476Y-103292914D01*
X176490476Y-103292914D02*
X176442857Y-103483390D01*
X176442857Y-103483390D02*
X176442857Y-103626247D01*
X176442857Y-103626247D02*
X176490476Y-103816723D01*
X176490476Y-103816723D02*
X176538095Y-103911961D01*
X176538095Y-103911961D02*
X176633333Y-104007200D01*
X176633333Y-104007200D02*
X176776190Y-104054819D01*
X176776190Y-104054819D02*
X177014285Y-104054819D01*
X176109523Y-103054819D02*
X175490476Y-103054819D01*
X175490476Y-103054819D02*
X175823809Y-103435771D01*
X175823809Y-103435771D02*
X175680952Y-103435771D01*
X175680952Y-103435771D02*
X175585714Y-103483390D01*
X175585714Y-103483390D02*
X175538095Y-103531009D01*
X175538095Y-103531009D02*
X175490476Y-103626247D01*
X175490476Y-103626247D02*
X175490476Y-103864342D01*
X175490476Y-103864342D02*
X175538095Y-103959580D01*
X175538095Y-103959580D02*
X175585714Y-104007200D01*
X175585714Y-104007200D02*
X175680952Y-104054819D01*
X175680952Y-104054819D02*
X175966666Y-104054819D01*
X175966666Y-104054819D02*
X176061904Y-104007200D01*
X176061904Y-104007200D02*
X176109523Y-103959580D01*
X174871428Y-103054819D02*
X174776190Y-103054819D01*
X174776190Y-103054819D02*
X174680952Y-103102438D01*
X174680952Y-103102438D02*
X174633333Y-103150057D01*
X174633333Y-103150057D02*
X174585714Y-103245295D01*
X174585714Y-103245295D02*
X174538095Y-103435771D01*
X174538095Y-103435771D02*
X174538095Y-103673866D01*
X174538095Y-103673866D02*
X174585714Y-103864342D01*
X174585714Y-103864342D02*
X174633333Y-103959580D01*
X174633333Y-103959580D02*
X174680952Y-104007200D01*
X174680952Y-104007200D02*
X174776190Y-104054819D01*
X174776190Y-104054819D02*
X174871428Y-104054819D01*
X174871428Y-104054819D02*
X174966666Y-104007200D01*
X174966666Y-104007200D02*
X175014285Y-103959580D01*
X175014285Y-103959580D02*
X175061904Y-103864342D01*
X175061904Y-103864342D02*
X175109523Y-103673866D01*
X175109523Y-103673866D02*
X175109523Y-103435771D01*
X175109523Y-103435771D02*
X175061904Y-103245295D01*
X175061904Y-103245295D02*
X175014285Y-103150057D01*
X175014285Y-103150057D02*
X174966666Y-103102438D01*
X174966666Y-103102438D02*
X174871428Y-103054819D01*
X39764285Y-87054819D02*
X39764285Y-86054819D01*
X39764285Y-86054819D02*
X39526190Y-86054819D01*
X39526190Y-86054819D02*
X39383333Y-86102438D01*
X39383333Y-86102438D02*
X39288095Y-86197676D01*
X39288095Y-86197676D02*
X39240476Y-86292914D01*
X39240476Y-86292914D02*
X39192857Y-86483390D01*
X39192857Y-86483390D02*
X39192857Y-86626247D01*
X39192857Y-86626247D02*
X39240476Y-86816723D01*
X39240476Y-86816723D02*
X39288095Y-86911961D01*
X39288095Y-86911961D02*
X39383333Y-87007200D01*
X39383333Y-87007200D02*
X39526190Y-87054819D01*
X39526190Y-87054819D02*
X39764285Y-87054819D01*
X38859523Y-86054819D02*
X38240476Y-86054819D01*
X38240476Y-86054819D02*
X38573809Y-86435771D01*
X38573809Y-86435771D02*
X38430952Y-86435771D01*
X38430952Y-86435771D02*
X38335714Y-86483390D01*
X38335714Y-86483390D02*
X38288095Y-86531009D01*
X38288095Y-86531009D02*
X38240476Y-86626247D01*
X38240476Y-86626247D02*
X38240476Y-86864342D01*
X38240476Y-86864342D02*
X38288095Y-86959580D01*
X38288095Y-86959580D02*
X38335714Y-87007200D01*
X38335714Y-87007200D02*
X38430952Y-87054819D01*
X38430952Y-87054819D02*
X38716666Y-87054819D01*
X38716666Y-87054819D02*
X38811904Y-87007200D01*
X38811904Y-87007200D02*
X38859523Y-86959580D01*
X37383333Y-86054819D02*
X37573809Y-86054819D01*
X37573809Y-86054819D02*
X37669047Y-86102438D01*
X37669047Y-86102438D02*
X37716666Y-86150057D01*
X37716666Y-86150057D02*
X37811904Y-86292914D01*
X37811904Y-86292914D02*
X37859523Y-86483390D01*
X37859523Y-86483390D02*
X37859523Y-86864342D01*
X37859523Y-86864342D02*
X37811904Y-86959580D01*
X37811904Y-86959580D02*
X37764285Y-87007200D01*
X37764285Y-87007200D02*
X37669047Y-87054819D01*
X37669047Y-87054819D02*
X37478571Y-87054819D01*
X37478571Y-87054819D02*
X37383333Y-87007200D01*
X37383333Y-87007200D02*
X37335714Y-86959580D01*
X37335714Y-86959580D02*
X37288095Y-86864342D01*
X37288095Y-86864342D02*
X37288095Y-86626247D01*
X37288095Y-86626247D02*
X37335714Y-86531009D01*
X37335714Y-86531009D02*
X37383333Y-86483390D01*
X37383333Y-86483390D02*
X37478571Y-86435771D01*
X37478571Y-86435771D02*
X37669047Y-86435771D01*
X37669047Y-86435771D02*
X37764285Y-86483390D01*
X37764285Y-86483390D02*
X37811904Y-86531009D01*
X37811904Y-86531009D02*
X37859523Y-86626247D01*
X204014285Y-87054819D02*
X204014285Y-86054819D01*
X204014285Y-86054819D02*
X203776190Y-86054819D01*
X203776190Y-86054819D02*
X203633333Y-86102438D01*
X203633333Y-86102438D02*
X203538095Y-86197676D01*
X203538095Y-86197676D02*
X203490476Y-86292914D01*
X203490476Y-86292914D02*
X203442857Y-86483390D01*
X203442857Y-86483390D02*
X203442857Y-86626247D01*
X203442857Y-86626247D02*
X203490476Y-86816723D01*
X203490476Y-86816723D02*
X203538095Y-86911961D01*
X203538095Y-86911961D02*
X203633333Y-87007200D01*
X203633333Y-87007200D02*
X203776190Y-87054819D01*
X203776190Y-87054819D02*
X204014285Y-87054819D01*
X203061904Y-86150057D02*
X203014285Y-86102438D01*
X203014285Y-86102438D02*
X202919047Y-86054819D01*
X202919047Y-86054819D02*
X202680952Y-86054819D01*
X202680952Y-86054819D02*
X202585714Y-86102438D01*
X202585714Y-86102438D02*
X202538095Y-86150057D01*
X202538095Y-86150057D02*
X202490476Y-86245295D01*
X202490476Y-86245295D02*
X202490476Y-86340533D01*
X202490476Y-86340533D02*
X202538095Y-86483390D01*
X202538095Y-86483390D02*
X203109523Y-87054819D01*
X203109523Y-87054819D02*
X202490476Y-87054819D01*
X201538095Y-87054819D02*
X202109523Y-87054819D01*
X201823809Y-87054819D02*
X201823809Y-86054819D01*
X201823809Y-86054819D02*
X201919047Y-86197676D01*
X201919047Y-86197676D02*
X202014285Y-86292914D01*
X202014285Y-86292914D02*
X202109523Y-86340533D01*
X168014285Y-87054819D02*
X168014285Y-86054819D01*
X168014285Y-86054819D02*
X167776190Y-86054819D01*
X167776190Y-86054819D02*
X167633333Y-86102438D01*
X167633333Y-86102438D02*
X167538095Y-86197676D01*
X167538095Y-86197676D02*
X167490476Y-86292914D01*
X167490476Y-86292914D02*
X167442857Y-86483390D01*
X167442857Y-86483390D02*
X167442857Y-86626247D01*
X167442857Y-86626247D02*
X167490476Y-86816723D01*
X167490476Y-86816723D02*
X167538095Y-86911961D01*
X167538095Y-86911961D02*
X167633333Y-87007200D01*
X167633333Y-87007200D02*
X167776190Y-87054819D01*
X167776190Y-87054819D02*
X168014285Y-87054819D01*
X166490476Y-87054819D02*
X167061904Y-87054819D01*
X166776190Y-87054819D02*
X166776190Y-86054819D01*
X166776190Y-86054819D02*
X166871428Y-86197676D01*
X166871428Y-86197676D02*
X166966666Y-86292914D01*
X166966666Y-86292914D02*
X167061904Y-86340533D01*
X166014285Y-87054819D02*
X165823809Y-87054819D01*
X165823809Y-87054819D02*
X165728571Y-87007200D01*
X165728571Y-87007200D02*
X165680952Y-86959580D01*
X165680952Y-86959580D02*
X165585714Y-86816723D01*
X165585714Y-86816723D02*
X165538095Y-86626247D01*
X165538095Y-86626247D02*
X165538095Y-86245295D01*
X165538095Y-86245295D02*
X165585714Y-86150057D01*
X165585714Y-86150057D02*
X165633333Y-86102438D01*
X165633333Y-86102438D02*
X165728571Y-86054819D01*
X165728571Y-86054819D02*
X165919047Y-86054819D01*
X165919047Y-86054819D02*
X166014285Y-86102438D01*
X166014285Y-86102438D02*
X166061904Y-86150057D01*
X166061904Y-86150057D02*
X166109523Y-86245295D01*
X166109523Y-86245295D02*
X166109523Y-86483390D01*
X166109523Y-86483390D02*
X166061904Y-86578628D01*
X166061904Y-86578628D02*
X166014285Y-86626247D01*
X166014285Y-86626247D02*
X165919047Y-86673866D01*
X165919047Y-86673866D02*
X165728571Y-86673866D01*
X165728571Y-86673866D02*
X165633333Y-86626247D01*
X165633333Y-86626247D02*
X165585714Y-86578628D01*
X165585714Y-86578628D02*
X165538095Y-86483390D01*
X78014285Y-87054819D02*
X78014285Y-86054819D01*
X78014285Y-86054819D02*
X77776190Y-86054819D01*
X77776190Y-86054819D02*
X77633333Y-86102438D01*
X77633333Y-86102438D02*
X77538095Y-86197676D01*
X77538095Y-86197676D02*
X77490476Y-86292914D01*
X77490476Y-86292914D02*
X77442857Y-86483390D01*
X77442857Y-86483390D02*
X77442857Y-86626247D01*
X77442857Y-86626247D02*
X77490476Y-86816723D01*
X77490476Y-86816723D02*
X77538095Y-86911961D01*
X77538095Y-86911961D02*
X77633333Y-87007200D01*
X77633333Y-87007200D02*
X77776190Y-87054819D01*
X77776190Y-87054819D02*
X78014285Y-87054819D01*
X76490476Y-87054819D02*
X77061904Y-87054819D01*
X76776190Y-87054819D02*
X76776190Y-86054819D01*
X76776190Y-86054819D02*
X76871428Y-86197676D01*
X76871428Y-86197676D02*
X76966666Y-86292914D01*
X76966666Y-86292914D02*
X77061904Y-86340533D01*
X75633333Y-86388152D02*
X75633333Y-87054819D01*
X75871428Y-86007200D02*
X76109523Y-86721485D01*
X76109523Y-86721485D02*
X75490476Y-86721485D01*
X150589580Y-108657142D02*
X150637200Y-108609523D01*
X150637200Y-108609523D02*
X150684819Y-108466666D01*
X150684819Y-108466666D02*
X150684819Y-108371428D01*
X150684819Y-108371428D02*
X150637200Y-108228571D01*
X150637200Y-108228571D02*
X150541961Y-108133333D01*
X150541961Y-108133333D02*
X150446723Y-108085714D01*
X150446723Y-108085714D02*
X150256247Y-108038095D01*
X150256247Y-108038095D02*
X150113390Y-108038095D01*
X150113390Y-108038095D02*
X149922914Y-108085714D01*
X149922914Y-108085714D02*
X149827676Y-108133333D01*
X149827676Y-108133333D02*
X149732438Y-108228571D01*
X149732438Y-108228571D02*
X149684819Y-108371428D01*
X149684819Y-108371428D02*
X149684819Y-108466666D01*
X149684819Y-108466666D02*
X149732438Y-108609523D01*
X149732438Y-108609523D02*
X149780057Y-108657142D01*
X150684819Y-109609523D02*
X150684819Y-109038095D01*
X150684819Y-109323809D02*
X149684819Y-109323809D01*
X149684819Y-109323809D02*
X149827676Y-109228571D01*
X149827676Y-109228571D02*
X149922914Y-109133333D01*
X149922914Y-109133333D02*
X149970533Y-109038095D01*
X149684819Y-109942857D02*
X149684819Y-110609523D01*
X149684819Y-110609523D02*
X150684819Y-110180952D01*
X240014285Y-87054819D02*
X240014285Y-86054819D01*
X240014285Y-86054819D02*
X239776190Y-86054819D01*
X239776190Y-86054819D02*
X239633333Y-86102438D01*
X239633333Y-86102438D02*
X239538095Y-86197676D01*
X239538095Y-86197676D02*
X239490476Y-86292914D01*
X239490476Y-86292914D02*
X239442857Y-86483390D01*
X239442857Y-86483390D02*
X239442857Y-86626247D01*
X239442857Y-86626247D02*
X239490476Y-86816723D01*
X239490476Y-86816723D02*
X239538095Y-86911961D01*
X239538095Y-86911961D02*
X239633333Y-87007200D01*
X239633333Y-87007200D02*
X239776190Y-87054819D01*
X239776190Y-87054819D02*
X240014285Y-87054819D01*
X239061904Y-86150057D02*
X239014285Y-86102438D01*
X239014285Y-86102438D02*
X238919047Y-86054819D01*
X238919047Y-86054819D02*
X238680952Y-86054819D01*
X238680952Y-86054819D02*
X238585714Y-86102438D01*
X238585714Y-86102438D02*
X238538095Y-86150057D01*
X238538095Y-86150057D02*
X238490476Y-86245295D01*
X238490476Y-86245295D02*
X238490476Y-86340533D01*
X238490476Y-86340533D02*
X238538095Y-86483390D01*
X238538095Y-86483390D02*
X239109523Y-87054819D01*
X239109523Y-87054819D02*
X238490476Y-87054819D01*
X238157142Y-86054819D02*
X237538095Y-86054819D01*
X237538095Y-86054819D02*
X237871428Y-86435771D01*
X237871428Y-86435771D02*
X237728571Y-86435771D01*
X237728571Y-86435771D02*
X237633333Y-86483390D01*
X237633333Y-86483390D02*
X237585714Y-86531009D01*
X237585714Y-86531009D02*
X237538095Y-86626247D01*
X237538095Y-86626247D02*
X237538095Y-86864342D01*
X237538095Y-86864342D02*
X237585714Y-86959580D01*
X237585714Y-86959580D02*
X237633333Y-87007200D01*
X237633333Y-87007200D02*
X237728571Y-87054819D01*
X237728571Y-87054819D02*
X238014285Y-87054819D01*
X238014285Y-87054819D02*
X238109523Y-87007200D01*
X238109523Y-87007200D02*
X238157142Y-86959580D01*
X154966666Y-121339580D02*
X155014285Y-121387200D01*
X155014285Y-121387200D02*
X155157142Y-121434819D01*
X155157142Y-121434819D02*
X155252380Y-121434819D01*
X155252380Y-121434819D02*
X155395237Y-121387200D01*
X155395237Y-121387200D02*
X155490475Y-121291961D01*
X155490475Y-121291961D02*
X155538094Y-121196723D01*
X155538094Y-121196723D02*
X155585713Y-121006247D01*
X155585713Y-121006247D02*
X155585713Y-120863390D01*
X155585713Y-120863390D02*
X155538094Y-120672914D01*
X155538094Y-120672914D02*
X155490475Y-120577676D01*
X155490475Y-120577676D02*
X155395237Y-120482438D01*
X155395237Y-120482438D02*
X155252380Y-120434819D01*
X155252380Y-120434819D02*
X155157142Y-120434819D01*
X155157142Y-120434819D02*
X155014285Y-120482438D01*
X155014285Y-120482438D02*
X154966666Y-120530057D01*
X154109523Y-120434819D02*
X154299999Y-120434819D01*
X154299999Y-120434819D02*
X154395237Y-120482438D01*
X154395237Y-120482438D02*
X154442856Y-120530057D01*
X154442856Y-120530057D02*
X154538094Y-120672914D01*
X154538094Y-120672914D02*
X154585713Y-120863390D01*
X154585713Y-120863390D02*
X154585713Y-121244342D01*
X154585713Y-121244342D02*
X154538094Y-121339580D01*
X154538094Y-121339580D02*
X154490475Y-121387200D01*
X154490475Y-121387200D02*
X154395237Y-121434819D01*
X154395237Y-121434819D02*
X154204761Y-121434819D01*
X154204761Y-121434819D02*
X154109523Y-121387200D01*
X154109523Y-121387200D02*
X154061904Y-121339580D01*
X154061904Y-121339580D02*
X154014285Y-121244342D01*
X154014285Y-121244342D02*
X154014285Y-121006247D01*
X154014285Y-121006247D02*
X154061904Y-120911009D01*
X154061904Y-120911009D02*
X154109523Y-120863390D01*
X154109523Y-120863390D02*
X154204761Y-120815771D01*
X154204761Y-120815771D02*
X154395237Y-120815771D01*
X154395237Y-120815771D02*
X154490475Y-120863390D01*
X154490475Y-120863390D02*
X154538094Y-120911009D01*
X154538094Y-120911009D02*
X154585713Y-121006247D01*
X170264285Y-121054819D02*
X170264285Y-120054819D01*
X170264285Y-120054819D02*
X170026190Y-120054819D01*
X170026190Y-120054819D02*
X169883333Y-120102438D01*
X169883333Y-120102438D02*
X169788095Y-120197676D01*
X169788095Y-120197676D02*
X169740476Y-120292914D01*
X169740476Y-120292914D02*
X169692857Y-120483390D01*
X169692857Y-120483390D02*
X169692857Y-120626247D01*
X169692857Y-120626247D02*
X169740476Y-120816723D01*
X169740476Y-120816723D02*
X169788095Y-120911961D01*
X169788095Y-120911961D02*
X169883333Y-121007200D01*
X169883333Y-121007200D02*
X170026190Y-121054819D01*
X170026190Y-121054819D02*
X170264285Y-121054819D01*
X168835714Y-120388152D02*
X168835714Y-121054819D01*
X169073809Y-120007200D02*
X169311904Y-120721485D01*
X169311904Y-120721485D02*
X168692857Y-120721485D01*
X168359523Y-120150057D02*
X168311904Y-120102438D01*
X168311904Y-120102438D02*
X168216666Y-120054819D01*
X168216666Y-120054819D02*
X167978571Y-120054819D01*
X167978571Y-120054819D02*
X167883333Y-120102438D01*
X167883333Y-120102438D02*
X167835714Y-120150057D01*
X167835714Y-120150057D02*
X167788095Y-120245295D01*
X167788095Y-120245295D02*
X167788095Y-120340533D01*
X167788095Y-120340533D02*
X167835714Y-120483390D01*
X167835714Y-120483390D02*
X168407142Y-121054819D01*
X168407142Y-121054819D02*
X167788095Y-121054819D01*
X138764285Y-121054819D02*
X138764285Y-120054819D01*
X138764285Y-120054819D02*
X138526190Y-120054819D01*
X138526190Y-120054819D02*
X138383333Y-120102438D01*
X138383333Y-120102438D02*
X138288095Y-120197676D01*
X138288095Y-120197676D02*
X138240476Y-120292914D01*
X138240476Y-120292914D02*
X138192857Y-120483390D01*
X138192857Y-120483390D02*
X138192857Y-120626247D01*
X138192857Y-120626247D02*
X138240476Y-120816723D01*
X138240476Y-120816723D02*
X138288095Y-120911961D01*
X138288095Y-120911961D02*
X138383333Y-121007200D01*
X138383333Y-121007200D02*
X138526190Y-121054819D01*
X138526190Y-121054819D02*
X138764285Y-121054819D01*
X137335714Y-120388152D02*
X137335714Y-121054819D01*
X137573809Y-120007200D02*
X137811904Y-120721485D01*
X137811904Y-120721485D02*
X137192857Y-120721485D01*
X136288095Y-121054819D02*
X136859523Y-121054819D01*
X136573809Y-121054819D02*
X136573809Y-120054819D01*
X136573809Y-120054819D02*
X136669047Y-120197676D01*
X136669047Y-120197676D02*
X136764285Y-120292914D01*
X136764285Y-120292914D02*
X136859523Y-120340533D01*
X143479580Y-121883333D02*
X143527200Y-121835714D01*
X143527200Y-121835714D02*
X143574819Y-121692857D01*
X143574819Y-121692857D02*
X143574819Y-121597619D01*
X143574819Y-121597619D02*
X143527200Y-121454762D01*
X143527200Y-121454762D02*
X143431961Y-121359524D01*
X143431961Y-121359524D02*
X143336723Y-121311905D01*
X143336723Y-121311905D02*
X143146247Y-121264286D01*
X143146247Y-121264286D02*
X143003390Y-121264286D01*
X143003390Y-121264286D02*
X142812914Y-121311905D01*
X142812914Y-121311905D02*
X142717676Y-121359524D01*
X142717676Y-121359524D02*
X142622438Y-121454762D01*
X142622438Y-121454762D02*
X142574819Y-121597619D01*
X142574819Y-121597619D02*
X142574819Y-121692857D01*
X142574819Y-121692857D02*
X142622438Y-121835714D01*
X142622438Y-121835714D02*
X142670057Y-121883333D01*
X142670057Y-122264286D02*
X142622438Y-122311905D01*
X142622438Y-122311905D02*
X142574819Y-122407143D01*
X142574819Y-122407143D02*
X142574819Y-122645238D01*
X142574819Y-122645238D02*
X142622438Y-122740476D01*
X142622438Y-122740476D02*
X142670057Y-122788095D01*
X142670057Y-122788095D02*
X142765295Y-122835714D01*
X142765295Y-122835714D02*
X142860533Y-122835714D01*
X142860533Y-122835714D02*
X143003390Y-122788095D01*
X143003390Y-122788095D02*
X143574819Y-122216667D01*
X143574819Y-122216667D02*
X143574819Y-122835714D01*
X154991666Y-117839580D02*
X155039285Y-117887200D01*
X155039285Y-117887200D02*
X155182142Y-117934819D01*
X155182142Y-117934819D02*
X155277380Y-117934819D01*
X155277380Y-117934819D02*
X155420237Y-117887200D01*
X155420237Y-117887200D02*
X155515475Y-117791961D01*
X155515475Y-117791961D02*
X155563094Y-117696723D01*
X155563094Y-117696723D02*
X155610713Y-117506247D01*
X155610713Y-117506247D02*
X155610713Y-117363390D01*
X155610713Y-117363390D02*
X155563094Y-117172914D01*
X155563094Y-117172914D02*
X155515475Y-117077676D01*
X155515475Y-117077676D02*
X155420237Y-116982438D01*
X155420237Y-116982438D02*
X155277380Y-116934819D01*
X155277380Y-116934819D02*
X155182142Y-116934819D01*
X155182142Y-116934819D02*
X155039285Y-116982438D01*
X155039285Y-116982438D02*
X154991666Y-117030057D01*
X154658332Y-116934819D02*
X153991666Y-116934819D01*
X153991666Y-116934819D02*
X154420237Y-117934819D01*
X231014285Y-104054819D02*
X231014285Y-103054819D01*
X231014285Y-103054819D02*
X230776190Y-103054819D01*
X230776190Y-103054819D02*
X230633333Y-103102438D01*
X230633333Y-103102438D02*
X230538095Y-103197676D01*
X230538095Y-103197676D02*
X230490476Y-103292914D01*
X230490476Y-103292914D02*
X230442857Y-103483390D01*
X230442857Y-103483390D02*
X230442857Y-103626247D01*
X230442857Y-103626247D02*
X230490476Y-103816723D01*
X230490476Y-103816723D02*
X230538095Y-103911961D01*
X230538095Y-103911961D02*
X230633333Y-104007200D01*
X230633333Y-104007200D02*
X230776190Y-104054819D01*
X230776190Y-104054819D02*
X231014285Y-104054819D01*
X230109523Y-103054819D02*
X229490476Y-103054819D01*
X229490476Y-103054819D02*
X229823809Y-103435771D01*
X229823809Y-103435771D02*
X229680952Y-103435771D01*
X229680952Y-103435771D02*
X229585714Y-103483390D01*
X229585714Y-103483390D02*
X229538095Y-103531009D01*
X229538095Y-103531009D02*
X229490476Y-103626247D01*
X229490476Y-103626247D02*
X229490476Y-103864342D01*
X229490476Y-103864342D02*
X229538095Y-103959580D01*
X229538095Y-103959580D02*
X229585714Y-104007200D01*
X229585714Y-104007200D02*
X229680952Y-104054819D01*
X229680952Y-104054819D02*
X229966666Y-104054819D01*
X229966666Y-104054819D02*
X230061904Y-104007200D01*
X230061904Y-104007200D02*
X230109523Y-103959580D01*
X229157142Y-103054819D02*
X228538095Y-103054819D01*
X228538095Y-103054819D02*
X228871428Y-103435771D01*
X228871428Y-103435771D02*
X228728571Y-103435771D01*
X228728571Y-103435771D02*
X228633333Y-103483390D01*
X228633333Y-103483390D02*
X228585714Y-103531009D01*
X228585714Y-103531009D02*
X228538095Y-103626247D01*
X228538095Y-103626247D02*
X228538095Y-103864342D01*
X228538095Y-103864342D02*
X228585714Y-103959580D01*
X228585714Y-103959580D02*
X228633333Y-104007200D01*
X228633333Y-104007200D02*
X228728571Y-104054819D01*
X228728571Y-104054819D02*
X229014285Y-104054819D01*
X229014285Y-104054819D02*
X229109523Y-104007200D01*
X229109523Y-104007200D02*
X229157142Y-103959580D01*
X141716666Y-115729580D02*
X141764285Y-115777200D01*
X141764285Y-115777200D02*
X141907142Y-115824819D01*
X141907142Y-115824819D02*
X142002380Y-115824819D01*
X142002380Y-115824819D02*
X142145237Y-115777200D01*
X142145237Y-115777200D02*
X142240475Y-115681961D01*
X142240475Y-115681961D02*
X142288094Y-115586723D01*
X142288094Y-115586723D02*
X142335713Y-115396247D01*
X142335713Y-115396247D02*
X142335713Y-115253390D01*
X142335713Y-115253390D02*
X142288094Y-115062914D01*
X142288094Y-115062914D02*
X142240475Y-114967676D01*
X142240475Y-114967676D02*
X142145237Y-114872438D01*
X142145237Y-114872438D02*
X142002380Y-114824819D01*
X142002380Y-114824819D02*
X141907142Y-114824819D01*
X141907142Y-114824819D02*
X141764285Y-114872438D01*
X141764285Y-114872438D02*
X141716666Y-114920057D01*
X141240475Y-115824819D02*
X141049999Y-115824819D01*
X141049999Y-115824819D02*
X140954761Y-115777200D01*
X140954761Y-115777200D02*
X140907142Y-115729580D01*
X140907142Y-115729580D02*
X140811904Y-115586723D01*
X140811904Y-115586723D02*
X140764285Y-115396247D01*
X140764285Y-115396247D02*
X140764285Y-115015295D01*
X140764285Y-115015295D02*
X140811904Y-114920057D01*
X140811904Y-114920057D02*
X140859523Y-114872438D01*
X140859523Y-114872438D02*
X140954761Y-114824819D01*
X140954761Y-114824819D02*
X141145237Y-114824819D01*
X141145237Y-114824819D02*
X141240475Y-114872438D01*
X141240475Y-114872438D02*
X141288094Y-114920057D01*
X141288094Y-114920057D02*
X141335713Y-115015295D01*
X141335713Y-115015295D02*
X141335713Y-115253390D01*
X141335713Y-115253390D02*
X141288094Y-115348628D01*
X141288094Y-115348628D02*
X141240475Y-115396247D01*
X141240475Y-115396247D02*
X141145237Y-115443866D01*
X141145237Y-115443866D02*
X140954761Y-115443866D01*
X140954761Y-115443866D02*
X140859523Y-115396247D01*
X140859523Y-115396247D02*
X140811904Y-115348628D01*
X140811904Y-115348628D02*
X140764285Y-115253390D01*
X177562319Y-120345833D02*
X177562319Y-119869643D01*
X177562319Y-119869643D02*
X176562319Y-119869643D01*
X176562319Y-121107738D02*
X176562319Y-120917262D01*
X176562319Y-120917262D02*
X176609938Y-120822024D01*
X176609938Y-120822024D02*
X176657557Y-120774405D01*
X176657557Y-120774405D02*
X176800414Y-120679167D01*
X176800414Y-120679167D02*
X176990890Y-120631548D01*
X176990890Y-120631548D02*
X177371842Y-120631548D01*
X177371842Y-120631548D02*
X177467080Y-120679167D01*
X177467080Y-120679167D02*
X177514700Y-120726786D01*
X177514700Y-120726786D02*
X177562319Y-120822024D01*
X177562319Y-120822024D02*
X177562319Y-121012500D01*
X177562319Y-121012500D02*
X177514700Y-121107738D01*
X177514700Y-121107738D02*
X177467080Y-121155357D01*
X177467080Y-121155357D02*
X177371842Y-121202976D01*
X177371842Y-121202976D02*
X177133747Y-121202976D01*
X177133747Y-121202976D02*
X177038509Y-121155357D01*
X177038509Y-121155357D02*
X176990890Y-121107738D01*
X176990890Y-121107738D02*
X176943271Y-121012500D01*
X176943271Y-121012500D02*
X176943271Y-120822024D01*
X176943271Y-120822024D02*
X176990890Y-120726786D01*
X176990890Y-120726786D02*
X177038509Y-120679167D01*
X177038509Y-120679167D02*
X177133747Y-120631548D01*
X152979580Y-121407142D02*
X153027200Y-121359523D01*
X153027200Y-121359523D02*
X153074819Y-121216666D01*
X153074819Y-121216666D02*
X153074819Y-121121428D01*
X153074819Y-121121428D02*
X153027200Y-120978571D01*
X153027200Y-120978571D02*
X152931961Y-120883333D01*
X152931961Y-120883333D02*
X152836723Y-120835714D01*
X152836723Y-120835714D02*
X152646247Y-120788095D01*
X152646247Y-120788095D02*
X152503390Y-120788095D01*
X152503390Y-120788095D02*
X152312914Y-120835714D01*
X152312914Y-120835714D02*
X152217676Y-120883333D01*
X152217676Y-120883333D02*
X152122438Y-120978571D01*
X152122438Y-120978571D02*
X152074819Y-121121428D01*
X152074819Y-121121428D02*
X152074819Y-121216666D01*
X152074819Y-121216666D02*
X152122438Y-121359523D01*
X152122438Y-121359523D02*
X152170057Y-121407142D01*
X153074819Y-122359523D02*
X153074819Y-121788095D01*
X153074819Y-122073809D02*
X152074819Y-122073809D01*
X152074819Y-122073809D02*
X152217676Y-121978571D01*
X152217676Y-121978571D02*
X152312914Y-121883333D01*
X152312914Y-121883333D02*
X152360533Y-121788095D01*
X152074819Y-123216666D02*
X152074819Y-123026190D01*
X152074819Y-123026190D02*
X152122438Y-122930952D01*
X152122438Y-122930952D02*
X152170057Y-122883333D01*
X152170057Y-122883333D02*
X152312914Y-122788095D01*
X152312914Y-122788095D02*
X152503390Y-122740476D01*
X152503390Y-122740476D02*
X152884342Y-122740476D01*
X152884342Y-122740476D02*
X152979580Y-122788095D01*
X152979580Y-122788095D02*
X153027200Y-122835714D01*
X153027200Y-122835714D02*
X153074819Y-122930952D01*
X153074819Y-122930952D02*
X153074819Y-123121428D01*
X153074819Y-123121428D02*
X153027200Y-123216666D01*
X153027200Y-123216666D02*
X152979580Y-123264285D01*
X152979580Y-123264285D02*
X152884342Y-123311904D01*
X152884342Y-123311904D02*
X152646247Y-123311904D01*
X152646247Y-123311904D02*
X152551009Y-123264285D01*
X152551009Y-123264285D02*
X152503390Y-123216666D01*
X152503390Y-123216666D02*
X152455771Y-123121428D01*
X152455771Y-123121428D02*
X152455771Y-122930952D01*
X152455771Y-122930952D02*
X152503390Y-122835714D01*
X152503390Y-122835714D02*
X152551009Y-122788095D01*
X152551009Y-122788095D02*
X152646247Y-122740476D01*
X154991666Y-114089580D02*
X155039285Y-114137200D01*
X155039285Y-114137200D02*
X155182142Y-114184819D01*
X155182142Y-114184819D02*
X155277380Y-114184819D01*
X155277380Y-114184819D02*
X155420237Y-114137200D01*
X155420237Y-114137200D02*
X155515475Y-114041961D01*
X155515475Y-114041961D02*
X155563094Y-113946723D01*
X155563094Y-113946723D02*
X155610713Y-113756247D01*
X155610713Y-113756247D02*
X155610713Y-113613390D01*
X155610713Y-113613390D02*
X155563094Y-113422914D01*
X155563094Y-113422914D02*
X155515475Y-113327676D01*
X155515475Y-113327676D02*
X155420237Y-113232438D01*
X155420237Y-113232438D02*
X155277380Y-113184819D01*
X155277380Y-113184819D02*
X155182142Y-113184819D01*
X155182142Y-113184819D02*
X155039285Y-113232438D01*
X155039285Y-113232438D02*
X154991666Y-113280057D01*
X154658332Y-113184819D02*
X154039285Y-113184819D01*
X154039285Y-113184819D02*
X154372618Y-113565771D01*
X154372618Y-113565771D02*
X154229761Y-113565771D01*
X154229761Y-113565771D02*
X154134523Y-113613390D01*
X154134523Y-113613390D02*
X154086904Y-113661009D01*
X154086904Y-113661009D02*
X154039285Y-113756247D01*
X154039285Y-113756247D02*
X154039285Y-113994342D01*
X154039285Y-113994342D02*
X154086904Y-114089580D01*
X154086904Y-114089580D02*
X154134523Y-114137200D01*
X154134523Y-114137200D02*
X154229761Y-114184819D01*
X154229761Y-114184819D02*
X154515475Y-114184819D01*
X154515475Y-114184819D02*
X154610713Y-114137200D01*
X154610713Y-114137200D02*
X154658332Y-114089580D01*
X268506200Y-86765476D02*
X268553819Y-86908333D01*
X268553819Y-86908333D02*
X268553819Y-87146428D01*
X268553819Y-87146428D02*
X268506200Y-87241666D01*
X268506200Y-87241666D02*
X268458580Y-87289285D01*
X268458580Y-87289285D02*
X268363342Y-87336904D01*
X268363342Y-87336904D02*
X268268104Y-87336904D01*
X268268104Y-87336904D02*
X268172866Y-87289285D01*
X268172866Y-87289285D02*
X268125247Y-87241666D01*
X268125247Y-87241666D02*
X268077628Y-87146428D01*
X268077628Y-87146428D02*
X268030009Y-86955952D01*
X268030009Y-86955952D02*
X267982390Y-86860714D01*
X267982390Y-86860714D02*
X267934771Y-86813095D01*
X267934771Y-86813095D02*
X267839533Y-86765476D01*
X267839533Y-86765476D02*
X267744295Y-86765476D01*
X267744295Y-86765476D02*
X267649057Y-86813095D01*
X267649057Y-86813095D02*
X267601438Y-86860714D01*
X267601438Y-86860714D02*
X267553819Y-86955952D01*
X267553819Y-86955952D02*
X267553819Y-87194047D01*
X267553819Y-87194047D02*
X267601438Y-87336904D01*
X267553819Y-87670238D02*
X268553819Y-87908333D01*
X268553819Y-87908333D02*
X267839533Y-88098809D01*
X267839533Y-88098809D02*
X268553819Y-88289285D01*
X268553819Y-88289285D02*
X267553819Y-88527381D01*
X267887152Y-89336904D02*
X268553819Y-89336904D01*
X267506200Y-89098809D02*
X268220485Y-88860714D01*
X268220485Y-88860714D02*
X268220485Y-89479761D01*
X268553819Y-89908333D02*
X268553819Y-90098809D01*
X268553819Y-90098809D02*
X268506200Y-90194047D01*
X268506200Y-90194047D02*
X268458580Y-90241666D01*
X268458580Y-90241666D02*
X268315723Y-90336904D01*
X268315723Y-90336904D02*
X268125247Y-90384523D01*
X268125247Y-90384523D02*
X267744295Y-90384523D01*
X267744295Y-90384523D02*
X267649057Y-90336904D01*
X267649057Y-90336904D02*
X267601438Y-90289285D01*
X267601438Y-90289285D02*
X267553819Y-90194047D01*
X267553819Y-90194047D02*
X267553819Y-90003571D01*
X267553819Y-90003571D02*
X267601438Y-89908333D01*
X267601438Y-89908333D02*
X267649057Y-89860714D01*
X267649057Y-89860714D02*
X267744295Y-89813095D01*
X267744295Y-89813095D02*
X267982390Y-89813095D01*
X267982390Y-89813095D02*
X268077628Y-89860714D01*
X268077628Y-89860714D02*
X268125247Y-89908333D01*
X268125247Y-89908333D02*
X268172866Y-90003571D01*
X268172866Y-90003571D02*
X268172866Y-90194047D01*
X268172866Y-90194047D02*
X268125247Y-90289285D01*
X268125247Y-90289285D02*
X268077628Y-90336904D01*
X268077628Y-90336904D02*
X267982390Y-90384523D01*
X152589580Y-108657142D02*
X152637200Y-108609523D01*
X152637200Y-108609523D02*
X152684819Y-108466666D01*
X152684819Y-108466666D02*
X152684819Y-108371428D01*
X152684819Y-108371428D02*
X152637200Y-108228571D01*
X152637200Y-108228571D02*
X152541961Y-108133333D01*
X152541961Y-108133333D02*
X152446723Y-108085714D01*
X152446723Y-108085714D02*
X152256247Y-108038095D01*
X152256247Y-108038095D02*
X152113390Y-108038095D01*
X152113390Y-108038095D02*
X151922914Y-108085714D01*
X151922914Y-108085714D02*
X151827676Y-108133333D01*
X151827676Y-108133333D02*
X151732438Y-108228571D01*
X151732438Y-108228571D02*
X151684819Y-108371428D01*
X151684819Y-108371428D02*
X151684819Y-108466666D01*
X151684819Y-108466666D02*
X151732438Y-108609523D01*
X151732438Y-108609523D02*
X151780057Y-108657142D01*
X152684819Y-109609523D02*
X152684819Y-109038095D01*
X152684819Y-109323809D02*
X151684819Y-109323809D01*
X151684819Y-109323809D02*
X151827676Y-109228571D01*
X151827676Y-109228571D02*
X151922914Y-109133333D01*
X151922914Y-109133333D02*
X151970533Y-109038095D01*
X152113390Y-110180952D02*
X152065771Y-110085714D01*
X152065771Y-110085714D02*
X152018152Y-110038095D01*
X152018152Y-110038095D02*
X151922914Y-109990476D01*
X151922914Y-109990476D02*
X151875295Y-109990476D01*
X151875295Y-109990476D02*
X151780057Y-110038095D01*
X151780057Y-110038095D02*
X151732438Y-110085714D01*
X151732438Y-110085714D02*
X151684819Y-110180952D01*
X151684819Y-110180952D02*
X151684819Y-110371428D01*
X151684819Y-110371428D02*
X151732438Y-110466666D01*
X151732438Y-110466666D02*
X151780057Y-110514285D01*
X151780057Y-110514285D02*
X151875295Y-110561904D01*
X151875295Y-110561904D02*
X151922914Y-110561904D01*
X151922914Y-110561904D02*
X152018152Y-110514285D01*
X152018152Y-110514285D02*
X152065771Y-110466666D01*
X152065771Y-110466666D02*
X152113390Y-110371428D01*
X152113390Y-110371428D02*
X152113390Y-110180952D01*
X152113390Y-110180952D02*
X152161009Y-110085714D01*
X152161009Y-110085714D02*
X152208628Y-110038095D01*
X152208628Y-110038095D02*
X152303866Y-109990476D01*
X152303866Y-109990476D02*
X152494342Y-109990476D01*
X152494342Y-109990476D02*
X152589580Y-110038095D01*
X152589580Y-110038095D02*
X152637200Y-110085714D01*
X152637200Y-110085714D02*
X152684819Y-110180952D01*
X152684819Y-110180952D02*
X152684819Y-110371428D01*
X152684819Y-110371428D02*
X152637200Y-110466666D01*
X152637200Y-110466666D02*
X152589580Y-110514285D01*
X152589580Y-110514285D02*
X152494342Y-110561904D01*
X152494342Y-110561904D02*
X152303866Y-110561904D01*
X152303866Y-110561904D02*
X152208628Y-110514285D01*
X152208628Y-110514285D02*
X152161009Y-110466666D01*
X152161009Y-110466666D02*
X152113390Y-110371428D01*
X69014285Y-104054819D02*
X69014285Y-103054819D01*
X69014285Y-103054819D02*
X68776190Y-103054819D01*
X68776190Y-103054819D02*
X68633333Y-103102438D01*
X68633333Y-103102438D02*
X68538095Y-103197676D01*
X68538095Y-103197676D02*
X68490476Y-103292914D01*
X68490476Y-103292914D02*
X68442857Y-103483390D01*
X68442857Y-103483390D02*
X68442857Y-103626247D01*
X68442857Y-103626247D02*
X68490476Y-103816723D01*
X68490476Y-103816723D02*
X68538095Y-103911961D01*
X68538095Y-103911961D02*
X68633333Y-104007200D01*
X68633333Y-104007200D02*
X68776190Y-104054819D01*
X68776190Y-104054819D02*
X69014285Y-104054819D01*
X68061904Y-103150057D02*
X68014285Y-103102438D01*
X68014285Y-103102438D02*
X67919047Y-103054819D01*
X67919047Y-103054819D02*
X67680952Y-103054819D01*
X67680952Y-103054819D02*
X67585714Y-103102438D01*
X67585714Y-103102438D02*
X67538095Y-103150057D01*
X67538095Y-103150057D02*
X67490476Y-103245295D01*
X67490476Y-103245295D02*
X67490476Y-103340533D01*
X67490476Y-103340533D02*
X67538095Y-103483390D01*
X67538095Y-103483390D02*
X68109523Y-104054819D01*
X68109523Y-104054819D02*
X67490476Y-104054819D01*
X66633333Y-103388152D02*
X66633333Y-104054819D01*
X66871428Y-103007200D02*
X67109523Y-103721485D01*
X67109523Y-103721485D02*
X66490476Y-103721485D01*
X264764285Y-87054819D02*
X264764285Y-86054819D01*
X264764285Y-86054819D02*
X264526190Y-86054819D01*
X264526190Y-86054819D02*
X264383333Y-86102438D01*
X264383333Y-86102438D02*
X264288095Y-86197676D01*
X264288095Y-86197676D02*
X264240476Y-86292914D01*
X264240476Y-86292914D02*
X264192857Y-86483390D01*
X264192857Y-86483390D02*
X264192857Y-86626247D01*
X264192857Y-86626247D02*
X264240476Y-86816723D01*
X264240476Y-86816723D02*
X264288095Y-86911961D01*
X264288095Y-86911961D02*
X264383333Y-87007200D01*
X264383333Y-87007200D02*
X264526190Y-87054819D01*
X264526190Y-87054819D02*
X264764285Y-87054819D01*
X263335714Y-86388152D02*
X263335714Y-87054819D01*
X263573809Y-86007200D02*
X263811904Y-86721485D01*
X263811904Y-86721485D02*
X263192857Y-86721485D01*
X262383333Y-86388152D02*
X262383333Y-87054819D01*
X262621428Y-86007200D02*
X262859523Y-86721485D01*
X262859523Y-86721485D02*
X262240476Y-86721485D01*
X222014285Y-87054819D02*
X222014285Y-86054819D01*
X222014285Y-86054819D02*
X221776190Y-86054819D01*
X221776190Y-86054819D02*
X221633333Y-86102438D01*
X221633333Y-86102438D02*
X221538095Y-86197676D01*
X221538095Y-86197676D02*
X221490476Y-86292914D01*
X221490476Y-86292914D02*
X221442857Y-86483390D01*
X221442857Y-86483390D02*
X221442857Y-86626247D01*
X221442857Y-86626247D02*
X221490476Y-86816723D01*
X221490476Y-86816723D02*
X221538095Y-86911961D01*
X221538095Y-86911961D02*
X221633333Y-87007200D01*
X221633333Y-87007200D02*
X221776190Y-87054819D01*
X221776190Y-87054819D02*
X222014285Y-87054819D01*
X221061904Y-86150057D02*
X221014285Y-86102438D01*
X221014285Y-86102438D02*
X220919047Y-86054819D01*
X220919047Y-86054819D02*
X220680952Y-86054819D01*
X220680952Y-86054819D02*
X220585714Y-86102438D01*
X220585714Y-86102438D02*
X220538095Y-86150057D01*
X220538095Y-86150057D02*
X220490476Y-86245295D01*
X220490476Y-86245295D02*
X220490476Y-86340533D01*
X220490476Y-86340533D02*
X220538095Y-86483390D01*
X220538095Y-86483390D02*
X221109523Y-87054819D01*
X221109523Y-87054819D02*
X220490476Y-87054819D01*
X220109523Y-86150057D02*
X220061904Y-86102438D01*
X220061904Y-86102438D02*
X219966666Y-86054819D01*
X219966666Y-86054819D02*
X219728571Y-86054819D01*
X219728571Y-86054819D02*
X219633333Y-86102438D01*
X219633333Y-86102438D02*
X219585714Y-86150057D01*
X219585714Y-86150057D02*
X219538095Y-86245295D01*
X219538095Y-86245295D02*
X219538095Y-86340533D01*
X219538095Y-86340533D02*
X219585714Y-86483390D01*
X219585714Y-86483390D02*
X220157142Y-87054819D01*
X220157142Y-87054819D02*
X219538095Y-87054819D01*
X251341666Y-81574819D02*
X251674999Y-81098628D01*
X251913094Y-81574819D02*
X251913094Y-80574819D01*
X251913094Y-80574819D02*
X251532142Y-80574819D01*
X251532142Y-80574819D02*
X251436904Y-80622438D01*
X251436904Y-80622438D02*
X251389285Y-80670057D01*
X251389285Y-80670057D02*
X251341666Y-80765295D01*
X251341666Y-80765295D02*
X251341666Y-80908152D01*
X251341666Y-80908152D02*
X251389285Y-81003390D01*
X251389285Y-81003390D02*
X251436904Y-81051009D01*
X251436904Y-81051009D02*
X251532142Y-81098628D01*
X251532142Y-81098628D02*
X251913094Y-81098628D01*
X250484523Y-80908152D02*
X250484523Y-81574819D01*
X250722618Y-80527200D02*
X250960713Y-81241485D01*
X250960713Y-81241485D02*
X250341666Y-81241485D01*
X228764285Y-121054819D02*
X228764285Y-120054819D01*
X228764285Y-120054819D02*
X228526190Y-120054819D01*
X228526190Y-120054819D02*
X228383333Y-120102438D01*
X228383333Y-120102438D02*
X228288095Y-120197676D01*
X228288095Y-120197676D02*
X228240476Y-120292914D01*
X228240476Y-120292914D02*
X228192857Y-120483390D01*
X228192857Y-120483390D02*
X228192857Y-120626247D01*
X228192857Y-120626247D02*
X228240476Y-120816723D01*
X228240476Y-120816723D02*
X228288095Y-120911961D01*
X228288095Y-120911961D02*
X228383333Y-121007200D01*
X228383333Y-121007200D02*
X228526190Y-121054819D01*
X228526190Y-121054819D02*
X228764285Y-121054819D01*
X227335714Y-120388152D02*
X227335714Y-121054819D01*
X227573809Y-120007200D02*
X227811904Y-120721485D01*
X227811904Y-120721485D02*
X227192857Y-120721485D01*
X226907142Y-120054819D02*
X226240476Y-120054819D01*
X226240476Y-120054819D02*
X226669047Y-121054819D01*
X199038094Y-70054819D02*
X199038094Y-69054819D01*
X199038094Y-69054819D02*
X198799999Y-69054819D01*
X198799999Y-69054819D02*
X198657142Y-69102438D01*
X198657142Y-69102438D02*
X198561904Y-69197676D01*
X198561904Y-69197676D02*
X198514285Y-69292914D01*
X198514285Y-69292914D02*
X198466666Y-69483390D01*
X198466666Y-69483390D02*
X198466666Y-69626247D01*
X198466666Y-69626247D02*
X198514285Y-69816723D01*
X198514285Y-69816723D02*
X198561904Y-69911961D01*
X198561904Y-69911961D02*
X198657142Y-70007200D01*
X198657142Y-70007200D02*
X198799999Y-70054819D01*
X198799999Y-70054819D02*
X199038094Y-70054819D01*
X197990475Y-70054819D02*
X197799999Y-70054819D01*
X197799999Y-70054819D02*
X197704761Y-70007200D01*
X197704761Y-70007200D02*
X197657142Y-69959580D01*
X197657142Y-69959580D02*
X197561904Y-69816723D01*
X197561904Y-69816723D02*
X197514285Y-69626247D01*
X197514285Y-69626247D02*
X197514285Y-69245295D01*
X197514285Y-69245295D02*
X197561904Y-69150057D01*
X197561904Y-69150057D02*
X197609523Y-69102438D01*
X197609523Y-69102438D02*
X197704761Y-69054819D01*
X197704761Y-69054819D02*
X197895237Y-69054819D01*
X197895237Y-69054819D02*
X197990475Y-69102438D01*
X197990475Y-69102438D02*
X198038094Y-69150057D01*
X198038094Y-69150057D02*
X198085713Y-69245295D01*
X198085713Y-69245295D02*
X198085713Y-69483390D01*
X198085713Y-69483390D02*
X198038094Y-69578628D01*
X198038094Y-69578628D02*
X197990475Y-69626247D01*
X197990475Y-69626247D02*
X197895237Y-69673866D01*
X197895237Y-69673866D02*
X197704761Y-69673866D01*
X197704761Y-69673866D02*
X197609523Y-69626247D01*
X197609523Y-69626247D02*
X197561904Y-69578628D01*
X197561904Y-69578628D02*
X197514285Y-69483390D01*
X251341666Y-82184819D02*
X251674999Y-81708628D01*
X251913094Y-82184819D02*
X251913094Y-81184819D01*
X251913094Y-81184819D02*
X251532142Y-81184819D01*
X251532142Y-81184819D02*
X251436904Y-81232438D01*
X251436904Y-81232438D02*
X251389285Y-81280057D01*
X251389285Y-81280057D02*
X251341666Y-81375295D01*
X251341666Y-81375295D02*
X251341666Y-81518152D01*
X251341666Y-81518152D02*
X251389285Y-81613390D01*
X251389285Y-81613390D02*
X251436904Y-81661009D01*
X251436904Y-81661009D02*
X251532142Y-81708628D01*
X251532142Y-81708628D02*
X251913094Y-81708628D01*
X250960713Y-81280057D02*
X250913094Y-81232438D01*
X250913094Y-81232438D02*
X250817856Y-81184819D01*
X250817856Y-81184819D02*
X250579761Y-81184819D01*
X250579761Y-81184819D02*
X250484523Y-81232438D01*
X250484523Y-81232438D02*
X250436904Y-81280057D01*
X250436904Y-81280057D02*
X250389285Y-81375295D01*
X250389285Y-81375295D02*
X250389285Y-81470533D01*
X250389285Y-81470533D02*
X250436904Y-81613390D01*
X250436904Y-81613390D02*
X251008332Y-82184819D01*
X251008332Y-82184819D02*
X250389285Y-82184819D01*
X151324819Y-121883333D02*
X151324819Y-121407143D01*
X151324819Y-121407143D02*
X150324819Y-121407143D01*
X151324819Y-122740476D02*
X151324819Y-122169048D01*
X151324819Y-122454762D02*
X150324819Y-122454762D01*
X150324819Y-122454762D02*
X150467676Y-122359524D01*
X150467676Y-122359524D02*
X150562914Y-122264286D01*
X150562914Y-122264286D02*
X150610533Y-122169048D01*
X116966666Y-109074819D02*
X117299999Y-108598628D01*
X117538094Y-109074819D02*
X117538094Y-108074819D01*
X117538094Y-108074819D02*
X117157142Y-108074819D01*
X117157142Y-108074819D02*
X117061904Y-108122438D01*
X117061904Y-108122438D02*
X117014285Y-108170057D01*
X117014285Y-108170057D02*
X116966666Y-108265295D01*
X116966666Y-108265295D02*
X116966666Y-108408152D01*
X116966666Y-108408152D02*
X117014285Y-108503390D01*
X117014285Y-108503390D02*
X117061904Y-108551009D01*
X117061904Y-108551009D02*
X117157142Y-108598628D01*
X117157142Y-108598628D02*
X117538094Y-108598628D01*
X116109523Y-108074819D02*
X116299999Y-108074819D01*
X116299999Y-108074819D02*
X116395237Y-108122438D01*
X116395237Y-108122438D02*
X116442856Y-108170057D01*
X116442856Y-108170057D02*
X116538094Y-108312914D01*
X116538094Y-108312914D02*
X116585713Y-108503390D01*
X116585713Y-108503390D02*
X116585713Y-108884342D01*
X116585713Y-108884342D02*
X116538094Y-108979580D01*
X116538094Y-108979580D02*
X116490475Y-109027200D01*
X116490475Y-109027200D02*
X116395237Y-109074819D01*
X116395237Y-109074819D02*
X116204761Y-109074819D01*
X116204761Y-109074819D02*
X116109523Y-109027200D01*
X116109523Y-109027200D02*
X116061904Y-108979580D01*
X116061904Y-108979580D02*
X116014285Y-108884342D01*
X116014285Y-108884342D02*
X116014285Y-108646247D01*
X116014285Y-108646247D02*
X116061904Y-108551009D01*
X116061904Y-108551009D02*
X116109523Y-108503390D01*
X116109523Y-108503390D02*
X116204761Y-108455771D01*
X116204761Y-108455771D02*
X116395237Y-108455771D01*
X116395237Y-108455771D02*
X116490475Y-108503390D01*
X116490475Y-108503390D02*
X116538094Y-108551009D01*
X116538094Y-108551009D02*
X116585713Y-108646247D01*
X107264285Y-121054819D02*
X107264285Y-120054819D01*
X107264285Y-120054819D02*
X107026190Y-120054819D01*
X107026190Y-120054819D02*
X106883333Y-120102438D01*
X106883333Y-120102438D02*
X106788095Y-120197676D01*
X106788095Y-120197676D02*
X106740476Y-120292914D01*
X106740476Y-120292914D02*
X106692857Y-120483390D01*
X106692857Y-120483390D02*
X106692857Y-120626247D01*
X106692857Y-120626247D02*
X106740476Y-120816723D01*
X106740476Y-120816723D02*
X106788095Y-120911961D01*
X106788095Y-120911961D02*
X106883333Y-121007200D01*
X106883333Y-121007200D02*
X107026190Y-121054819D01*
X107026190Y-121054819D02*
X107264285Y-121054819D01*
X105835714Y-120388152D02*
X105835714Y-121054819D01*
X106073809Y-120007200D02*
X106311904Y-120721485D01*
X106311904Y-120721485D02*
X105692857Y-120721485D01*
X105121428Y-120054819D02*
X105026190Y-120054819D01*
X105026190Y-120054819D02*
X104930952Y-120102438D01*
X104930952Y-120102438D02*
X104883333Y-120150057D01*
X104883333Y-120150057D02*
X104835714Y-120245295D01*
X104835714Y-120245295D02*
X104788095Y-120435771D01*
X104788095Y-120435771D02*
X104788095Y-120673866D01*
X104788095Y-120673866D02*
X104835714Y-120864342D01*
X104835714Y-120864342D02*
X104883333Y-120959580D01*
X104883333Y-120959580D02*
X104930952Y-121007200D01*
X104930952Y-121007200D02*
X105026190Y-121054819D01*
X105026190Y-121054819D02*
X105121428Y-121054819D01*
X105121428Y-121054819D02*
X105216666Y-121007200D01*
X105216666Y-121007200D02*
X105264285Y-120959580D01*
X105264285Y-120959580D02*
X105311904Y-120864342D01*
X105311904Y-120864342D02*
X105359523Y-120673866D01*
X105359523Y-120673866D02*
X105359523Y-120435771D01*
X105359523Y-120435771D02*
X105311904Y-120245295D01*
X105311904Y-120245295D02*
X105264285Y-120150057D01*
X105264285Y-120150057D02*
X105216666Y-120102438D01*
X105216666Y-120102438D02*
X105121428Y-120054819D01*
X253514285Y-70054819D02*
X253514285Y-69054819D01*
X253514285Y-69054819D02*
X253276190Y-69054819D01*
X253276190Y-69054819D02*
X253133333Y-69102438D01*
X253133333Y-69102438D02*
X253038095Y-69197676D01*
X253038095Y-69197676D02*
X252990476Y-69292914D01*
X252990476Y-69292914D02*
X252942857Y-69483390D01*
X252942857Y-69483390D02*
X252942857Y-69626247D01*
X252942857Y-69626247D02*
X252990476Y-69816723D01*
X252990476Y-69816723D02*
X253038095Y-69911961D01*
X253038095Y-69911961D02*
X253133333Y-70007200D01*
X253133333Y-70007200D02*
X253276190Y-70054819D01*
X253276190Y-70054819D02*
X253514285Y-70054819D01*
X251990476Y-70054819D02*
X252561904Y-70054819D01*
X252276190Y-70054819D02*
X252276190Y-69054819D01*
X252276190Y-69054819D02*
X252371428Y-69197676D01*
X252371428Y-69197676D02*
X252466666Y-69292914D01*
X252466666Y-69292914D02*
X252561904Y-69340533D01*
X251609523Y-69150057D02*
X251561904Y-69102438D01*
X251561904Y-69102438D02*
X251466666Y-69054819D01*
X251466666Y-69054819D02*
X251228571Y-69054819D01*
X251228571Y-69054819D02*
X251133333Y-69102438D01*
X251133333Y-69102438D02*
X251085714Y-69150057D01*
X251085714Y-69150057D02*
X251038095Y-69245295D01*
X251038095Y-69245295D02*
X251038095Y-69340533D01*
X251038095Y-69340533D02*
X251085714Y-69483390D01*
X251085714Y-69483390D02*
X251657142Y-70054819D01*
X251657142Y-70054819D02*
X251038095Y-70054819D01*
X145038094Y-70054819D02*
X145038094Y-69054819D01*
X145038094Y-69054819D02*
X144799999Y-69054819D01*
X144799999Y-69054819D02*
X144657142Y-69102438D01*
X144657142Y-69102438D02*
X144561904Y-69197676D01*
X144561904Y-69197676D02*
X144514285Y-69292914D01*
X144514285Y-69292914D02*
X144466666Y-69483390D01*
X144466666Y-69483390D02*
X144466666Y-69626247D01*
X144466666Y-69626247D02*
X144514285Y-69816723D01*
X144514285Y-69816723D02*
X144561904Y-69911961D01*
X144561904Y-69911961D02*
X144657142Y-70007200D01*
X144657142Y-70007200D02*
X144799999Y-70054819D01*
X144799999Y-70054819D02*
X145038094Y-70054819D01*
X143609523Y-69054819D02*
X143799999Y-69054819D01*
X143799999Y-69054819D02*
X143895237Y-69102438D01*
X143895237Y-69102438D02*
X143942856Y-69150057D01*
X143942856Y-69150057D02*
X144038094Y-69292914D01*
X144038094Y-69292914D02*
X144085713Y-69483390D01*
X144085713Y-69483390D02*
X144085713Y-69864342D01*
X144085713Y-69864342D02*
X144038094Y-69959580D01*
X144038094Y-69959580D02*
X143990475Y-70007200D01*
X143990475Y-70007200D02*
X143895237Y-70054819D01*
X143895237Y-70054819D02*
X143704761Y-70054819D01*
X143704761Y-70054819D02*
X143609523Y-70007200D01*
X143609523Y-70007200D02*
X143561904Y-69959580D01*
X143561904Y-69959580D02*
X143514285Y-69864342D01*
X143514285Y-69864342D02*
X143514285Y-69626247D01*
X143514285Y-69626247D02*
X143561904Y-69531009D01*
X143561904Y-69531009D02*
X143609523Y-69483390D01*
X143609523Y-69483390D02*
X143704761Y-69435771D01*
X143704761Y-69435771D02*
X143895237Y-69435771D01*
X143895237Y-69435771D02*
X143990475Y-69483390D01*
X143990475Y-69483390D02*
X144038094Y-69531009D01*
X144038094Y-69531009D02*
X144085713Y-69626247D01*
X181038094Y-70054819D02*
X181038094Y-69054819D01*
X181038094Y-69054819D02*
X180799999Y-69054819D01*
X180799999Y-69054819D02*
X180657142Y-69102438D01*
X180657142Y-69102438D02*
X180561904Y-69197676D01*
X180561904Y-69197676D02*
X180514285Y-69292914D01*
X180514285Y-69292914D02*
X180466666Y-69483390D01*
X180466666Y-69483390D02*
X180466666Y-69626247D01*
X180466666Y-69626247D02*
X180514285Y-69816723D01*
X180514285Y-69816723D02*
X180561904Y-69911961D01*
X180561904Y-69911961D02*
X180657142Y-70007200D01*
X180657142Y-70007200D02*
X180799999Y-70054819D01*
X180799999Y-70054819D02*
X181038094Y-70054819D01*
X179895237Y-69483390D02*
X179990475Y-69435771D01*
X179990475Y-69435771D02*
X180038094Y-69388152D01*
X180038094Y-69388152D02*
X180085713Y-69292914D01*
X180085713Y-69292914D02*
X180085713Y-69245295D01*
X180085713Y-69245295D02*
X180038094Y-69150057D01*
X180038094Y-69150057D02*
X179990475Y-69102438D01*
X179990475Y-69102438D02*
X179895237Y-69054819D01*
X179895237Y-69054819D02*
X179704761Y-69054819D01*
X179704761Y-69054819D02*
X179609523Y-69102438D01*
X179609523Y-69102438D02*
X179561904Y-69150057D01*
X179561904Y-69150057D02*
X179514285Y-69245295D01*
X179514285Y-69245295D02*
X179514285Y-69292914D01*
X179514285Y-69292914D02*
X179561904Y-69388152D01*
X179561904Y-69388152D02*
X179609523Y-69435771D01*
X179609523Y-69435771D02*
X179704761Y-69483390D01*
X179704761Y-69483390D02*
X179895237Y-69483390D01*
X179895237Y-69483390D02*
X179990475Y-69531009D01*
X179990475Y-69531009D02*
X180038094Y-69578628D01*
X180038094Y-69578628D02*
X180085713Y-69673866D01*
X180085713Y-69673866D02*
X180085713Y-69864342D01*
X180085713Y-69864342D02*
X180038094Y-69959580D01*
X180038094Y-69959580D02*
X179990475Y-70007200D01*
X179990475Y-70007200D02*
X179895237Y-70054819D01*
X179895237Y-70054819D02*
X179704761Y-70054819D01*
X179704761Y-70054819D02*
X179609523Y-70007200D01*
X179609523Y-70007200D02*
X179561904Y-69959580D01*
X179561904Y-69959580D02*
X179514285Y-69864342D01*
X179514285Y-69864342D02*
X179514285Y-69673866D01*
X179514285Y-69673866D02*
X179561904Y-69578628D01*
X179561904Y-69578628D02*
X179609523Y-69531009D01*
X179609523Y-69531009D02*
X179704761Y-69483390D01*
X201764285Y-121054819D02*
X201764285Y-120054819D01*
X201764285Y-120054819D02*
X201526190Y-120054819D01*
X201526190Y-120054819D02*
X201383333Y-120102438D01*
X201383333Y-120102438D02*
X201288095Y-120197676D01*
X201288095Y-120197676D02*
X201240476Y-120292914D01*
X201240476Y-120292914D02*
X201192857Y-120483390D01*
X201192857Y-120483390D02*
X201192857Y-120626247D01*
X201192857Y-120626247D02*
X201240476Y-120816723D01*
X201240476Y-120816723D02*
X201288095Y-120911961D01*
X201288095Y-120911961D02*
X201383333Y-121007200D01*
X201383333Y-121007200D02*
X201526190Y-121054819D01*
X201526190Y-121054819D02*
X201764285Y-121054819D01*
X200335714Y-120388152D02*
X200335714Y-121054819D01*
X200573809Y-120007200D02*
X200811904Y-120721485D01*
X200811904Y-120721485D02*
X200192857Y-120721485D01*
X199383333Y-120054819D02*
X199573809Y-120054819D01*
X199573809Y-120054819D02*
X199669047Y-120102438D01*
X199669047Y-120102438D02*
X199716666Y-120150057D01*
X199716666Y-120150057D02*
X199811904Y-120292914D01*
X199811904Y-120292914D02*
X199859523Y-120483390D01*
X199859523Y-120483390D02*
X199859523Y-120864342D01*
X199859523Y-120864342D02*
X199811904Y-120959580D01*
X199811904Y-120959580D02*
X199764285Y-121007200D01*
X199764285Y-121007200D02*
X199669047Y-121054819D01*
X199669047Y-121054819D02*
X199478571Y-121054819D01*
X199478571Y-121054819D02*
X199383333Y-121007200D01*
X199383333Y-121007200D02*
X199335714Y-120959580D01*
X199335714Y-120959580D02*
X199288095Y-120864342D01*
X199288095Y-120864342D02*
X199288095Y-120626247D01*
X199288095Y-120626247D02*
X199335714Y-120531009D01*
X199335714Y-120531009D02*
X199383333Y-120483390D01*
X199383333Y-120483390D02*
X199478571Y-120435771D01*
X199478571Y-120435771D02*
X199669047Y-120435771D01*
X199669047Y-120435771D02*
X199764285Y-120483390D01*
X199764285Y-120483390D02*
X199811904Y-120531009D01*
X199811904Y-120531009D02*
X199859523Y-120626247D01*
X145229580Y-121883333D02*
X145277200Y-121835714D01*
X145277200Y-121835714D02*
X145324819Y-121692857D01*
X145324819Y-121692857D02*
X145324819Y-121597619D01*
X145324819Y-121597619D02*
X145277200Y-121454762D01*
X145277200Y-121454762D02*
X145181961Y-121359524D01*
X145181961Y-121359524D02*
X145086723Y-121311905D01*
X145086723Y-121311905D02*
X144896247Y-121264286D01*
X144896247Y-121264286D02*
X144753390Y-121264286D01*
X144753390Y-121264286D02*
X144562914Y-121311905D01*
X144562914Y-121311905D02*
X144467676Y-121359524D01*
X144467676Y-121359524D02*
X144372438Y-121454762D01*
X144372438Y-121454762D02*
X144324819Y-121597619D01*
X144324819Y-121597619D02*
X144324819Y-121692857D01*
X144324819Y-121692857D02*
X144372438Y-121835714D01*
X144372438Y-121835714D02*
X144420057Y-121883333D01*
X145324819Y-122835714D02*
X145324819Y-122264286D01*
X145324819Y-122550000D02*
X144324819Y-122550000D01*
X144324819Y-122550000D02*
X144467676Y-122454762D01*
X144467676Y-122454762D02*
X144562914Y-122359524D01*
X144562914Y-122359524D02*
X144610533Y-122264286D01*
X114014285Y-87054819D02*
X114014285Y-86054819D01*
X114014285Y-86054819D02*
X113776190Y-86054819D01*
X113776190Y-86054819D02*
X113633333Y-86102438D01*
X113633333Y-86102438D02*
X113538095Y-86197676D01*
X113538095Y-86197676D02*
X113490476Y-86292914D01*
X113490476Y-86292914D02*
X113442857Y-86483390D01*
X113442857Y-86483390D02*
X113442857Y-86626247D01*
X113442857Y-86626247D02*
X113490476Y-86816723D01*
X113490476Y-86816723D02*
X113538095Y-86911961D01*
X113538095Y-86911961D02*
X113633333Y-87007200D01*
X113633333Y-87007200D02*
X113776190Y-87054819D01*
X113776190Y-87054819D02*
X114014285Y-87054819D01*
X112490476Y-87054819D02*
X113061904Y-87054819D01*
X112776190Y-87054819D02*
X112776190Y-86054819D01*
X112776190Y-86054819D02*
X112871428Y-86197676D01*
X112871428Y-86197676D02*
X112966666Y-86292914D01*
X112966666Y-86292914D02*
X113061904Y-86340533D01*
X111633333Y-86054819D02*
X111823809Y-86054819D01*
X111823809Y-86054819D02*
X111919047Y-86102438D01*
X111919047Y-86102438D02*
X111966666Y-86150057D01*
X111966666Y-86150057D02*
X112061904Y-86292914D01*
X112061904Y-86292914D02*
X112109523Y-86483390D01*
X112109523Y-86483390D02*
X112109523Y-86864342D01*
X112109523Y-86864342D02*
X112061904Y-86959580D01*
X112061904Y-86959580D02*
X112014285Y-87007200D01*
X112014285Y-87007200D02*
X111919047Y-87054819D01*
X111919047Y-87054819D02*
X111728571Y-87054819D01*
X111728571Y-87054819D02*
X111633333Y-87007200D01*
X111633333Y-87007200D02*
X111585714Y-86959580D01*
X111585714Y-86959580D02*
X111538095Y-86864342D01*
X111538095Y-86864342D02*
X111538095Y-86626247D01*
X111538095Y-86626247D02*
X111585714Y-86531009D01*
X111585714Y-86531009D02*
X111633333Y-86483390D01*
X111633333Y-86483390D02*
X111728571Y-86435771D01*
X111728571Y-86435771D02*
X111919047Y-86435771D01*
X111919047Y-86435771D02*
X112014285Y-86483390D01*
X112014285Y-86483390D02*
X112061904Y-86531009D01*
X112061904Y-86531009D02*
X112109523Y-86626247D01*
%TO.C,D45*%
D12*
X269600000Y-70300000D02*
X271560000Y-70300000D01*
X269600000Y-71500000D02*
X271560000Y-71500000D01*
X271560000Y-70300000D02*
X271560000Y-71500000D01*
%TO.C,D3*%
X89600000Y-70300000D02*
X91560000Y-70300000D01*
X89600000Y-71500000D02*
X91560000Y-71500000D01*
X91560000Y-70300000D02*
X91560000Y-71500000D01*
%TO.C,C13*%
X125665580Y-112040000D02*
X125384420Y-112040000D01*
X125665580Y-113060000D02*
X125384420Y-113060000D01*
%TO.C,L2*%
X154637221Y-117290000D02*
X154962779Y-117290000D01*
X154637221Y-118310000D02*
X154962779Y-118310000D01*
%TO.C,D31*%
X193100000Y-104300000D02*
X195060000Y-104300000D01*
X193100000Y-105500000D02*
X195060000Y-105500000D01*
X195060000Y-104300000D02*
X195060000Y-105500000D01*
%TO.C,D10*%
X215600000Y-70300000D02*
X217560000Y-70300000D01*
X215600000Y-71500000D02*
X217560000Y-71500000D01*
X217560000Y-70300000D02*
X217560000Y-71500000D01*
%TO.C,C15*%
X141715580Y-114290000D02*
X141434420Y-114290000D01*
X141715580Y-115310000D02*
X141434420Y-115310000D01*
%TO.C,D35*%
X35600000Y-70300000D02*
X37560000Y-70300000D01*
X35600000Y-71500000D02*
X37560000Y-71500000D01*
X37560000Y-70300000D02*
X37560000Y-71500000D01*
%TO.C,D15*%
X94100000Y-87300000D02*
X96060000Y-87300000D01*
X94100000Y-88500000D02*
X96060000Y-88500000D01*
X96060000Y-87300000D02*
X96060000Y-88500000D01*
%TO.C,D34*%
X249350000Y-104300000D02*
X251310000Y-104300000D01*
X249350000Y-105500000D02*
X251310000Y-105500000D01*
X251310000Y-104300000D02*
X251310000Y-105500000D01*
%TO.C,C14*%
X174909420Y-120540000D02*
X175190580Y-120540000D01*
X174909420Y-121560000D02*
X175190580Y-121560000D01*
%TO.C,Y1*%
X140550000Y-122900000D02*
X140550000Y-120100000D01*
X142950000Y-122900000D02*
X140550000Y-122900000D01*
%TO.C,L3*%
X146290000Y-109099721D02*
X146290000Y-109425279D01*
X147310000Y-109099721D02*
X147310000Y-109425279D01*
%TO.C,L4*%
X144540000Y-109425279D02*
X144540000Y-109099721D01*
X145560000Y-109425279D02*
X145560000Y-109099721D01*
%TO.C,D37*%
X42350000Y-104300000D02*
X44310000Y-104300000D01*
X42350000Y-105500000D02*
X44310000Y-105500000D01*
X44310000Y-104300000D02*
X44310000Y-105500000D01*
%TO.C,D13*%
X58100000Y-87300000D02*
X60060000Y-87300000D01*
X58100000Y-88500000D02*
X60060000Y-88500000D01*
X60060000Y-87300000D02*
X60060000Y-88500000D01*
%TO.C,D26*%
X103100000Y-104300000D02*
X105060000Y-104300000D01*
X103100000Y-105500000D02*
X105060000Y-105500000D01*
X105060000Y-104300000D02*
X105060000Y-105500000D01*
%TO.C,D17*%
X130100000Y-87300000D02*
X132060000Y-87300000D01*
X130100000Y-88500000D02*
X132060000Y-88500000D01*
X132060000Y-87300000D02*
X132060000Y-88500000D01*
%TO.C,D11*%
X233600000Y-70300000D02*
X235560000Y-70300000D01*
X233600000Y-71500000D02*
X235560000Y-71500000D01*
X235560000Y-70300000D02*
X235560000Y-71500000D01*
%TO.C,D1*%
X53600000Y-70300000D02*
X55560000Y-70300000D01*
X53600000Y-71500000D02*
X55560000Y-71500000D01*
X55560000Y-70300000D02*
X55560000Y-71500000D01*
%TO.C,D32*%
X211100000Y-104300000D02*
X213060000Y-104300000D01*
X211100000Y-105500000D02*
X213060000Y-105500000D01*
X213060000Y-104300000D02*
X213060000Y-105500000D01*
%TO.C,R7*%
X125762258Y-109527500D02*
X125287742Y-109527500D01*
X125762258Y-110572500D02*
X125287742Y-110572500D01*
%TO.C,C12*%
X116940580Y-112040000D02*
X116659420Y-112040000D01*
X116940580Y-113060000D02*
X116659420Y-113060000D01*
%TO.C,U1*%
X144558903Y-115737500D02*
X144859423Y-116038020D01*
X144859423Y-115436980D02*
X144558903Y-115737500D01*
X147949480Y-119128077D02*
X148250000Y-119428597D01*
X148250000Y-112046403D02*
X147949480Y-112346923D01*
X148250000Y-119428597D02*
X148550520Y-119128077D01*
X148550520Y-112346923D02*
X148250000Y-112046403D01*
X151640577Y-116038020D02*
X151941097Y-115737500D01*
X151941097Y-115737500D02*
X151640577Y-115436980D01*
X149176310Y-112265606D02*
X149579361Y-112201966D01*
X149239949Y-111862555D01*
X149176310Y-112265606D01*
G36*
X149579361Y-112201966D02*
G01*
X149176310Y-112265606D01*
X149239949Y-111862555D01*
X149579361Y-112201966D01*
G37*
%TO.C,C5*%
X150040000Y-121909420D02*
X150040000Y-122190580D01*
X151060000Y-121909420D02*
X151060000Y-122190580D01*
%TO.C,R3*%
X250937742Y-75777500D02*
X251412258Y-75777500D01*
X250937742Y-76822500D02*
X251412258Y-76822500D01*
%TO.C,D27*%
X121100000Y-104300000D02*
X123060000Y-104300000D01*
X121100000Y-105500000D02*
X123060000Y-105500000D01*
X123060000Y-104300000D02*
X123060000Y-105500000D01*
%TO.C,D38*%
X58100000Y-121300000D02*
X60060000Y-121300000D01*
X58100000Y-122500000D02*
X60060000Y-122500000D01*
X60060000Y-121300000D02*
X60060000Y-122500000D01*
%TO.C,D18*%
X148100000Y-87300000D02*
X150060000Y-87300000D01*
X148100000Y-88500000D02*
X150060000Y-88500000D01*
X150060000Y-87300000D02*
X150060000Y-88500000D01*
%TO.C,U2*%
X120252500Y-109690000D02*
X120252500Y-109740000D01*
X120252500Y-112760000D02*
X120252500Y-112810000D01*
X120252500Y-112810000D02*
X122072500Y-112810000D01*
X122072500Y-109690000D02*
X120252500Y-109690000D01*
X122072500Y-109740000D02*
X122072500Y-109690000D01*
X122072500Y-112810000D02*
X122072500Y-112760000D01*
X122612500Y-109740000D02*
X122852500Y-109410000D01*
X122372500Y-109410000D01*
X122612500Y-109740000D01*
G36*
X122612500Y-109740000D02*
G01*
X122372500Y-109410000D01*
X122852500Y-109410000D01*
X122612500Y-109740000D01*
G37*
%TO.C,D48*%
X247100000Y-121300000D02*
X249060000Y-121300000D01*
X247100000Y-122500000D02*
X249060000Y-122500000D01*
X249060000Y-121300000D02*
X249060000Y-122500000D01*
%TO.C,J1*%
X269185000Y-73650000D02*
X270040000Y-73650000D01*
X269185000Y-82810000D02*
X270040000Y-82810000D01*
X273160000Y-73650000D02*
X274110000Y-73650000D01*
X273160000Y-82810000D02*
X274110000Y-82810000D01*
X274110000Y-73650000D02*
X274110000Y-82810000D01*
%TO.C,D5*%
X125600000Y-70300000D02*
X127560000Y-70300000D01*
X125600000Y-71500000D02*
X127560000Y-71500000D01*
X127560000Y-70300000D02*
X127560000Y-71500000D01*
%TO.C,L5*%
X174924721Y-118790000D02*
X175250279Y-118790000D01*
X174924721Y-119810000D02*
X175250279Y-119810000D01*
%TO.C,D29*%
X157100000Y-104300000D02*
X159060000Y-104300000D01*
X157100000Y-105500000D02*
X159060000Y-105500000D01*
X159060000Y-104300000D02*
X159060000Y-105500000D01*
%TO.C,D28*%
X139100000Y-104300000D02*
X141060000Y-104300000D01*
X139100000Y-105500000D02*
X141060000Y-105500000D01*
X141060000Y-104300000D02*
X141060000Y-105500000D01*
%TO.C,D43*%
X269600000Y-104300000D02*
X271560000Y-104300000D01*
X269600000Y-105500000D02*
X271560000Y-105500000D01*
X271560000Y-104300000D02*
X271560000Y-105500000D01*
%TO.C,AE1*%
X177690000Y-122390000D02*
X181600000Y-122390000D01*
X177690000Y-124710000D02*
X177690000Y-122390000D01*
X181600000Y-124710000D02*
X177690000Y-124710000D01*
%TO.C,R1*%
X251412258Y-78027500D02*
X250937742Y-78027500D01*
X251412258Y-79072500D02*
X250937742Y-79072500D01*
%TO.C,D7*%
X161600000Y-70300000D02*
X163560000Y-70300000D01*
X161600000Y-71500000D02*
X163560000Y-71500000D01*
X163560000Y-70300000D02*
X163560000Y-71500000D01*
%TO.C,D2*%
X71600000Y-70300000D02*
X73560000Y-70300000D01*
X71600000Y-71500000D02*
X73560000Y-71500000D01*
X73560000Y-70300000D02*
X73560000Y-71500000D01*
%TO.C,D39*%
X78350000Y-121300000D02*
X80310000Y-121300000D01*
X78350000Y-122500000D02*
X80310000Y-122500000D01*
X80310000Y-121300000D02*
X80310000Y-122500000D01*
%TO.C,D20*%
X184100000Y-87300000D02*
X186060000Y-87300000D01*
X184100000Y-88500000D02*
X186060000Y-88500000D01*
X186060000Y-87300000D02*
X186060000Y-88500000D01*
%TO.C,C8*%
X141690580Y-118040000D02*
X141409420Y-118040000D01*
X141690580Y-119060000D02*
X141409420Y-119060000D01*
%TO.C,C4*%
X154684420Y-113540000D02*
X154965580Y-113540000D01*
X154684420Y-114560000D02*
X154965580Y-114560000D01*
%TO.C,C11*%
X154659420Y-109790000D02*
X154940580Y-109790000D01*
X154659420Y-110810000D02*
X154940580Y-110810000D01*
%TO.C,D25*%
X85100000Y-104300000D02*
X87060000Y-104300000D01*
X85100000Y-105500000D02*
X87060000Y-105500000D01*
X87060000Y-104300000D02*
X87060000Y-105500000D01*
%TO.C,D4*%
X107600000Y-70300000D02*
X109560000Y-70300000D01*
X107600000Y-71500000D02*
X109560000Y-71500000D01*
X109560000Y-70300000D02*
X109560000Y-71500000D01*
%TO.C,C10*%
X148040000Y-121909420D02*
X148040000Y-122190580D01*
X149060000Y-121909420D02*
X149060000Y-122190580D01*
%TO.C,D30*%
X175100000Y-104300000D02*
X177060000Y-104300000D01*
X175100000Y-105500000D02*
X177060000Y-105500000D01*
X177060000Y-104300000D02*
X177060000Y-105500000D01*
%TO.C,D36*%
X37850000Y-87300000D02*
X39810000Y-87300000D01*
X37850000Y-88500000D02*
X39810000Y-88500000D01*
X39810000Y-87300000D02*
X39810000Y-88500000D01*
%TO.C,D21*%
X202100000Y-87300000D02*
X204060000Y-87300000D01*
X202100000Y-88500000D02*
X204060000Y-88500000D01*
X204060000Y-87300000D02*
X204060000Y-88500000D01*
%TO.C,D19*%
X166100000Y-87300000D02*
X168060000Y-87300000D01*
X166100000Y-88500000D02*
X168060000Y-88500000D01*
X168060000Y-87300000D02*
X168060000Y-88500000D01*
%TO.C,D14*%
X76100000Y-87300000D02*
X78060000Y-87300000D01*
X76100000Y-88500000D02*
X78060000Y-88500000D01*
X78060000Y-87300000D02*
X78060000Y-88500000D01*
%TO.C,C17*%
X148290000Y-109440580D02*
X148290000Y-109159420D01*
X149310000Y-109440580D02*
X149310000Y-109159420D01*
%TO.C,D23*%
X238100000Y-87300000D02*
X240060000Y-87300000D01*
X238100000Y-88500000D02*
X240060000Y-88500000D01*
X240060000Y-87300000D02*
X240060000Y-88500000D01*
%TO.C,C6*%
X154659420Y-119040000D02*
X154940580Y-119040000D01*
X154659420Y-120060000D02*
X154940580Y-120060000D01*
%TO.C,D42*%
X168350000Y-121300000D02*
X170310000Y-121300000D01*
X168350000Y-122500000D02*
X170310000Y-122500000D01*
X170310000Y-121300000D02*
X170310000Y-122500000D01*
%TO.C,D41*%
X136850000Y-121300000D02*
X138810000Y-121300000D01*
X136850000Y-122500000D02*
X138810000Y-122500000D01*
X138810000Y-121300000D02*
X138810000Y-122500000D01*
%TO.C,C2*%
X144040000Y-121909420D02*
X144040000Y-122190580D01*
X145060000Y-121909420D02*
X145060000Y-122190580D01*
%TO.C,C7*%
X154684420Y-115540000D02*
X154965580Y-115540000D01*
X154684420Y-116560000D02*
X154965580Y-116560000D01*
%TO.C,D33*%
X229100000Y-104300000D02*
X231060000Y-104300000D01*
X229100000Y-105500000D02*
X231060000Y-105500000D01*
X231060000Y-104300000D02*
X231060000Y-105500000D01*
%TO.C,C9*%
X141690580Y-116290000D02*
X141409420Y-116290000D01*
X141690580Y-117310000D02*
X141409420Y-117310000D01*
%TO.C,L6*%
X178027500Y-120349721D02*
X178027500Y-120675279D01*
X179047500Y-120349721D02*
X179047500Y-120675279D01*
%TO.C,C16*%
X153540000Y-121909420D02*
X153540000Y-122190580D01*
X154560000Y-121909420D02*
X154560000Y-122190580D01*
%TO.C,C3*%
X154684420Y-111790000D02*
X154965580Y-111790000D01*
X154684420Y-112810000D02*
X154965580Y-112810000D01*
%TO.C,SW49*%
D13*
X270930000Y-88300000D02*
X270930000Y-89800000D01*
X271976000Y-86450000D02*
X272484000Y-86450000D01*
X271976000Y-93150000D02*
X272484000Y-93150000D01*
X273530000Y-86970000D02*
X273530000Y-92630000D01*
D14*
X269259000Y-87471000D02*
G75*
G02*
X269059000Y-87471000I-100000J0D01*
G01*
X269059000Y-87471000D02*
G75*
G02*
X269259000Y-87471000I100000J0D01*
G01*
%TO.C,C18*%
D12*
X150290000Y-109440580D02*
X150290000Y-109159420D01*
X151310000Y-109440580D02*
X151310000Y-109159420D01*
%TO.C,D24*%
X67100000Y-104300000D02*
X69060000Y-104300000D01*
X67100000Y-105500000D02*
X69060000Y-105500000D01*
X69060000Y-104300000D02*
X69060000Y-105500000D01*
%TO.C,D44*%
X262850000Y-87300000D02*
X264810000Y-87300000D01*
X262850000Y-88500000D02*
X264810000Y-88500000D01*
X264810000Y-87300000D02*
X264810000Y-88500000D01*
%TO.C,D22*%
X220100000Y-87300000D02*
X222060000Y-87300000D01*
X220100000Y-88500000D02*
X222060000Y-88500000D01*
X222060000Y-87300000D02*
X222060000Y-88500000D01*
%TO.C,R4*%
X251412258Y-82027500D02*
X250937742Y-82027500D01*
X251412258Y-83072500D02*
X250937742Y-83072500D01*
%TO.C,D47*%
X226850000Y-121300000D02*
X228810000Y-121300000D01*
X226850000Y-122500000D02*
X228810000Y-122500000D01*
X228810000Y-121300000D02*
X228810000Y-122500000D01*
%TO.C,D9*%
X197600000Y-70300000D02*
X199560000Y-70300000D01*
X197600000Y-71500000D02*
X199560000Y-71500000D01*
X199560000Y-70300000D02*
X199560000Y-71500000D01*
%TO.C,R2*%
X250937742Y-79777500D02*
X251412258Y-79777500D01*
X250937742Y-80822500D02*
X251412258Y-80822500D01*
%TO.C,L1*%
X151790000Y-121887221D02*
X151790000Y-122212779D01*
X152810000Y-121887221D02*
X152810000Y-122212779D01*
%TO.C,R6*%
X117037258Y-109527500D02*
X116562742Y-109527500D01*
X117037258Y-110572500D02*
X116562742Y-110572500D01*
%TO.C,D40*%
X105350000Y-121300000D02*
X107310000Y-121300000D01*
X105350000Y-122500000D02*
X107310000Y-122500000D01*
X107310000Y-121300000D02*
X107310000Y-122500000D01*
%TO.C,D12*%
X251600000Y-70300000D02*
X253560000Y-70300000D01*
X251600000Y-71500000D02*
X253560000Y-71500000D01*
X253560000Y-70300000D02*
X253560000Y-71500000D01*
%TO.C,D6*%
X143600000Y-70300000D02*
X145560000Y-70300000D01*
X143600000Y-71500000D02*
X145560000Y-71500000D01*
X145560000Y-70300000D02*
X145560000Y-71500000D01*
%TO.C,D8*%
X179600000Y-70300000D02*
X181560000Y-70300000D01*
X179600000Y-71500000D02*
X181560000Y-71500000D01*
X181560000Y-70300000D02*
X181560000Y-71500000D01*
%TO.C,D46*%
X199850000Y-121300000D02*
X201810000Y-121300000D01*
X199850000Y-122500000D02*
X201810000Y-122500000D01*
X201810000Y-121300000D02*
X201810000Y-122500000D01*
%TO.C,C1*%
X145790000Y-121909420D02*
X145790000Y-122190580D01*
X146810000Y-121909420D02*
X146810000Y-122190580D01*
%TO.C,D16*%
X112100000Y-87300000D02*
X114060000Y-87300000D01*
X112100000Y-88500000D02*
X114060000Y-88500000D01*
X114060000Y-87300000D02*
X114060000Y-88500000D01*
%TD*%
M02*
