%TF.GenerationSoftware,KiCad,Pcbnew,10.0.5*%
%TF.CreationDate,2026-09-05T16:53:24-07:00*%
%TF.ProjectId,flinx,666c696e-782e-46b6-9963-61645f706362,rev?*%
%TF.SameCoordinates,Original*%
%TF.FileFunction,Copper,L1,Top*%
%TF.FilePolarity,Positive*%
%FSLAX46Y46*%
G04 Gerber Fmt 4.6, Leading zero omitted, Abs format (unit mm)*
G04 Created by KiCad (PCBNEW 10.0.5) date 2026-09-05 16:53:24*
%MOMM*%
%LPD*%
G01*
G04 APERTURE LIST*
%TA.AperFunction,ComponentPad*%
%ADD10C,2.600000*%
%TD*%
%TA.AperFunction,ComponentPad*%
%ADD11C,2.200000*%
%TD*%
%TA.AperFunction,ComponentPad*%
%ADD12O,2.600000X1.300000*%
%TD*%
%TA.AperFunction,ComponentPad*%
%ADD13O,2.300000X1.300000*%
%TD*%
%TA.AperFunction,ViaPad*%
%ADD14C,0.600000*%
%TD*%
%TA.AperFunction,Conductor*%
%ADD15C,0.200000*%
%TD*%
G04 APERTURE END LIST*
D10*
%TO.P,SW30,*%
%TO.N,*%
X75800000Y-104850000D03*
D11*
%TO.P,SW30,1,1_1*%
%TO.N,Net-(D25-K)*%
X80800000Y-93800000D03*
%TO.P,SW30,2,2_2*%
%TO.N,R3*%
X85800000Y-95900000D03*
%TD*%
D10*
%TO.P,SW10,*%
%TO.N,*%
X188300000Y-70850000D03*
D11*
%TO.P,SW10,1,1_1*%
%TO.N,Net-(D9-K)*%
X193300000Y-59800000D03*
%TO.P,SW10,2,2_2*%
%TO.N,R1*%
X198300000Y-61900000D03*
%TD*%
D10*
%TO.P,SW18,*%
%TO.N,*%
X84800000Y-87850000D03*
D11*
%TO.P,SW18,1,1_1*%
%TO.N,Net-(D15-K)*%
X89800000Y-76800000D03*
%TO.P,SW18,2,2_2*%
%TO.N,R2*%
X94800000Y-78900000D03*
%TD*%
D10*
%TO.P,SW1,*%
%TO.N,*%
X26300000Y-70850000D03*
D11*
%TO.P,SW1,1,1_1*%
%TO.N,Net-(D35-K)*%
X31300000Y-59800000D03*
%TO.P,SW1,2,2_2*%
%TO.N,R4*%
X36300000Y-61900000D03*
%TD*%
D10*
%TO.P,SW25,*%
%TO.N,*%
X210800000Y-87850000D03*
D11*
%TO.P,SW25,1,1_1*%
%TO.N,Net-(D22-K)*%
X215800000Y-76800000D03*
%TO.P,SW25,2,2_2*%
%TO.N,R2*%
X220800000Y-78900000D03*
%TD*%
D10*
%TO.P,SW5,*%
%TO.N,*%
X98300000Y-70850000D03*
D11*
%TO.P,SW5,1,1_1*%
%TO.N,Net-(D4-K)*%
X103300000Y-59800000D03*
%TO.P,SW5,2,2_2*%
%TO.N,R1*%
X108300000Y-61900000D03*
%TD*%
D10*
%TO.P,SW15,*%
%TO.N,*%
X28550000Y-87850000D03*
D11*
%TO.P,SW15,1,1_1*%
%TO.N,Net-(D36-K)*%
X33550000Y-76800000D03*
%TO.P,SW15,2,2_2*%
%TO.N,R4*%
X38550000Y-78900000D03*
%TD*%
D10*
%TO.P,SW13,*%
%TO.N,*%
X242300000Y-70850000D03*
D11*
%TO.P,SW13,1,1_1*%
%TO.N,Net-(D12-K)*%
X247300000Y-59800000D03*
%TO.P,SW13,2,2_2*%
%TO.N,R1*%
X252300000Y-61900000D03*
%TD*%
D10*
%TO.P,SW27,*%
%TO.N,*%
X253550000Y-87850000D03*
D11*
%TO.P,SW27,1,1_1*%
%TO.N,Net-(D44-K)*%
X258550000Y-76800000D03*
%TO.P,SW27,2,2_2*%
%TO.N,R2*%
X263550000Y-78900000D03*
%TD*%
D10*
%TO.P,SW2,*%
%TO.N,*%
X44300000Y-70850000D03*
D11*
%TO.P,SW2,1,1_1*%
%TO.N,Net-(D1-K)*%
X49300000Y-59800000D03*
%TO.P,SW2,2,2_2*%
%TO.N,R1*%
X54300000Y-61900000D03*
%TD*%
D10*
%TO.P,SW22,*%
%TO.N,*%
X156800000Y-87850000D03*
D11*
%TO.P,SW22,1,1_1*%
%TO.N,Net-(D19-K)*%
X161800000Y-76800000D03*
%TO.P,SW22,2,2_2*%
%TO.N,R2*%
X166800000Y-78900000D03*
%TD*%
D10*
%TO.P,SW29,*%
%TO.N,*%
X57800000Y-104850000D03*
D11*
%TO.P,SW29,1,1_1*%
%TO.N,Net-(D24-K)*%
X62800000Y-93800000D03*
%TO.P,SW29,2,2_2*%
%TO.N,R3*%
X67800000Y-95900000D03*
%TD*%
D10*
%TO.P,SW19,*%
%TO.N,*%
X102800000Y-87850000D03*
D11*
%TO.P,SW19,1,1_1*%
%TO.N,Net-(D16-K)*%
X107800000Y-76800000D03*
%TO.P,SW19,2,2_2*%
%TO.N,R2*%
X112800000Y-78900000D03*
%TD*%
D10*
%TO.P,SW32,*%
%TO.N,*%
X111800000Y-104850000D03*
D11*
%TO.P,SW32,1,1_1*%
%TO.N,Net-(D27-K)*%
X116800000Y-93800000D03*
%TO.P,SW32,2,2_2*%
%TO.N,R3*%
X121800000Y-95900000D03*
%TD*%
D10*
%TO.P,SW28,*%
%TO.N,*%
X33050000Y-104850000D03*
D11*
%TO.P,SW28,1,1_1*%
%TO.N,Net-(D37-K)*%
X38050000Y-93800000D03*
%TO.P,SW28,2,2_2*%
%TO.N,R3*%
X43050000Y-95900000D03*
%TD*%
D10*
%TO.P,SW47,*%
%TO.N,*%
X217550000Y-121850000D03*
D11*
%TO.P,SW47,1,1_1*%
%TO.N,Net-(D47-K)*%
X222550000Y-110800000D03*
%TO.P,SW47,2,2_2*%
%TO.N,R4*%
X227550000Y-112900000D03*
%TD*%
D10*
%TO.P,SW4,*%
%TO.N,*%
X80300000Y-70850000D03*
D11*
%TO.P,SW4,1,1_1*%
%TO.N,Net-(D3-K)*%
X85300000Y-59800000D03*
%TO.P,SW4,2,2_2*%
%TO.N,R1*%
X90300000Y-61900000D03*
%TD*%
D10*
%TO.P,SW48,*%
%TO.N,*%
X237800000Y-121850000D03*
D11*
%TO.P,SW48,1,1_1*%
%TO.N,Net-(D48-K)*%
X242800000Y-110800000D03*
%TO.P,SW48,2,2_2*%
%TO.N,R4*%
X247800000Y-112900000D03*
%TD*%
D10*
%TO.P,SW31,*%
%TO.N,*%
X93800000Y-104850000D03*
D11*
%TO.P,SW31,1,1_1*%
%TO.N,Net-(D26-K)*%
X98800000Y-93800000D03*
%TO.P,SW31,2,2_2*%
%TO.N,R3*%
X103800000Y-95900000D03*
%TD*%
D10*
%TO.P,SW21,*%
%TO.N,*%
X138800000Y-87850000D03*
D11*
%TO.P,SW21,1,1_1*%
%TO.N,Net-(D18-K)*%
X143800000Y-76800000D03*
%TO.P,SW21,2,2_2*%
%TO.N,R2*%
X148800000Y-78900000D03*
%TD*%
D10*
%TO.P,SW33,*%
%TO.N,*%
X129800000Y-104850000D03*
D11*
%TO.P,SW33,1,1_1*%
%TO.N,Net-(D28-K)*%
X134800000Y-93800000D03*
%TO.P,SW33,2,2_2*%
%TO.N,R3*%
X139800000Y-95900000D03*
%TD*%
D10*
%TO.P,SW26,*%
%TO.N,*%
X228800000Y-87850000D03*
D11*
%TO.P,SW26,1,1_1*%
%TO.N,Net-(D23-K)*%
X233800000Y-76800000D03*
%TO.P,SW26,2,2_2*%
%TO.N,R2*%
X238800000Y-78900000D03*
%TD*%
D10*
%TO.P,SW46,*%
%TO.N,*%
X190550000Y-121850000D03*
D11*
%TO.P,SW46,1,1_1*%
%TO.N,Net-(D46-K)*%
X195550000Y-110800000D03*
%TO.P,SW46,2,2_2*%
%TO.N,R4*%
X200550000Y-112900000D03*
%TD*%
D10*
%TO.P,SW9,*%
%TO.N,*%
X170300000Y-70850000D03*
D11*
%TO.P,SW9,1,1_1*%
%TO.N,Net-(D8-K)*%
X175300000Y-59800000D03*
%TO.P,SW9,2,2_2*%
%TO.N,R1*%
X180300000Y-61900000D03*
%TD*%
D10*
%TO.P,SW12,*%
%TO.N,*%
X224300000Y-70850000D03*
D11*
%TO.P,SW12,1,1_1*%
%TO.N,Net-(D11-K)*%
X229300000Y-59800000D03*
%TO.P,SW12,2,2_2*%
%TO.N,R1*%
X234300000Y-61900000D03*
%TD*%
D10*
%TO.P,SW24,*%
%TO.N,*%
X192800000Y-87850000D03*
D11*
%TO.P,SW24,1,1_1*%
%TO.N,Net-(D21-K)*%
X197800000Y-76800000D03*
%TO.P,SW24,2,2_2*%
%TO.N,R2*%
X202800000Y-78900000D03*
%TD*%
D10*
%TO.P,SW39,*%
%TO.N,*%
X240050000Y-104850000D03*
D11*
%TO.P,SW39,1,1_1*%
%TO.N,Net-(D34-K)*%
X245050000Y-93800000D03*
%TO.P,SW39,2,2_2*%
%TO.N,R3*%
X250050000Y-95900000D03*
%TD*%
D10*
%TO.P,SW23,*%
%TO.N,*%
X174800000Y-87850000D03*
D11*
%TO.P,SW23,1,1_1*%
%TO.N,Net-(D20-K)*%
X179800000Y-76800000D03*
%TO.P,SW23,2,2_2*%
%TO.N,R2*%
X184800000Y-78900000D03*
%TD*%
D10*
%TO.P,SW42,*%
%TO.N,*%
X69050000Y-121850000D03*
D11*
%TO.P,SW42,1,1_1*%
%TO.N,Net-(D39-K)*%
X74050000Y-110800000D03*
%TO.P,SW42,2,2_2*%
%TO.N,R4*%
X79050000Y-112900000D03*
%TD*%
D10*
%TO.P,SW8,*%
%TO.N,*%
X152300000Y-70850000D03*
D11*
%TO.P,SW8,1,1_1*%
%TO.N,Net-(D7-K)*%
X157300000Y-59800000D03*
%TO.P,SW8,2,2_2*%
%TO.N,R1*%
X162300000Y-61900000D03*
%TD*%
D10*
%TO.P,SW6,*%
%TO.N,*%
X116300000Y-70850000D03*
D11*
%TO.P,SW6,1,1_1*%
%TO.N,Net-(D5-K)*%
X121300000Y-59800000D03*
%TO.P,SW6,2,2_2*%
%TO.N,R1*%
X126300000Y-61900000D03*
%TD*%
D10*
%TO.P,SW17,*%
%TO.N,*%
X66800000Y-87850000D03*
D11*
%TO.P,SW17,1,1_1*%
%TO.N,Net-(D14-K)*%
X71800000Y-76800000D03*
%TO.P,SW17,2,2_2*%
%TO.N,R2*%
X76800000Y-78900000D03*
%TD*%
D10*
%TO.P,SW34,*%
%TO.N,*%
X147800000Y-104850000D03*
D11*
%TO.P,SW34,1,1_1*%
%TO.N,Net-(D29-K)*%
X152800000Y-93800000D03*
%TO.P,SW34,2,2_2*%
%TO.N,R3*%
X157800000Y-95900000D03*
%TD*%
D10*
%TO.P,SW43,*%
%TO.N,*%
X96050000Y-121850000D03*
D11*
%TO.P,SW43,1,1_1*%
%TO.N,Net-(D40-K)*%
X101050000Y-110800000D03*
%TO.P,SW43,2,2_2*%
%TO.N,R4*%
X106050000Y-112900000D03*
%TD*%
D10*
%TO.P,SW3,*%
%TO.N,*%
X62300000Y-70850000D03*
D11*
%TO.P,SW3,1,1_1*%
%TO.N,Net-(D2-K)*%
X67300000Y-59800000D03*
%TO.P,SW3,2,2_2*%
%TO.N,R1*%
X72300000Y-61900000D03*
%TD*%
D10*
%TO.P,SW36,*%
%TO.N,*%
X183800000Y-104850000D03*
D11*
%TO.P,SW36,1,1_1*%
%TO.N,Net-(D31-K)*%
X188800000Y-93800000D03*
%TO.P,SW36,2,2_2*%
%TO.N,R3*%
X193800000Y-95900000D03*
%TD*%
D10*
%TO.P,SW7,*%
%TO.N,*%
X134300000Y-70850000D03*
D11*
%TO.P,SW7,1,1_1*%
%TO.N,Net-(D6-K)*%
X139300000Y-59800000D03*
%TO.P,SW7,2,2_2*%
%TO.N,R1*%
X144300000Y-61900000D03*
%TD*%
D10*
%TO.P,SW14,*%
%TO.N,*%
X260300000Y-70850000D03*
D11*
%TO.P,SW14,1,1_1*%
%TO.N,Net-(D45-K)*%
X265300000Y-59800000D03*
%TO.P,SW14,2,2_2*%
%TO.N,R4*%
X270300000Y-61900000D03*
%TD*%
D10*
%TO.P,SW37,*%
%TO.N,*%
X201800000Y-104850000D03*
D11*
%TO.P,SW37,1,1_1*%
%TO.N,Net-(D32-K)*%
X206800000Y-93800000D03*
%TO.P,SW37,2,2_2*%
%TO.N,R3*%
X211800000Y-95900000D03*
%TD*%
D10*
%TO.P,SW11,*%
%TO.N,*%
X206300000Y-70850000D03*
D11*
%TO.P,SW11,1,1_1*%
%TO.N,Net-(D10-K)*%
X211300000Y-59800000D03*
%TO.P,SW11,2,2_2*%
%TO.N,R1*%
X216300000Y-61900000D03*
%TD*%
D10*
%TO.P,SW20,*%
%TO.N,*%
X120800000Y-87850000D03*
D11*
%TO.P,SW20,1,1_1*%
%TO.N,Net-(D17-K)*%
X125800000Y-76800000D03*
%TO.P,SW20,2,2_2*%
%TO.N,R2*%
X130800000Y-78900000D03*
%TD*%
D10*
%TO.P,SW45,*%
%TO.N,*%
X159050000Y-121850000D03*
D11*
%TO.P,SW45,1,1_1*%
%TO.N,Net-(D42-K)*%
X164050000Y-110800000D03*
%TO.P,SW45,2,2_2*%
%TO.N,R4*%
X169050000Y-112900000D03*
%TD*%
D10*
%TO.P,SW40,*%
%TO.N,*%
X260300000Y-104850000D03*
D11*
%TO.P,SW40,1,1_1*%
%TO.N,Net-(D43-K)*%
X265300000Y-93800000D03*
%TO.P,SW40,2,2_2*%
%TO.N,R4*%
X270300000Y-95900000D03*
%TD*%
D10*
%TO.P,SW35,*%
%TO.N,*%
X165800000Y-104850000D03*
D11*
%TO.P,SW35,1,1_1*%
%TO.N,Net-(D30-K)*%
X170800000Y-93800000D03*
%TO.P,SW35,2,2_2*%
%TO.N,R3*%
X175800000Y-95900000D03*
%TD*%
D10*
%TO.P,SW44,*%
%TO.N,*%
X127550000Y-121850000D03*
D11*
%TO.P,SW44,1,1_1*%
%TO.N,Net-(D41-K)*%
X132550000Y-110800000D03*
%TO.P,SW44,2,2_2*%
%TO.N,R4*%
X137550000Y-112900000D03*
%TD*%
D10*
%TO.P,SW38,*%
%TO.N,*%
X219800000Y-104850000D03*
D11*
%TO.P,SW38,1,1_1*%
%TO.N,Net-(D33-K)*%
X224800000Y-93800000D03*
%TO.P,SW38,2,2_2*%
%TO.N,R3*%
X229800000Y-95900000D03*
%TD*%
D10*
%TO.P,SW41,*%
%TO.N,*%
X48800000Y-121850000D03*
D11*
%TO.P,SW41,1,1_1*%
%TO.N,Net-(D38-K)*%
X53800000Y-110800000D03*
%TO.P,SW41,2,2_2*%
%TO.N,R4*%
X58800000Y-112900000D03*
%TD*%
D10*
%TO.P,SW16,*%
%TO.N,*%
X48800000Y-87850000D03*
D11*
%TO.P,SW16,1,1_1*%
%TO.N,Net-(D13-K)*%
X53800000Y-76800000D03*
%TO.P,SW16,2,2_2*%
%TO.N,R2*%
X58800000Y-78900000D03*
%TD*%
D12*
%TO.P,J1,SH,SHIELD_SH*%
%TO.N,GND*%
X271550000Y-73910000D03*
D13*
X267725000Y-73910000D03*
D12*
X271550000Y-82550000D03*
D13*
X267725000Y-82550000D03*
%TD*%
D14*
%TO.N,R3*%
X145300012Y-112050000D03*
%TO.N,R1*%
X143800006Y-112050000D03*
%TO.N,R2*%
X144550009Y-112050000D03*
X144550000Y-104300000D03*
%TO.N,R4*%
X146050012Y-112050000D03*
%TO.N,C12*%
X262050000Y-87900000D03*
X268800000Y-70900000D03*
X248550000Y-104900000D03*
X250800000Y-70900000D03*
X150800006Y-119549526D03*
%TO.N,C3*%
X143050003Y-112050000D03*
X93300000Y-87900000D03*
X57300000Y-121900000D03*
X88800000Y-70900000D03*
X84300000Y-104900000D03*
%TO.N,GND*%
X148250000Y-115737500D03*
X183550000Y-115300000D03*
%TO.N,C9*%
X201300000Y-87900000D03*
X196800000Y-70900000D03*
X192300000Y-104900000D03*
X226050000Y-121900000D03*
X153049744Y-112055584D03*
%TO.N,C10*%
X214800000Y-70900000D03*
X153050012Y-119550060D03*
X210300000Y-104900000D03*
X219300000Y-87900000D03*
X246300000Y-121900000D03*
%TO.N,nRF*%
X186050000Y-115300000D03*
X127000000Y-113450000D03*
X152247192Y-113647192D03*
X152300000Y-110750000D03*
X150050005Y-119550948D03*
X142350000Y-113850000D03*
X147600000Y-112050000D03*
X144161719Y-116188281D03*
%TO.N,C1*%
X52800000Y-70900000D03*
X34800000Y-70900000D03*
X149300000Y-112050000D03*
X41550000Y-104900000D03*
X57300000Y-87900000D03*
%TO.N,DEC4*%
X145799999Y-118272183D03*
X143300000Y-118550000D03*
%TO.N,C4*%
X142300000Y-112050000D03*
X111300000Y-87900000D03*
X102300000Y-104900000D03*
X106800000Y-70900000D03*
X77550000Y-121900000D03*
%TO.N,C5*%
X104550000Y-121900000D03*
X120300000Y-104900000D03*
X124800000Y-70900000D03*
X150800006Y-112050000D03*
X129300000Y-87900000D03*
%TO.N,C11*%
X152300010Y-119549881D03*
X232800000Y-70900000D03*
X228300000Y-104900000D03*
X268800000Y-104900000D03*
X237300000Y-87900000D03*
%TO.N,SWCLK*%
X148550000Y-119550000D03*
X178550000Y-115300000D03*
%TO.N,CHRG*%
X122300000Y-109300000D03*
X139800000Y-107800000D03*
X152299928Y-112050000D03*
%TO.N,VBUS*%
X266300000Y-80580000D03*
X117550000Y-113450000D03*
X152813281Y-115286719D03*
X154799997Y-104800000D03*
%TO.N,C2*%
X150050003Y-112050000D03*
X75300000Y-87900000D03*
X70800000Y-70900000D03*
X37050000Y-87900000D03*
X66300000Y-104900000D03*
%TO.N,C6*%
X138300000Y-104900000D03*
X147300000Y-87900000D03*
X151550009Y-112050000D03*
X136050000Y-121900000D03*
X142800000Y-70900000D03*
%TO.N,VDDH*%
X155550000Y-104800000D03*
X268550000Y-92405000D03*
%TO.N,D-*%
X249500000Y-78550000D03*
X242300000Y-93050000D03*
X152050000Y-116600000D03*
%TO.N,D+*%
X249500000Y-80300000D03*
X152064496Y-117363323D03*
X243050000Y-93077818D03*
%TO.N,RESET*%
X181050000Y-115300000D03*
X151550008Y-119550237D03*
%TO.N,SWDIO*%
X149300003Y-119550000D03*
X176050000Y-115300000D03*
%TO.N,C7*%
X160800000Y-70900000D03*
X147050000Y-119550000D03*
X165300000Y-87900000D03*
X156300000Y-104900000D03*
X167550000Y-121900000D03*
%TO.N,C8*%
X174300000Y-104900000D03*
X178800000Y-70900000D03*
X146300000Y-119550000D03*
X183300000Y-87900000D03*
X199050000Y-121900000D03*
%TO.N,Net-(J1-D+-PadA6)*%
X266300000Y-78480000D03*
X252950000Y-80300000D03*
%TO.N,Net-(J1-D--PadA7)*%
X252950000Y-78550000D03*
X266300000Y-77480000D03*
%TO.N,Net-(J1-CC2)*%
X266300000Y-79480000D03*
X252950000Y-82550000D03*
%TD*%
%TO.N,R2*%
D15*
X144550000Y-104300000D02*
X148800000Y-100050000D01*
X148800000Y-100050000D02*
X148800000Y-78900000D01*
%TO.N,C12*%
X150800006Y-119522421D02*
X163572427Y-106750000D01*
X150800006Y-119549526D02*
X150800006Y-119522421D01*
X163572427Y-106750000D02*
X246700000Y-106750000D01*
X246700000Y-106750000D02*
X248550000Y-104900000D01*
%TO.N,C3*%
X138827818Y-107800000D02*
X71400000Y-107800000D01*
X143050003Y-112022185D02*
X138827818Y-107800000D01*
X71400000Y-107800000D02*
X57300000Y-121900000D01*
X143050003Y-112050000D02*
X143050003Y-112022185D01*
%TO.N,C9*%
X190200000Y-102800000D02*
X192300000Y-104900000D01*
X153049744Y-112055584D02*
X162305328Y-102800000D01*
X162305328Y-102800000D02*
X190200000Y-102800000D01*
%TO.N,C10*%
X153074952Y-119575000D02*
X243975000Y-119575000D01*
X243975000Y-119575000D02*
X246300000Y-121900000D01*
X153050012Y-119550060D02*
X153074952Y-119575000D01*
%TO.N,C1*%
X43750000Y-107100000D02*
X41550000Y-104900000D01*
X144350000Y-107100000D02*
X43750000Y-107100000D01*
X149300000Y-112050000D02*
X144350000Y-107100000D01*
%TO.N,DEC4*%
X145522182Y-118550000D02*
X143300000Y-118550000D01*
X145799999Y-118272183D02*
X145522182Y-118550000D01*
%TO.N,C4*%
X142300000Y-112050000D02*
X134775000Y-119575000D01*
X134775000Y-119575000D02*
X79875000Y-119575000D01*
X79875000Y-119575000D02*
X77550000Y-121900000D01*
%TO.N,C5*%
X150800006Y-112022185D02*
X145177821Y-106400000D01*
X150800006Y-112050000D02*
X150800006Y-112022185D01*
X145177821Y-106400000D02*
X121800000Y-106400000D01*
X121800000Y-106400000D02*
X120300000Y-104900000D01*
%TO.N,C11*%
X152300010Y-119549881D02*
X152300010Y-119522244D01*
X164722254Y-107100000D02*
X266600000Y-107100000D01*
X152300010Y-119522244D02*
X164722254Y-107100000D01*
X266600000Y-107100000D02*
X268800000Y-104900000D01*
%TO.N,CHRG*%
X152299928Y-112038820D02*
X152299928Y-112077899D01*
X144127818Y-107800000D02*
X139800000Y-107800000D01*
X152299928Y-112077899D02*
X151777827Y-112600000D01*
X148927818Y-112600000D02*
X144127818Y-107800000D01*
X151777827Y-112600000D02*
X148927818Y-112600000D01*
%TO.N,VBUS*%
X167522182Y-92050000D02*
X167549997Y-92050000D01*
X266300000Y-80580000D02*
X266270000Y-80580000D01*
X154799997Y-104800000D02*
X154799997Y-104772185D01*
X266270000Y-80580000D02*
X254800000Y-92050000D01*
X154799997Y-104772185D02*
X167522182Y-92050000D01*
X167549997Y-92050000D02*
X254800000Y-92050000D01*
%TO.N,C2*%
X150050003Y-112050000D02*
X150050003Y-112022185D01*
X68150000Y-106750000D02*
X66300000Y-104900000D01*
X150050003Y-112022185D02*
X144777818Y-106750000D01*
X144777818Y-106750000D02*
X68150000Y-106750000D01*
%TO.N,C6*%
X151550009Y-112050000D02*
X151550009Y-112022185D01*
X144427824Y-104900000D02*
X138300000Y-104900000D01*
X151550009Y-112022185D02*
X144427824Y-104900000D01*
%TO.N,VDDH*%
X167945000Y-92405000D02*
X155550000Y-104800000D01*
X268550000Y-92405000D02*
X167945000Y-92405000D01*
%TO.N,D-*%
X205609136Y-102575000D02*
X205584136Y-102550000D01*
X191600000Y-105450000D02*
X189300000Y-103150000D01*
X195800000Y-102550000D02*
X192900000Y-105450000D01*
X223609136Y-102575000D02*
X223584136Y-102550000D01*
X225990864Y-102575000D02*
X223609136Y-102575000D01*
X192900000Y-105450000D02*
X191600000Y-105450000D01*
X207990864Y-102575000D02*
X205609136Y-102575000D01*
X163522202Y-103150000D02*
X152050000Y-114622202D01*
X205584136Y-102550000D02*
X195800000Y-102550000D01*
X152050000Y-114622202D02*
X152050000Y-116600000D01*
X223584136Y-102550000D02*
X208015864Y-102550000D01*
X208015864Y-102550000D02*
X207990864Y-102575000D01*
X232800000Y-102550000D02*
X226015864Y-102550000D01*
X242300000Y-93050000D02*
X232800000Y-102550000D01*
X189300000Y-103150000D02*
X163522202Y-103150000D01*
X226015864Y-102550000D02*
X225990864Y-102575000D01*
%TO.N,D+*%
X233202818Y-102925000D02*
X198075000Y-102925000D01*
X195944974Y-102900000D02*
X192444974Y-106400000D01*
X243050000Y-93077818D02*
X233202818Y-102925000D01*
X198050000Y-102900000D02*
X195944974Y-102900000D01*
X192444974Y-106400000D02*
X163027819Y-106400000D01*
X198075000Y-102925000D02*
X198050000Y-102900000D01*
X163027819Y-106400000D02*
X152064496Y-117363323D01*
%TO.N,Net-(J1-D+-PadA6)*%
X260450001Y-78900000D02*
X262200000Y-77150000D01*
X264970000Y-77150000D02*
X266300000Y-78480000D01*
X252950000Y-80300000D02*
X254350000Y-78900000D01*
X262200000Y-77150000D02*
X264970000Y-77150000D01*
X254350000Y-78900000D02*
X260450001Y-78900000D01*
%TO.N,Net-(J1-D--PadA7)*%
X252950000Y-78550000D02*
X260305026Y-78550000D01*
X262055026Y-76800000D02*
X265620000Y-76800000D01*
X260305026Y-78550000D02*
X262055026Y-76800000D01*
X265620000Y-76800000D02*
X266300000Y-77480000D01*
%TO.N,Net-(J1-CC2)*%
X256250000Y-79250000D02*
X260594975Y-79250000D01*
X262344974Y-77500000D02*
X264320000Y-77500000D01*
X252950000Y-82550000D02*
X256250000Y-79250000D01*
X260594975Y-79250000D02*
X262344974Y-77500000D01*
X264320000Y-77500000D02*
X266300000Y-79480000D01*
%TD*%
M02*
