%TF.GenerationSoftware,KiCad,Pcbnew,10.0.5*%
%TF.CreationDate,2026-09-05T16:53:24-07:00*%
%TF.ProjectId,flinx,666c696e-782e-46b6-9963-61645f706362,rev?*%
%TF.SameCoordinates,Original*%
%TF.FileFunction,Soldermask,Bot*%
%TF.FilePolarity,Negative*%
%FSLAX46Y46*%
G04 Gerber Fmt 4.6, Leading zero omitted, Abs format (unit mm)*
G04 Created by KiCad (PCBNEW 10.0.5) date 2026-09-05 16:53:24*
%MOMM*%
%LPD*%
G01*
G04 APERTURE LIST*
G04 Aperture macros list*
%AMRoundRect*
0 Rectangle with rounded corners*
0 $1 Rounding radius*
0 $2 $3 $4 $5 $6 $7 $8 $9 X,Y pos of 4 corners*
0 Add a 4 corners polygon primitive as box body*
4,1,4,$2,$3,$4,$5,$6,$7,$8,$9,$2,$3,0*
0 Add four circle primitives for the rounded corners*
1,1,$1+$1,$2,$3*
1,1,$1+$1,$4,$5*
1,1,$1+$1,$6,$7*
1,1,$1+$1,$8,$9*
0 Add four rect primitives between the rounded corners*
20,1,$1+$1,$2,$3,$4,$5,0*
20,1,$1+$1,$4,$5,$6,$7,0*
20,1,$1+$1,$6,$7,$8,$9,0*
20,1,$1+$1,$8,$9,$2,$3,0*%
%AMRotRect*
0 Rectangle, with rotation*
0 The origin of the aperture is its center*
0 $1 length*
0 $2 width*
0 $3 Rotation angle, in degrees counterclockwise*
0 Add horizontal line*
21,1,$1,$2,0,0,$3*%
G04 Aperture macros list end*
%ADD10C,2.600000*%
%ADD11C,5.050000*%
%ADD12C,2.200000*%
%ADD13C,3.500000*%
%ADD14RoundRect,0.150000X-0.150000X-0.200000X0.150000X-0.200000X0.150000X0.200000X-0.150000X0.200000X0*%
%ADD15RoundRect,0.225000X0.225000X0.250000X-0.225000X0.250000X-0.225000X-0.250000X0.225000X-0.250000X0*%
%ADD16RoundRect,0.218750X-0.218750X-0.256250X0.218750X-0.256250X0.218750X0.256250X-0.218750X0.256250X0*%
%ADD17C,1.500000*%
%ADD18RoundRect,0.225000X-0.225000X-0.250000X0.225000X-0.250000X0.225000X0.250000X-0.225000X0.250000X0*%
%ADD19RoundRect,0.102000X0.323000X-0.373000X0.323000X0.373000X-0.323000X0.373000X-0.323000X-0.373000X0*%
%ADD20RoundRect,0.218750X-0.256250X0.218750X-0.256250X-0.218750X0.256250X-0.218750X0.256250X0.218750X0*%
%ADD21RoundRect,0.218750X0.256250X-0.218750X0.256250X0.218750X-0.256250X0.218750X-0.256250X-0.218750X0*%
%ADD22RoundRect,0.200000X0.200000X0.275000X-0.200000X0.275000X-0.200000X-0.275000X0.200000X-0.275000X0*%
%ADD23RoundRect,0.062500X0.203293X0.291682X-0.291682X-0.203293X-0.203293X-0.291682X0.291682X0.203293X0*%
%ADD24RoundRect,0.062500X-0.203293X0.291682X-0.291682X0.203293X0.203293X-0.291682X0.291682X-0.203293X0*%
%ADD25RotRect,3.600000X3.600000X225.000000*%
%ADD26RoundRect,0.225000X-0.250000X0.225000X-0.250000X-0.225000X0.250000X-0.225000X0.250000X0.225000X0*%
%ADD27RoundRect,0.200000X-0.200000X-0.275000X0.200000X-0.275000X0.200000X0.275000X-0.200000X0.275000X0*%
%ADD28RoundRect,0.150000X0.512500X0.150000X-0.512500X0.150000X-0.512500X-0.150000X0.512500X-0.150000X0*%
%ADD29C,0.600000*%
%ADD30RoundRect,0.250000X-0.750000X0.250000X-0.750000X-0.250000X0.750000X-0.250000X0.750000X0.250000X0*%
%ADD31O,0.600000X0.850000*%
%ADD32RoundRect,0.130000X-0.370000X0.130000X-0.370000X-0.130000X0.370000X-0.130000X0.370000X0.130000X0*%
%ADD33RoundRect,0.067500X-0.432500X0.067500X-0.432500X-0.067500X0.432500X-0.067500X0.432500X0.067500X0*%
%ADD34O,2.600000X1.300000*%
%ADD35O,2.300000X1.300000*%
%ADD36RoundRect,0.250000X-0.350000X-0.650000X0.350000X-0.650000X0.350000X0.650000X-0.350000X0.650000X0*%
%ADD37RoundRect,0.225000X0.250000X-0.225000X0.250000X0.225000X-0.250000X0.225000X-0.250000X-0.225000X0*%
%ADD38C,0.900000*%
%ADD39RoundRect,0.102000X-0.750000X0.350000X-0.750000X-0.350000X0.750000X-0.350000X0.750000X0.350000X0*%
%ADD40RoundRect,0.102000X-0.400000X0.500000X-0.400000X-0.500000X0.400000X-0.500000X0.400000X0.500000X0*%
G04 APERTURE END LIST*
D10*
%TO.C,SW30*%
X75800000Y-104850000D03*
D11*
X80800000Y-99700000D03*
D12*
X80800000Y-93800000D03*
X85800000Y-95900000D03*
%TD*%
D10*
%TO.C,SW10*%
X188300000Y-70850000D03*
D11*
X193300000Y-65700000D03*
D12*
X193300000Y-59800000D03*
X198300000Y-61900000D03*
%TD*%
D10*
%TO.C,SW18*%
X84800000Y-87850000D03*
D11*
X89800000Y-82700000D03*
D12*
X89800000Y-76800000D03*
X94800000Y-78900000D03*
%TD*%
D10*
%TO.C,SW1*%
X26300000Y-70850000D03*
D11*
X31300000Y-65700000D03*
D12*
X31300000Y-59800000D03*
X36300000Y-61900000D03*
%TD*%
D10*
%TO.C,SW25*%
X210800000Y-87850000D03*
D11*
X215800000Y-82700000D03*
D12*
X215800000Y-76800000D03*
X220800000Y-78900000D03*
%TD*%
D10*
%TO.C,SW5*%
X98300000Y-70850000D03*
D11*
X103300000Y-65700000D03*
D12*
X103300000Y-59800000D03*
X108300000Y-61900000D03*
%TD*%
D10*
%TO.C,SW15*%
X28550000Y-87850000D03*
D11*
X33550000Y-82700000D03*
D12*
X33550000Y-76800000D03*
X38550000Y-78900000D03*
%TD*%
D10*
%TO.C,SW13*%
X242300000Y-70850000D03*
D11*
X247300000Y-65700000D03*
D12*
X247300000Y-59800000D03*
X252300000Y-61900000D03*
%TD*%
D13*
%TO.C,REF\u002A\u002A*%
X87550000Y-116700000D03*
%TD*%
D10*
%TO.C,SW27*%
X253550000Y-87850000D03*
D11*
X258550000Y-82700000D03*
D12*
X258550000Y-76800000D03*
X263550000Y-78900000D03*
%TD*%
D10*
%TO.C,SW2*%
X44300000Y-70850000D03*
D11*
X49300000Y-65700000D03*
D12*
X49300000Y-59800000D03*
X54300000Y-61900000D03*
%TD*%
D13*
%TO.C,REF\u002A\u002A*%
X246175000Y-82700000D03*
%TD*%
D10*
%TO.C,SW22*%
X156800000Y-87850000D03*
D11*
X161800000Y-82700000D03*
D12*
X161800000Y-76800000D03*
X166800000Y-78900000D03*
%TD*%
D10*
%TO.C,SW29*%
X57800000Y-104850000D03*
D11*
X62800000Y-99700000D03*
D12*
X62800000Y-93800000D03*
X67800000Y-95900000D03*
%TD*%
D10*
%TO.C,SW19*%
X102800000Y-87850000D03*
D11*
X107800000Y-82700000D03*
D12*
X107800000Y-76800000D03*
X112800000Y-78900000D03*
%TD*%
D10*
%TO.C,SW32*%
X111800000Y-104850000D03*
D11*
X116800000Y-99700000D03*
D12*
X116800000Y-93800000D03*
X121800000Y-95900000D03*
%TD*%
D10*
%TO.C,SW28*%
X33050000Y-104850000D03*
D11*
X38050000Y-99700000D03*
D12*
X38050000Y-93800000D03*
X43050000Y-95900000D03*
%TD*%
D10*
%TO.C,SW47*%
X217550000Y-121850000D03*
D11*
X222550000Y-116700000D03*
D12*
X222550000Y-110800000D03*
X227550000Y-112900000D03*
%TD*%
D10*
%TO.C,SW4*%
X80300000Y-70850000D03*
D11*
X85300000Y-65700000D03*
D12*
X85300000Y-59800000D03*
X90300000Y-61900000D03*
%TD*%
D10*
%TO.C,SW48*%
X237800000Y-121850000D03*
D11*
X242800000Y-116700000D03*
D12*
X242800000Y-110800000D03*
X247800000Y-112900000D03*
%TD*%
D10*
%TO.C,SW31*%
X93800000Y-104850000D03*
D11*
X98800000Y-99700000D03*
D12*
X98800000Y-93800000D03*
X103800000Y-95900000D03*
%TD*%
D10*
%TO.C,SW21*%
X138800000Y-87850000D03*
D11*
X143800000Y-82700000D03*
D12*
X143800000Y-76800000D03*
X148800000Y-78900000D03*
%TD*%
D10*
%TO.C,SW33*%
X129800000Y-104850000D03*
D11*
X134800000Y-99700000D03*
D12*
X134800000Y-93800000D03*
X139800000Y-95900000D03*
%TD*%
D10*
%TO.C,SW26*%
X228800000Y-87850000D03*
D11*
X233800000Y-82700000D03*
D12*
X233800000Y-76800000D03*
X238800000Y-78900000D03*
%TD*%
D10*
%TO.C,SW46*%
X190550000Y-121850000D03*
D11*
X195550000Y-116700000D03*
D12*
X195550000Y-110800000D03*
X200550000Y-112900000D03*
%TD*%
D10*
%TO.C,SW9*%
X170300000Y-70850000D03*
D11*
X175300000Y-65700000D03*
D12*
X175300000Y-59800000D03*
X180300000Y-61900000D03*
%TD*%
D10*
%TO.C,SW12*%
X224300000Y-70850000D03*
D11*
X229300000Y-65700000D03*
D12*
X229300000Y-59800000D03*
X234300000Y-61900000D03*
%TD*%
D10*
%TO.C,SW24*%
X192800000Y-87850000D03*
D11*
X197800000Y-82700000D03*
D12*
X197800000Y-76800000D03*
X202800000Y-78900000D03*
%TD*%
D10*
%TO.C,SW39*%
X240050000Y-104850000D03*
D11*
X245050000Y-99700000D03*
D12*
X245050000Y-93800000D03*
X250050000Y-95900000D03*
%TD*%
D10*
%TO.C,SW23*%
X174800000Y-87850000D03*
D11*
X179800000Y-82700000D03*
D12*
X179800000Y-76800000D03*
X184800000Y-78900000D03*
%TD*%
D10*
%TO.C,SW42*%
X69050000Y-121850000D03*
D11*
X74050000Y-116700000D03*
D12*
X74050000Y-110800000D03*
X79050000Y-112900000D03*
%TD*%
D10*
%TO.C,SW8*%
X152300000Y-70850000D03*
D11*
X157300000Y-65700000D03*
D12*
X157300000Y-59800000D03*
X162300000Y-61900000D03*
%TD*%
D10*
%TO.C,SW6*%
X116300000Y-70850000D03*
D11*
X121300000Y-65700000D03*
D12*
X121300000Y-59800000D03*
X126300000Y-61900000D03*
%TD*%
D10*
%TO.C,SW17*%
X66800000Y-87850000D03*
D11*
X71800000Y-82700000D03*
D12*
X71800000Y-76800000D03*
X76800000Y-78900000D03*
%TD*%
D10*
%TO.C,SW34*%
X147800000Y-104850000D03*
D11*
X152800000Y-99700000D03*
D12*
X152800000Y-93800000D03*
X157800000Y-95900000D03*
%TD*%
D10*
%TO.C,SW43*%
X96050000Y-121850000D03*
D11*
X101050000Y-116700000D03*
D12*
X101050000Y-110800000D03*
X106050000Y-112900000D03*
%TD*%
D10*
%TO.C,SW3*%
X62300000Y-70850000D03*
D11*
X67300000Y-65700000D03*
D12*
X67300000Y-59800000D03*
X72300000Y-61900000D03*
%TD*%
D10*
%TO.C,SW36*%
X183800000Y-104850000D03*
D11*
X188800000Y-99700000D03*
D12*
X188800000Y-93800000D03*
X193800000Y-95900000D03*
%TD*%
D10*
%TO.C,SW7*%
X134300000Y-70850000D03*
D11*
X139300000Y-65700000D03*
D12*
X139300000Y-59800000D03*
X144300000Y-61900000D03*
%TD*%
D10*
%TO.C,SW14*%
X260300000Y-70850000D03*
D11*
X265300000Y-65700000D03*
D12*
X265300000Y-59800000D03*
X270300000Y-61900000D03*
%TD*%
D10*
%TO.C,SW37*%
X201800000Y-104850000D03*
D11*
X206800000Y-99700000D03*
D12*
X206800000Y-93800000D03*
X211800000Y-95900000D03*
%TD*%
D10*
%TO.C,SW11*%
X206300000Y-70850000D03*
D11*
X211300000Y-65700000D03*
D12*
X211300000Y-59800000D03*
X216300000Y-61900000D03*
%TD*%
D10*
%TO.C,SW20*%
X120800000Y-87850000D03*
D11*
X125800000Y-82700000D03*
D12*
X125800000Y-76800000D03*
X130800000Y-78900000D03*
%TD*%
D10*
%TO.C,SW45*%
X159050000Y-121850000D03*
D11*
X164050000Y-116700000D03*
D12*
X164050000Y-110800000D03*
X169050000Y-112900000D03*
%TD*%
D10*
%TO.C,SW40*%
X260300000Y-104850000D03*
D11*
X265300000Y-99700000D03*
D12*
X265300000Y-93800000D03*
X270300000Y-95900000D03*
%TD*%
D13*
%TO.C,REF\u002A\u002A*%
X50425000Y-99700000D03*
%TD*%
D10*
%TO.C,SW35*%
X165800000Y-104850000D03*
D11*
X170800000Y-99700000D03*
D12*
X170800000Y-93800000D03*
X175800000Y-95900000D03*
%TD*%
D10*
%TO.C,SW44*%
X127550000Y-121850000D03*
D11*
X132550000Y-116700000D03*
D12*
X132550000Y-110800000D03*
X137550000Y-112900000D03*
%TD*%
D13*
%TO.C,REF\u002A\u002A*%
X209050000Y-116700000D03*
%TD*%
D10*
%TO.C,SW38*%
X219800000Y-104850000D03*
D11*
X224800000Y-99700000D03*
D12*
X224800000Y-93800000D03*
X229800000Y-95900000D03*
%TD*%
D10*
%TO.C,SW41*%
X48800000Y-121850000D03*
D11*
X53800000Y-116700000D03*
D12*
X53800000Y-110800000D03*
X58800000Y-112900000D03*
%TD*%
D10*
%TO.C,SW16*%
X48800000Y-87850000D03*
D11*
X53800000Y-82700000D03*
D12*
X53800000Y-76800000D03*
X58800000Y-78900000D03*
%TD*%
D14*
%TO.C,D45*%
X271000000Y-70900000D03*
X269600000Y-70900000D03*
%TD*%
%TO.C,D3*%
X91000000Y-70900000D03*
X89600000Y-70900000D03*
%TD*%
D15*
%TO.C,C13*%
X126300000Y-112550000D03*
X124750000Y-112550000D03*
%TD*%
D16*
%TO.C,L2*%
X154012500Y-117800000D03*
X155587500Y-117800000D03*
%TD*%
D14*
%TO.C,D31*%
X194500000Y-104900000D03*
X193100000Y-104900000D03*
%TD*%
%TO.C,D10*%
X217000000Y-70900000D03*
X215600000Y-70900000D03*
%TD*%
D15*
%TO.C,C15*%
X142350000Y-114800000D03*
X140800000Y-114800000D03*
%TD*%
D14*
%TO.C,D35*%
X37000000Y-70900000D03*
X35600000Y-70900000D03*
%TD*%
%TO.C,D15*%
X95500000Y-87900000D03*
X94100000Y-87900000D03*
%TD*%
D17*
%TO.C,TP2*%
X182340000Y-114050000D03*
%TD*%
D14*
%TO.C,D34*%
X250750000Y-104900000D03*
X249350000Y-104900000D03*
%TD*%
D18*
%TO.C,C14*%
X174275000Y-121050000D03*
X175825000Y-121050000D03*
%TD*%
D19*
%TO.C,Y1*%
X141175000Y-122225000D03*
X141175000Y-120775000D03*
X142325000Y-120775000D03*
X142325000Y-122225000D03*
%TD*%
D20*
%TO.C,L3*%
X146800000Y-108475000D03*
X146800000Y-110050000D03*
%TD*%
D21*
%TO.C,L4*%
X145050000Y-110050000D03*
X145050000Y-108475000D03*
%TD*%
D14*
%TO.C,D37*%
X43750000Y-104900000D03*
X42350000Y-104900000D03*
%TD*%
%TO.C,D13*%
X59500000Y-87900000D03*
X58100000Y-87900000D03*
%TD*%
%TO.C,D26*%
X104500000Y-104900000D03*
X103100000Y-104900000D03*
%TD*%
%TO.C,D17*%
X131500000Y-87900000D03*
X130100000Y-87900000D03*
%TD*%
%TO.C,D11*%
X235000000Y-70900000D03*
X233600000Y-70900000D03*
%TD*%
D17*
%TO.C,TP4*%
X177260000Y-114050000D03*
%TD*%
D14*
%TO.C,D1*%
X55000000Y-70900000D03*
X53600000Y-70900000D03*
%TD*%
%TO.C,D32*%
X212500000Y-104900000D03*
X211100000Y-104900000D03*
%TD*%
D22*
%TO.C,R7*%
X126350000Y-110050000D03*
X124700000Y-110050000D03*
%TD*%
D15*
%TO.C,C12*%
X117575000Y-112550000D03*
X116025000Y-112550000D03*
%TD*%
D23*
%TO.C,U1*%
X148700781Y-112741135D03*
X148983623Y-113023978D03*
X149266466Y-113306820D03*
X149549309Y-113589663D03*
X149832151Y-113872506D03*
X150114994Y-114155349D03*
X150397837Y-114438191D03*
X150680680Y-114721034D03*
X150963522Y-115003877D03*
X151246365Y-115286719D03*
D24*
X151246365Y-116188281D03*
X150963522Y-116471123D03*
X150680680Y-116753966D03*
X150397837Y-117036809D03*
X150114994Y-117319651D03*
X149832151Y-117602494D03*
X149549309Y-117885337D03*
X149266466Y-118168180D03*
X148983623Y-118451022D03*
X148700781Y-118733865D03*
D23*
X147799219Y-118733865D03*
X147516377Y-118451022D03*
X147233534Y-118168180D03*
X146950691Y-117885337D03*
X146667849Y-117602494D03*
X146385006Y-117319651D03*
X146102163Y-117036809D03*
X145819320Y-116753966D03*
X145536478Y-116471123D03*
X145253635Y-116188281D03*
D24*
X145253635Y-115286719D03*
X145536478Y-115003877D03*
X145819320Y-114721034D03*
X146102163Y-114438191D03*
X146385006Y-114155349D03*
X146667849Y-113872506D03*
X146950691Y-113589663D03*
X147233534Y-113306820D03*
X147516377Y-113023978D03*
X147799219Y-112741135D03*
D25*
X148250000Y-115737500D03*
%TD*%
D26*
%TO.C,C5*%
X150550000Y-121275000D03*
X150550000Y-122825000D03*
%TD*%
D27*
%TO.C,R3*%
X250350000Y-76300000D03*
X252000000Y-76300000D03*
%TD*%
D14*
%TO.C,D27*%
X122500000Y-104900000D03*
X121100000Y-104900000D03*
%TD*%
%TO.C,D38*%
X59500000Y-121900000D03*
X58100000Y-121900000D03*
%TD*%
%TO.C,D18*%
X149500000Y-87900000D03*
X148100000Y-87900000D03*
%TD*%
D28*
%TO.C,U2*%
X122300000Y-110300000D03*
X122300000Y-111250000D03*
X122300000Y-112200000D03*
X120025000Y-112200000D03*
X120025000Y-111250000D03*
X120025000Y-110300000D03*
%TD*%
D14*
%TO.C,D48*%
X248500000Y-121900000D03*
X247100000Y-121900000D03*
%TD*%
D17*
%TO.C,TP7*%
X115050000Y-117000000D03*
%TD*%
D29*
%TO.C,J1*%
X268450000Y-75230000D03*
D30*
X271550000Y-76830000D03*
X271550000Y-79630000D03*
D31*
X268450000Y-81230000D03*
D32*
X267350000Y-75130000D03*
X267350000Y-75880000D03*
D33*
X267350000Y-76480000D03*
X267350000Y-77980000D03*
X267350000Y-78980000D03*
X267350000Y-79980000D03*
D32*
X267350000Y-80580000D03*
X267350000Y-81330000D03*
X267350000Y-81330000D03*
X267350000Y-80580000D03*
D33*
X267350000Y-79480000D03*
X267350000Y-78480000D03*
X267350000Y-77480000D03*
X267350000Y-76980000D03*
D32*
X267350000Y-75880000D03*
X267350000Y-75130000D03*
D34*
X271550000Y-73910000D03*
D35*
X267725000Y-73910000D03*
D34*
X271550000Y-82550000D03*
D35*
X267725000Y-82550000D03*
%TD*%
D14*
%TO.C,D5*%
X127000000Y-70900000D03*
X125600000Y-70900000D03*
%TD*%
D16*
%TO.C,L5*%
X174300000Y-119300000D03*
X175875000Y-119300000D03*
%TD*%
D14*
%TO.C,D29*%
X158500000Y-104900000D03*
X157100000Y-104900000D03*
%TD*%
D17*
%TO.C,TP5*%
X174720000Y-114050000D03*
%TD*%
D14*
%TO.C,D28*%
X140500000Y-104900000D03*
X139100000Y-104900000D03*
%TD*%
%TO.C,D43*%
X271000000Y-104900000D03*
X269600000Y-104900000D03*
%TD*%
D36*
%TO.C,AE1*%
X178550000Y-123550000D03*
X181450000Y-123550000D03*
%TD*%
D22*
%TO.C,R1*%
X252000000Y-78550000D03*
X250350000Y-78550000D03*
%TD*%
D14*
%TO.C,D7*%
X163000000Y-70900000D03*
X161600000Y-70900000D03*
%TD*%
%TO.C,D2*%
X73000000Y-70900000D03*
X71600000Y-70900000D03*
%TD*%
%TO.C,D39*%
X79750000Y-121900000D03*
X78350000Y-121900000D03*
%TD*%
%TO.C,D20*%
X185500000Y-87900000D03*
X184100000Y-87900000D03*
%TD*%
D15*
%TO.C,C8*%
X142325000Y-118550000D03*
X140775000Y-118550000D03*
%TD*%
D18*
%TO.C,C4*%
X154050000Y-114050000D03*
X155600000Y-114050000D03*
%TD*%
%TO.C,C11*%
X154025000Y-110300000D03*
X155575000Y-110300000D03*
%TD*%
D14*
%TO.C,D25*%
X86500000Y-104900000D03*
X85100000Y-104900000D03*
%TD*%
%TO.C,D4*%
X109000000Y-70900000D03*
X107600000Y-70900000D03*
%TD*%
D26*
%TO.C,C10*%
X148550000Y-121275000D03*
X148550000Y-122825000D03*
%TD*%
D14*
%TO.C,D30*%
X176500000Y-104900000D03*
X175100000Y-104900000D03*
%TD*%
%TO.C,D36*%
X39250000Y-87900000D03*
X37850000Y-87900000D03*
%TD*%
%TO.C,D21*%
X203500000Y-87900000D03*
X202100000Y-87900000D03*
%TD*%
%TO.C,D19*%
X167500000Y-87900000D03*
X166100000Y-87900000D03*
%TD*%
%TO.C,D14*%
X77500000Y-87900000D03*
X76100000Y-87900000D03*
%TD*%
D37*
%TO.C,C17*%
X148800000Y-110075000D03*
X148800000Y-108525000D03*
%TD*%
D14*
%TO.C,D23*%
X239500000Y-87900000D03*
X238100000Y-87900000D03*
%TD*%
D18*
%TO.C,C6*%
X154025000Y-119550000D03*
X155575000Y-119550000D03*
%TD*%
D14*
%TO.C,D42*%
X169750000Y-121900000D03*
X168350000Y-121900000D03*
%TD*%
%TO.C,D41*%
X138250000Y-121900000D03*
X136850000Y-121900000D03*
%TD*%
D26*
%TO.C,C2*%
X144550000Y-121275000D03*
X144550000Y-122825000D03*
%TD*%
D18*
%TO.C,C7*%
X154050000Y-116050000D03*
X155600000Y-116050000D03*
%TD*%
D14*
%TO.C,D33*%
X230500000Y-104900000D03*
X229100000Y-104900000D03*
%TD*%
D17*
%TO.C,TP6*%
X118550000Y-117000000D03*
%TD*%
D15*
%TO.C,C9*%
X142325000Y-116800000D03*
X140775000Y-116800000D03*
%TD*%
D20*
%TO.C,L6*%
X178537500Y-119725000D03*
X178537500Y-121300000D03*
%TD*%
D17*
%TO.C,TP1*%
X184880000Y-114050000D03*
%TD*%
D26*
%TO.C,C16*%
X154050000Y-121275000D03*
X154050000Y-122825000D03*
%TD*%
D18*
%TO.C,C3*%
X154050000Y-112300000D03*
X155600000Y-112300000D03*
%TD*%
D38*
%TO.C,SW49*%
X272230000Y-88300000D03*
X272230000Y-91300000D03*
D39*
X270480000Y-87550000D03*
X270480000Y-90550000D03*
X270480000Y-92050000D03*
D40*
X271180000Y-86150000D03*
X273280000Y-86150000D03*
X273280000Y-93450000D03*
X271180000Y-93450000D03*
%TD*%
D37*
%TO.C,C18*%
X150800000Y-110075000D03*
X150800000Y-108525000D03*
%TD*%
D14*
%TO.C,D24*%
X68500000Y-104900000D03*
X67100000Y-104900000D03*
%TD*%
%TO.C,D44*%
X264250000Y-87900000D03*
X262850000Y-87900000D03*
%TD*%
%TO.C,D22*%
X221500000Y-87900000D03*
X220100000Y-87900000D03*
%TD*%
D22*
%TO.C,R4*%
X252000000Y-82550000D03*
X250350000Y-82550000D03*
%TD*%
D14*
%TO.C,D47*%
X228250000Y-121900000D03*
X226850000Y-121900000D03*
%TD*%
D17*
%TO.C,TP3*%
X179800000Y-114050000D03*
%TD*%
D14*
%TO.C,D9*%
X199000000Y-70900000D03*
X197600000Y-70900000D03*
%TD*%
D27*
%TO.C,R2*%
X250350000Y-80300000D03*
X252000000Y-80300000D03*
%TD*%
D20*
%TO.C,L1*%
X152300000Y-121262500D03*
X152300000Y-122837500D03*
%TD*%
D22*
%TO.C,R6*%
X117625000Y-110050000D03*
X115975000Y-110050000D03*
%TD*%
D14*
%TO.C,D40*%
X106750000Y-121900000D03*
X105350000Y-121900000D03*
%TD*%
%TO.C,D12*%
X253000000Y-70900000D03*
X251600000Y-70900000D03*
%TD*%
%TO.C,D6*%
X145000000Y-70900000D03*
X143600000Y-70900000D03*
%TD*%
%TO.C,D8*%
X181000000Y-70900000D03*
X179600000Y-70900000D03*
%TD*%
%TO.C,D46*%
X201250000Y-121900000D03*
X199850000Y-121900000D03*
%TD*%
D26*
%TO.C,C1*%
X146300000Y-121275000D03*
X146300000Y-122825000D03*
%TD*%
D14*
%TO.C,D16*%
X113500000Y-87900000D03*
X112100000Y-87900000D03*
%TD*%
M02*
