%TF.GenerationSoftware,KiCad,Pcbnew,10.0.5*%
%TF.CreationDate,2026-09-05T16:53:24-07:00*%
%TF.ProjectId,flinx,666c696e-782e-46b6-9963-61645f706362,rev?*%
%TF.SameCoordinates,Original*%
%TF.FileFunction,Paste,Bot*%
%TF.FilePolarity,Positive*%
%FSLAX46Y46*%
G04 Gerber Fmt 4.6, Leading zero omitted, Abs format (unit mm)*
G04 Created by KiCad (PCBNEW 10.0.5) date 2026-09-05 16:53:24*
%MOMM*%
%LPD*%
G01*
G04 APERTURE LIST*
G04 Aperture macros list*
%AMRoundRect*
0 Rectangle with rounded corners*
0 $1 Rounding radius*
0 $2 $3 $4 $5 $6 $7 $8 $9 X,Y pos of 4 corners*
0 Add a 4 corners polygon primitive as box body*
4,1,4,$2,$3,$4,$5,$6,$7,$8,$9,$2,$3,0*
0 Add four circle primitives for the rounded corners*
1,1,$1+$1,$2,$3*
1,1,$1+$1,$4,$5*
1,1,$1+$1,$6,$7*
1,1,$1+$1,$8,$9*
0 Add four rect primitives between the rounded corners*
20,1,$1+$1,$2,$3,$4,$5,0*
20,1,$1+$1,$4,$5,$6,$7,0*
20,1,$1+$1,$6,$7,$8,$9,0*
20,1,$1+$1,$8,$9,$2,$3,0*%
G04 Aperture macros list end*
%ADD10RoundRect,0.150000X-0.150000X-0.200000X0.150000X-0.200000X0.150000X0.200000X-0.150000X0.200000X0*%
%ADD11RoundRect,0.225000X0.225000X0.250000X-0.225000X0.250000X-0.225000X-0.250000X0.225000X-0.250000X0*%
%ADD12RoundRect,0.218750X-0.218750X-0.256250X0.218750X-0.256250X0.218750X0.256250X-0.218750X0.256250X0*%
%ADD13RoundRect,0.225000X-0.225000X-0.250000X0.225000X-0.250000X0.225000X0.250000X-0.225000X0.250000X0*%
%ADD14RoundRect,0.102000X0.323000X-0.373000X0.323000X0.373000X-0.323000X0.373000X-0.323000X-0.373000X0*%
%ADD15RoundRect,0.218750X-0.256250X0.218750X-0.256250X-0.218750X0.256250X-0.218750X0.256250X0.218750X0*%
%ADD16RoundRect,0.218750X0.256250X-0.218750X0.256250X0.218750X-0.256250X0.218750X-0.256250X-0.218750X0*%
%ADD17RoundRect,0.200000X0.200000X0.275000X-0.200000X0.275000X-0.200000X-0.275000X0.200000X-0.275000X0*%
%ADD18RoundRect,0.242500X0.000000X0.342947X-0.342947X0.000000X0.000000X-0.342947X0.342947X0.000000X0*%
%ADD19RoundRect,0.062500X0.203293X0.291682X-0.291682X-0.203293X-0.203293X-0.291682X0.291682X0.203293X0*%
%ADD20RoundRect,0.062500X-0.203293X0.291682X-0.291682X0.203293X0.203293X-0.291682X0.291682X-0.203293X0*%
%ADD21RoundRect,0.225000X-0.250000X0.225000X-0.250000X-0.225000X0.250000X-0.225000X0.250000X0.225000X0*%
%ADD22RoundRect,0.200000X-0.200000X-0.275000X0.200000X-0.275000X0.200000X0.275000X-0.200000X0.275000X0*%
%ADD23RoundRect,0.150000X0.512500X0.150000X-0.512500X0.150000X-0.512500X-0.150000X0.512500X-0.150000X0*%
%ADD24RoundRect,0.250000X-0.750000X0.250000X-0.750000X-0.250000X0.750000X-0.250000X0.750000X0.250000X0*%
%ADD25RoundRect,0.130000X-0.370000X0.130000X-0.370000X-0.130000X0.370000X-0.130000X0.370000X0.130000X0*%
%ADD26RoundRect,0.067500X-0.432500X0.067500X-0.432500X-0.067500X0.432500X-0.067500X0.432500X0.067500X0*%
%ADD27RoundRect,0.250000X-0.350000X-0.650000X0.350000X-0.650000X0.350000X0.650000X-0.350000X0.650000X0*%
%ADD28RoundRect,0.225000X0.250000X-0.225000X0.250000X0.225000X-0.250000X0.225000X-0.250000X-0.225000X0*%
%ADD29R,1.500000X0.700000*%
%ADD30R,0.800000X1.000000*%
G04 APERTURE END LIST*
D10*
%TO.C,D45*%
X271000000Y-70900000D03*
X269600000Y-70900000D03*
%TD*%
%TO.C,D3*%
X91000000Y-70900000D03*
X89600000Y-70900000D03*
%TD*%
D11*
%TO.C,C13*%
X126300000Y-112550000D03*
X124750000Y-112550000D03*
%TD*%
D12*
%TO.C,L2*%
X154012500Y-117800000D03*
X155587500Y-117800000D03*
%TD*%
D10*
%TO.C,D31*%
X194500000Y-104900000D03*
X193100000Y-104900000D03*
%TD*%
%TO.C,D10*%
X217000000Y-70900000D03*
X215600000Y-70900000D03*
%TD*%
D11*
%TO.C,C15*%
X142350000Y-114800000D03*
X140800000Y-114800000D03*
%TD*%
D10*
%TO.C,D35*%
X37000000Y-70900000D03*
X35600000Y-70900000D03*
%TD*%
%TO.C,D15*%
X95500000Y-87900000D03*
X94100000Y-87900000D03*
%TD*%
%TO.C,D34*%
X250750000Y-104900000D03*
X249350000Y-104900000D03*
%TD*%
D13*
%TO.C,C14*%
X174275000Y-121050000D03*
X175825000Y-121050000D03*
%TD*%
D14*
%TO.C,Y1*%
X141175000Y-122225000D03*
X141175000Y-120775000D03*
X142325000Y-120775000D03*
X142325000Y-122225000D03*
%TD*%
D15*
%TO.C,L3*%
X146800000Y-108475000D03*
X146800000Y-110050000D03*
%TD*%
D16*
%TO.C,L4*%
X145050000Y-110050000D03*
X145050000Y-108475000D03*
%TD*%
D10*
%TO.C,D37*%
X43750000Y-104900000D03*
X42350000Y-104900000D03*
%TD*%
%TO.C,D13*%
X59500000Y-87900000D03*
X58100000Y-87900000D03*
%TD*%
%TO.C,D26*%
X104500000Y-104900000D03*
X103100000Y-104900000D03*
%TD*%
%TO.C,D17*%
X131500000Y-87900000D03*
X130100000Y-87900000D03*
%TD*%
%TO.C,D11*%
X235000000Y-70900000D03*
X233600000Y-70900000D03*
%TD*%
%TO.C,D1*%
X55000000Y-70900000D03*
X53600000Y-70900000D03*
%TD*%
%TO.C,D32*%
X212500000Y-104900000D03*
X211100000Y-104900000D03*
%TD*%
D17*
%TO.C,R7*%
X126350000Y-110050000D03*
X124700000Y-110050000D03*
%TD*%
D11*
%TO.C,C12*%
X117575000Y-112550000D03*
X116025000Y-112550000D03*
%TD*%
D18*
%TO.C,U1*%
X149947056Y-115737500D03*
X149098528Y-114888972D03*
X148250000Y-114040444D03*
X149098528Y-116586028D03*
X148250000Y-115737500D03*
X147401472Y-114888972D03*
X148250000Y-117434556D03*
X147401472Y-116586028D03*
X146552944Y-115737500D03*
D19*
X148700781Y-112741135D03*
X148983623Y-113023978D03*
X149266466Y-113306820D03*
X149549309Y-113589663D03*
X149832151Y-113872506D03*
X150114994Y-114155349D03*
X150397837Y-114438191D03*
X150680680Y-114721034D03*
X150963522Y-115003877D03*
X151246365Y-115286719D03*
D20*
X151246365Y-116188281D03*
X150963522Y-116471123D03*
X150680680Y-116753966D03*
X150397837Y-117036809D03*
X150114994Y-117319651D03*
X149832151Y-117602494D03*
X149549309Y-117885337D03*
X149266466Y-118168180D03*
X148983623Y-118451022D03*
X148700781Y-118733865D03*
D19*
X147799219Y-118733865D03*
X147516377Y-118451022D03*
X147233534Y-118168180D03*
X146950691Y-117885337D03*
X146667849Y-117602494D03*
X146385006Y-117319651D03*
X146102163Y-117036809D03*
X145819320Y-116753966D03*
X145536478Y-116471123D03*
X145253635Y-116188281D03*
D20*
X145253635Y-115286719D03*
X145536478Y-115003877D03*
X145819320Y-114721034D03*
X146102163Y-114438191D03*
X146385006Y-114155349D03*
X146667849Y-113872506D03*
X146950691Y-113589663D03*
X147233534Y-113306820D03*
X147516377Y-113023978D03*
X147799219Y-112741135D03*
%TD*%
D21*
%TO.C,C5*%
X150550000Y-121275000D03*
X150550000Y-122825000D03*
%TD*%
D22*
%TO.C,R3*%
X250350000Y-76300000D03*
X252000000Y-76300000D03*
%TD*%
D10*
%TO.C,D27*%
X122500000Y-104900000D03*
X121100000Y-104900000D03*
%TD*%
%TO.C,D38*%
X59500000Y-121900000D03*
X58100000Y-121900000D03*
%TD*%
%TO.C,D18*%
X149500000Y-87900000D03*
X148100000Y-87900000D03*
%TD*%
D23*
%TO.C,U2*%
X122300000Y-110300000D03*
X122300000Y-111250000D03*
X122300000Y-112200000D03*
X120025000Y-112200000D03*
X120025000Y-111250000D03*
X120025000Y-110300000D03*
%TD*%
D10*
%TO.C,D48*%
X248500000Y-121900000D03*
X247100000Y-121900000D03*
%TD*%
D24*
%TO.C,J1*%
X271550000Y-76830000D03*
X271550000Y-79630000D03*
D25*
X267350000Y-75130000D03*
X267350000Y-75880000D03*
D26*
X267350000Y-76480000D03*
X267350000Y-77980000D03*
X267350000Y-78980000D03*
X267350000Y-79980000D03*
D25*
X267350000Y-80580000D03*
X267350000Y-81330000D03*
X267350000Y-81330000D03*
X267350000Y-80580000D03*
D26*
X267350000Y-79480000D03*
X267350000Y-78480000D03*
X267350000Y-77480000D03*
X267350000Y-76980000D03*
D25*
X267350000Y-75880000D03*
X267350000Y-75130000D03*
%TD*%
D10*
%TO.C,D5*%
X127000000Y-70900000D03*
X125600000Y-70900000D03*
%TD*%
D12*
%TO.C,L5*%
X174300000Y-119300000D03*
X175875000Y-119300000D03*
%TD*%
D10*
%TO.C,D29*%
X158500000Y-104900000D03*
X157100000Y-104900000D03*
%TD*%
%TO.C,D28*%
X140500000Y-104900000D03*
X139100000Y-104900000D03*
%TD*%
%TO.C,D43*%
X271000000Y-104900000D03*
X269600000Y-104900000D03*
%TD*%
D27*
%TO.C,AE1*%
X178550000Y-123550000D03*
X181450000Y-123550000D03*
%TD*%
D17*
%TO.C,R1*%
X252000000Y-78550000D03*
X250350000Y-78550000D03*
%TD*%
D10*
%TO.C,D7*%
X163000000Y-70900000D03*
X161600000Y-70900000D03*
%TD*%
%TO.C,D2*%
X73000000Y-70900000D03*
X71600000Y-70900000D03*
%TD*%
%TO.C,D39*%
X79750000Y-121900000D03*
X78350000Y-121900000D03*
%TD*%
%TO.C,D20*%
X185500000Y-87900000D03*
X184100000Y-87900000D03*
%TD*%
D11*
%TO.C,C8*%
X142325000Y-118550000D03*
X140775000Y-118550000D03*
%TD*%
D13*
%TO.C,C4*%
X154050000Y-114050000D03*
X155600000Y-114050000D03*
%TD*%
%TO.C,C11*%
X154025000Y-110300000D03*
X155575000Y-110300000D03*
%TD*%
D10*
%TO.C,D25*%
X86500000Y-104900000D03*
X85100000Y-104900000D03*
%TD*%
%TO.C,D4*%
X109000000Y-70900000D03*
X107600000Y-70900000D03*
%TD*%
D21*
%TO.C,C10*%
X148550000Y-121275000D03*
X148550000Y-122825000D03*
%TD*%
D10*
%TO.C,D30*%
X176500000Y-104900000D03*
X175100000Y-104900000D03*
%TD*%
%TO.C,D36*%
X39250000Y-87900000D03*
X37850000Y-87900000D03*
%TD*%
%TO.C,D21*%
X203500000Y-87900000D03*
X202100000Y-87900000D03*
%TD*%
%TO.C,D19*%
X167500000Y-87900000D03*
X166100000Y-87900000D03*
%TD*%
%TO.C,D14*%
X77500000Y-87900000D03*
X76100000Y-87900000D03*
%TD*%
D28*
%TO.C,C17*%
X148800000Y-110075000D03*
X148800000Y-108525000D03*
%TD*%
D10*
%TO.C,D23*%
X239500000Y-87900000D03*
X238100000Y-87900000D03*
%TD*%
D13*
%TO.C,C6*%
X154025000Y-119550000D03*
X155575000Y-119550000D03*
%TD*%
D10*
%TO.C,D42*%
X169750000Y-121900000D03*
X168350000Y-121900000D03*
%TD*%
%TO.C,D41*%
X138250000Y-121900000D03*
X136850000Y-121900000D03*
%TD*%
D21*
%TO.C,C2*%
X144550000Y-121275000D03*
X144550000Y-122825000D03*
%TD*%
D13*
%TO.C,C7*%
X154050000Y-116050000D03*
X155600000Y-116050000D03*
%TD*%
D10*
%TO.C,D33*%
X230500000Y-104900000D03*
X229100000Y-104900000D03*
%TD*%
D11*
%TO.C,C9*%
X142325000Y-116800000D03*
X140775000Y-116800000D03*
%TD*%
D15*
%TO.C,L6*%
X178537500Y-119725000D03*
X178537500Y-121300000D03*
%TD*%
D21*
%TO.C,C16*%
X154050000Y-121275000D03*
X154050000Y-122825000D03*
%TD*%
D13*
%TO.C,C3*%
X154050000Y-112300000D03*
X155600000Y-112300000D03*
%TD*%
D29*
%TO.C,SW49*%
X270480000Y-87550000D03*
X270480000Y-90550000D03*
X270480000Y-92050000D03*
D30*
X271180000Y-86150000D03*
X273280000Y-86150000D03*
X273280000Y-93450000D03*
X271180000Y-93450000D03*
%TD*%
D28*
%TO.C,C18*%
X150800000Y-110075000D03*
X150800000Y-108525000D03*
%TD*%
D10*
%TO.C,D24*%
X68500000Y-104900000D03*
X67100000Y-104900000D03*
%TD*%
%TO.C,D44*%
X264250000Y-87900000D03*
X262850000Y-87900000D03*
%TD*%
%TO.C,D22*%
X221500000Y-87900000D03*
X220100000Y-87900000D03*
%TD*%
D17*
%TO.C,R4*%
X252000000Y-82550000D03*
X250350000Y-82550000D03*
%TD*%
D10*
%TO.C,D47*%
X228250000Y-121900000D03*
X226850000Y-121900000D03*
%TD*%
%TO.C,D9*%
X199000000Y-70900000D03*
X197600000Y-70900000D03*
%TD*%
D22*
%TO.C,R2*%
X250350000Y-80300000D03*
X252000000Y-80300000D03*
%TD*%
D15*
%TO.C,L1*%
X152300000Y-121262500D03*
X152300000Y-122837500D03*
%TD*%
D17*
%TO.C,R6*%
X117625000Y-110050000D03*
X115975000Y-110050000D03*
%TD*%
D10*
%TO.C,D40*%
X106750000Y-121900000D03*
X105350000Y-121900000D03*
%TD*%
%TO.C,D12*%
X253000000Y-70900000D03*
X251600000Y-70900000D03*
%TD*%
%TO.C,D6*%
X145000000Y-70900000D03*
X143600000Y-70900000D03*
%TD*%
%TO.C,D8*%
X181000000Y-70900000D03*
X179600000Y-70900000D03*
%TD*%
%TO.C,D46*%
X201250000Y-121900000D03*
X199850000Y-121900000D03*
%TD*%
D21*
%TO.C,C1*%
X146300000Y-121275000D03*
X146300000Y-122825000D03*
%TD*%
D10*
%TO.C,D16*%
X113500000Y-87900000D03*
X112100000Y-87900000D03*
%TD*%
M02*
