%TF.GenerationSoftware,KiCad,Pcbnew,10.0.5*%
%TF.CreationDate,2026-09-05T16:53:24-07:00*%
%TF.ProjectId,flinx,666c696e-782e-46b6-9963-61645f706362,rev?*%
%TF.SameCoordinates,Original*%
%TF.FileFunction,Soldermask,Top*%
%TF.FilePolarity,Negative*%
%FSLAX46Y46*%
G04 Gerber Fmt 4.6, Leading zero omitted, Abs format (unit mm)*
G04 Created by KiCad (PCBNEW 10.0.5) date 2026-09-05 16:53:24*
%MOMM*%
%LPD*%
G01*
G04 APERTURE LIST*
%ADD10C,2.600000*%
%ADD11C,5.050000*%
%ADD12C,2.200000*%
%ADD13C,3.500000*%
%ADD14C,0.600000*%
%ADD15O,0.600000X0.850000*%
%ADD16O,2.600000X1.300000*%
%ADD17O,2.300000X1.300000*%
%ADD18C,0.900000*%
G04 APERTURE END LIST*
D10*
%TO.C,SW30*%
X75800000Y-104850000D03*
D11*
X80800000Y-99700000D03*
D12*
X80800000Y-93800000D03*
X85800000Y-95900000D03*
%TD*%
D10*
%TO.C,SW10*%
X188300000Y-70850000D03*
D11*
X193300000Y-65700000D03*
D12*
X193300000Y-59800000D03*
X198300000Y-61900000D03*
%TD*%
D10*
%TO.C,SW18*%
X84800000Y-87850000D03*
D11*
X89800000Y-82700000D03*
D12*
X89800000Y-76800000D03*
X94800000Y-78900000D03*
%TD*%
D10*
%TO.C,SW1*%
X26300000Y-70850000D03*
D11*
X31300000Y-65700000D03*
D12*
X31300000Y-59800000D03*
X36300000Y-61900000D03*
%TD*%
D10*
%TO.C,SW25*%
X210800000Y-87850000D03*
D11*
X215800000Y-82700000D03*
D12*
X215800000Y-76800000D03*
X220800000Y-78900000D03*
%TD*%
D10*
%TO.C,SW5*%
X98300000Y-70850000D03*
D11*
X103300000Y-65700000D03*
D12*
X103300000Y-59800000D03*
X108300000Y-61900000D03*
%TD*%
D10*
%TO.C,SW15*%
X28550000Y-87850000D03*
D11*
X33550000Y-82700000D03*
D12*
X33550000Y-76800000D03*
X38550000Y-78900000D03*
%TD*%
D10*
%TO.C,SW13*%
X242300000Y-70850000D03*
D11*
X247300000Y-65700000D03*
D12*
X247300000Y-59800000D03*
X252300000Y-61900000D03*
%TD*%
D13*
%TO.C,REF\u002A\u002A*%
X87550000Y-116700000D03*
%TD*%
D10*
%TO.C,SW27*%
X253550000Y-87850000D03*
D11*
X258550000Y-82700000D03*
D12*
X258550000Y-76800000D03*
X263550000Y-78900000D03*
%TD*%
D10*
%TO.C,SW2*%
X44300000Y-70850000D03*
D11*
X49300000Y-65700000D03*
D12*
X49300000Y-59800000D03*
X54300000Y-61900000D03*
%TD*%
D13*
%TO.C,REF\u002A\u002A*%
X246175000Y-82700000D03*
%TD*%
D10*
%TO.C,SW22*%
X156800000Y-87850000D03*
D11*
X161800000Y-82700000D03*
D12*
X161800000Y-76800000D03*
X166800000Y-78900000D03*
%TD*%
D10*
%TO.C,SW29*%
X57800000Y-104850000D03*
D11*
X62800000Y-99700000D03*
D12*
X62800000Y-93800000D03*
X67800000Y-95900000D03*
%TD*%
D10*
%TO.C,SW19*%
X102800000Y-87850000D03*
D11*
X107800000Y-82700000D03*
D12*
X107800000Y-76800000D03*
X112800000Y-78900000D03*
%TD*%
D10*
%TO.C,SW32*%
X111800000Y-104850000D03*
D11*
X116800000Y-99700000D03*
D12*
X116800000Y-93800000D03*
X121800000Y-95900000D03*
%TD*%
D10*
%TO.C,SW28*%
X33050000Y-104850000D03*
D11*
X38050000Y-99700000D03*
D12*
X38050000Y-93800000D03*
X43050000Y-95900000D03*
%TD*%
D10*
%TO.C,SW47*%
X217550000Y-121850000D03*
D11*
X222550000Y-116700000D03*
D12*
X222550000Y-110800000D03*
X227550000Y-112900000D03*
%TD*%
D10*
%TO.C,SW4*%
X80300000Y-70850000D03*
D11*
X85300000Y-65700000D03*
D12*
X85300000Y-59800000D03*
X90300000Y-61900000D03*
%TD*%
D10*
%TO.C,SW48*%
X237800000Y-121850000D03*
D11*
X242800000Y-116700000D03*
D12*
X242800000Y-110800000D03*
X247800000Y-112900000D03*
%TD*%
D10*
%TO.C,SW31*%
X93800000Y-104850000D03*
D11*
X98800000Y-99700000D03*
D12*
X98800000Y-93800000D03*
X103800000Y-95900000D03*
%TD*%
D10*
%TO.C,SW21*%
X138800000Y-87850000D03*
D11*
X143800000Y-82700000D03*
D12*
X143800000Y-76800000D03*
X148800000Y-78900000D03*
%TD*%
D10*
%TO.C,SW33*%
X129800000Y-104850000D03*
D11*
X134800000Y-99700000D03*
D12*
X134800000Y-93800000D03*
X139800000Y-95900000D03*
%TD*%
D10*
%TO.C,SW26*%
X228800000Y-87850000D03*
D11*
X233800000Y-82700000D03*
D12*
X233800000Y-76800000D03*
X238800000Y-78900000D03*
%TD*%
D10*
%TO.C,SW46*%
X190550000Y-121850000D03*
D11*
X195550000Y-116700000D03*
D12*
X195550000Y-110800000D03*
X200550000Y-112900000D03*
%TD*%
D10*
%TO.C,SW9*%
X170300000Y-70850000D03*
D11*
X175300000Y-65700000D03*
D12*
X175300000Y-59800000D03*
X180300000Y-61900000D03*
%TD*%
D10*
%TO.C,SW12*%
X224300000Y-70850000D03*
D11*
X229300000Y-65700000D03*
D12*
X229300000Y-59800000D03*
X234300000Y-61900000D03*
%TD*%
D10*
%TO.C,SW24*%
X192800000Y-87850000D03*
D11*
X197800000Y-82700000D03*
D12*
X197800000Y-76800000D03*
X202800000Y-78900000D03*
%TD*%
D10*
%TO.C,SW39*%
X240050000Y-104850000D03*
D11*
X245050000Y-99700000D03*
D12*
X245050000Y-93800000D03*
X250050000Y-95900000D03*
%TD*%
D10*
%TO.C,SW23*%
X174800000Y-87850000D03*
D11*
X179800000Y-82700000D03*
D12*
X179800000Y-76800000D03*
X184800000Y-78900000D03*
%TD*%
D10*
%TO.C,SW42*%
X69050000Y-121850000D03*
D11*
X74050000Y-116700000D03*
D12*
X74050000Y-110800000D03*
X79050000Y-112900000D03*
%TD*%
D10*
%TO.C,SW8*%
X152300000Y-70850000D03*
D11*
X157300000Y-65700000D03*
D12*
X157300000Y-59800000D03*
X162300000Y-61900000D03*
%TD*%
D10*
%TO.C,SW6*%
X116300000Y-70850000D03*
D11*
X121300000Y-65700000D03*
D12*
X121300000Y-59800000D03*
X126300000Y-61900000D03*
%TD*%
D10*
%TO.C,SW17*%
X66800000Y-87850000D03*
D11*
X71800000Y-82700000D03*
D12*
X71800000Y-76800000D03*
X76800000Y-78900000D03*
%TD*%
D10*
%TO.C,SW34*%
X147800000Y-104850000D03*
D11*
X152800000Y-99700000D03*
D12*
X152800000Y-93800000D03*
X157800000Y-95900000D03*
%TD*%
D10*
%TO.C,SW43*%
X96050000Y-121850000D03*
D11*
X101050000Y-116700000D03*
D12*
X101050000Y-110800000D03*
X106050000Y-112900000D03*
%TD*%
D10*
%TO.C,SW3*%
X62300000Y-70850000D03*
D11*
X67300000Y-65700000D03*
D12*
X67300000Y-59800000D03*
X72300000Y-61900000D03*
%TD*%
D10*
%TO.C,SW36*%
X183800000Y-104850000D03*
D11*
X188800000Y-99700000D03*
D12*
X188800000Y-93800000D03*
X193800000Y-95900000D03*
%TD*%
D10*
%TO.C,SW7*%
X134300000Y-70850000D03*
D11*
X139300000Y-65700000D03*
D12*
X139300000Y-59800000D03*
X144300000Y-61900000D03*
%TD*%
D10*
%TO.C,SW14*%
X260300000Y-70850000D03*
D11*
X265300000Y-65700000D03*
D12*
X265300000Y-59800000D03*
X270300000Y-61900000D03*
%TD*%
D10*
%TO.C,SW37*%
X201800000Y-104850000D03*
D11*
X206800000Y-99700000D03*
D12*
X206800000Y-93800000D03*
X211800000Y-95900000D03*
%TD*%
D10*
%TO.C,SW11*%
X206300000Y-70850000D03*
D11*
X211300000Y-65700000D03*
D12*
X211300000Y-59800000D03*
X216300000Y-61900000D03*
%TD*%
D10*
%TO.C,SW20*%
X120800000Y-87850000D03*
D11*
X125800000Y-82700000D03*
D12*
X125800000Y-76800000D03*
X130800000Y-78900000D03*
%TD*%
D10*
%TO.C,SW45*%
X159050000Y-121850000D03*
D11*
X164050000Y-116700000D03*
D12*
X164050000Y-110800000D03*
X169050000Y-112900000D03*
%TD*%
D10*
%TO.C,SW40*%
X260300000Y-104850000D03*
D11*
X265300000Y-99700000D03*
D12*
X265300000Y-93800000D03*
X270300000Y-95900000D03*
%TD*%
D13*
%TO.C,REF\u002A\u002A*%
X50425000Y-99700000D03*
%TD*%
D10*
%TO.C,SW35*%
X165800000Y-104850000D03*
D11*
X170800000Y-99700000D03*
D12*
X170800000Y-93800000D03*
X175800000Y-95900000D03*
%TD*%
D10*
%TO.C,SW44*%
X127550000Y-121850000D03*
D11*
X132550000Y-116700000D03*
D12*
X132550000Y-110800000D03*
X137550000Y-112900000D03*
%TD*%
D13*
%TO.C,REF\u002A\u002A*%
X209050000Y-116700000D03*
%TD*%
D10*
%TO.C,SW38*%
X219800000Y-104850000D03*
D11*
X224800000Y-99700000D03*
D12*
X224800000Y-93800000D03*
X229800000Y-95900000D03*
%TD*%
D10*
%TO.C,SW41*%
X48800000Y-121850000D03*
D11*
X53800000Y-116700000D03*
D12*
X53800000Y-110800000D03*
X58800000Y-112900000D03*
%TD*%
D10*
%TO.C,SW16*%
X48800000Y-87850000D03*
D11*
X53800000Y-82700000D03*
D12*
X53800000Y-76800000D03*
X58800000Y-78900000D03*
%TD*%
D14*
%TO.C,J1*%
X268450000Y-75230000D03*
D15*
X268450000Y-81230000D03*
D16*
X271550000Y-73910000D03*
D17*
X267725000Y-73910000D03*
D16*
X271550000Y-82550000D03*
D17*
X267725000Y-82550000D03*
%TD*%
D18*
%TO.C,SW49*%
X272230000Y-88300000D03*
X272230000Y-91300000D03*
%TD*%
M02*
